<?xml version="1.0" encoding="UTF-8" standalone="no"?><!DOCTYPE svg PUBLIC "-//W3C//DTD SVG 1.1//EN" "http://www.w3.org/Graphics/SVG/1.1/DTD/svg11.dtd"><svg width="100%" height="100%" viewBox="0 0 1024 305" version="1.1" xmlns="http://www.w3.org/2000/svg" xmlns:xlink="http://www.w3.org/1999/xlink" xml:space="preserve" xmlns:serif="http://www.serif.com/" style="fill-rule:evenodd;clip-rule:evenodd;stroke-linejoin:round;stroke-miterlimit:2;"><path id="path2987" d="M52.884,304.059c0,-0.216 0.453,-0.892 1.007,-1.504c0.956,-1.057 0.944,-1.16 -0.246,-2.088c-1.337,-1.044 -1.84,-4.057 -1.064,-6.375c0.521,-1.557 1.365,-1.681 2.343,-0.343c0.399,0.545 1.108,0.817 1.619,0.621c0.718,-0.276 0.899,-1.277 0.864,-4.77c-0.061,-6.039 -0.765,-6.993 -4.854,-6.571c-3.273,0.338 -4.543,-0.541 -2.833,-1.96c1.135,-0.942 2.767,-4.441 2.371,-5.083c-0.174,-0.28 -1.445,-0.846 -2.825,-1.257c-1.38,-0.411 -3.113,-0.983 -3.85,-1.27c-2.912,-1.136 -5.507,-0.089 -5.168,2.085c0.184,1.176 2.672,3.324 3.359,2.899c0.393,-0.243 0.552,-0.19 0.36,0.121c-0.189,0.305 -0.113,0.928 0.168,1.383c0.313,0.506 0.255,1.139 -0.149,1.625c-0.48,0.578 -0.487,1.075 -0.026,1.813c0.924,1.479 -0.997,2.478 -5.453,2.835c-2.79,0.224 -3.854,0.083 -4.539,-0.602c-1.491,-1.492 -4.957,-3.447 -5.506,-3.108c-0.284,0.176 -0.417,0.917 -0.296,1.646c0.169,1.017 -0.328,1.702 -2.121,2.927c-1.287,0.879 -2.347,2.061 -2.354,2.626c-0.029,2.329 -3.438,4.792 -5.145,3.719c-0.609,-0.382 -0.404,-0.927 0.928,-2.467c1.463,-1.692 1.729,-2.521 1.848,-5.769c0.091,-2.518 0.456,-4.147 1.084,-4.843c0.977,-1.084 1.386,-2.29 1.376,-4.057c-0.003,-0.562 0.175,-1.023 0.396,-1.024c0.221,0 1.279,-0.825 2.351,-1.83c2.133,-1.999 1.788,-2.811 -1.202,-2.828c-1.117,-0.006 -1.494,-0.25 -1.273,-0.825c0.373,-0.972 -0.692,-1.797 -1.22,-0.944c-0.453,0.735 -1.464,0.781 -1.464,0.067c0,-0.289 0.946,-1.084 2.102,-1.766c3.418,-2.017 7.76,-5.935 7.456,-6.729c-0.156,-0.405 -0.904,-1.068 -1.664,-1.475c-0.796,-0.426 -1.25,-1.082 -1.071,-1.548c0.208,-0.543 0.016,-0.695 -0.585,-0.465c-0.493,0.189 -1.036,0.709 -1.207,1.156c-0.436,1.135 -4.13,2.576 -6.388,2.491c-1.037,-0.039 -2.433,0.221 -3.1,0.579c-1.09,0.583 -3.834,0.468 -4.925,-0.206c-0.229,-0.142 -0.183,-1.302 0.104,-2.578c0.653,-2.907 0.432,-4.419 -0.871,-5.941c-1.238,-1.445 -0.888,-1.992 0.723,-1.131c0.648,0.347 1.761,0.631 2.473,0.631c1.368,0 8.392,-3.109 8.907,-3.943c0.412,-0.666 -0.28,-1.607 -1.517,-2.063c-0.644,-0.238 -1.021,-0.988 -1.021,-2.034c0,-2.127 1.299,-3.93 2.499,-3.469c1.136,0.435 2.42,-1.004 1.962,-2.198c-0.235,-0.61 -1.165,-0.883 -3.015,-0.883l-2.677,0l0.178,-3.064c0.16,-2.757 0.322,-3.084 1.622,-3.267c0.795,-0.112 1.794,-0.703 2.222,-1.313c0.446,-0.638 1.467,-1.11 2.397,-1.11c2.208,0 2.51,-0.473 1.162,-1.821c-0.627,-0.627 -0.98,-1.398 -0.785,-1.714c0.195,-0.316 -0.542,-0.949 -1.639,-1.408c-1.506,-0.629 -2.223,-1.447 -2.931,-3.343c-1.585,-4.242 -1.732,-5.45 -0.761,-6.256c0.873,-0.724 4.101,-0.587 6.332,0.269c1.714,0.658 1.215,-1.418 -0.792,-3.293c-0.997,-0.931 -2.063,-1.693 -2.369,-1.693c-0.306,0 -0.394,-0.262 -0.195,-0.583c0.198,-0.321 0.039,-0.584 -0.355,-0.584c-0.393,0 -0.573,-0.142 -0.4,-0.315c0.174,-0.174 1.277,0.251 2.451,0.943c2.155,1.272 6.447,1.676 7.424,0.699c0.53,-0.531 -1.528,-4.856 -2.625,-5.518c-2.852,-1.721 -2.91,-1.891 -1.299,-3.806c1.654,-1.966 1.881,-3.076 0.84,-4.117c-0.511,-0.511 -0.511,-0.874 -0.002,-1.487c0.832,-1.003 -0.556,-2.391 -2.961,-2.962c-1.047,-0.249 -1.722,-0.878 -1.96,-1.829c-0.265,-1.056 -0.757,-1.45 -1.808,-1.45c-1.912,0 -1.497,-1.199 0.825,-2.382c2.314,-1.179 1.813,-1.998 -2.054,-3.36c-4.029,-1.419 -5.357,-2.683 -5.085,-4.837c0.148,-1.163 -0.158,-2.057 -0.959,-2.802c-1.171,-1.092 -1.17,-1.097 0.478,-1.441c1.84,-0.384 5.387,-0.786 11.707,-1.326c3.043,-0.259 4.471,-0.149 5.127,0.395c0.745,0.619 1.499,0.614 4.159,-0.024c3.672,-0.881 4.513,-1.999 2.592,-3.448c-1.162,-0.877 -1.205,-1.065 -0.395,-1.738c1.256,-1.042 0.967,-3.519 -0.64,-5.49c-0.74,-0.908 -1.345,-2.009 -1.345,-2.448c0,-0.438 -0.476,-1.14 -1.057,-1.56c-2.675,-1.929 -1.112,-2.621 2.516,-1.113c3.427,1.424 4.809,1.456 5.233,0.12c0.409,-1.29 -0.069,-3.563 -0.75,-3.563c-0.341,0 -0.418,-1.988 -0.175,-4.504c0.103,-1.065 1.661,-0.252 1.999,1.043c0.209,0.799 0.807,1.127 2.053,1.127c0.966,0 2.239,0.18 2.826,0.401c0.921,0.345 0.964,0.271 0.309,-0.535c-0.645,-0.794 -0.58,-0.992 0.438,-1.315c0.659,-0.21 1.198,-0.638 1.198,-0.953c0,-0.315 0.722,-1.234 1.605,-2.043c1.069,-0.979 1.363,-1.57 0.88,-1.77c-0.549,-0.226 -0.514,-0.509 0.146,-1.169c0.479,-0.478 0.901,-1.573 0.938,-2.433c0.109,-2.536 0.166,-2.69 1.531,-4.158c0.718,-0.772 1.454,-1.87 1.635,-2.439c0.18,-0.569 0.675,-0.902 1.098,-0.739c0.424,0.162 0.927,-0.114 1.119,-0.614c0.222,-0.576 1.076,-0.908 2.339,-0.908c1.65,0 2.111,-0.292 2.698,-1.709c0.389,-0.94 1.078,-1.851 1.53,-2.025c0.452,-0.173 0.822,-0.873 0.822,-1.554c0,-0.682 0.521,-1.903 1.159,-2.714c0.638,-0.81 1.04,-1.667 0.893,-1.904c-0.146,-0.237 0.373,-0.309 1.153,-0.159c0.84,0.16 1.803,-0.113 2.359,-0.668c0.516,-0.517 1.403,-0.94 1.971,-0.94c1.154,0 2.386,-2.249 2.386,-4.355c0,-1.787 0.983,-2.106 3.427,-1.113c1.082,0.44 2.02,0.8 2.083,0.8c0.345,0 3.828,-3.377 3.828,-3.711c0,-0.218 -0.657,-0.232 -1.459,-0.031c-1.018,0.256 -1.462,0.127 -1.468,-0.426c-0.007,-0.622 -0.126,-0.608 -0.552,0.066c-0.464,0.733 -0.602,0.708 -0.939,-0.171c-0.217,-0.567 -0.241,-1.185 -0.052,-1.373c0.189,-0.189 0.095,-0.807 -0.208,-1.374c-0.446,-0.833 -0.269,-1.101 0.92,-1.399c0.809,-0.203 1.313,-0.625 1.121,-0.936c-0.193,-0.312 0.175,-0.567 0.817,-0.567c1.3,0 2.252,-1.092 1.457,-1.67c-0.863,-0.627 -0.853,-1.831 0.015,-1.831c1.388,0 4.953,-3.583 5.642,-5.671c0.359,-1.088 0.503,-2.576 0.319,-3.307c-0.254,-1.012 0.08,-1.633 1.404,-2.612c1.111,-0.822 1.737,-1.804 1.737,-2.726c0,-1.012 0.321,-1.441 1.076,-1.441c0.593,0 1.529,-0.5 2.081,-1.11c0.552,-0.61 1.883,-1.274 2.957,-1.476c1.486,-0.279 2.098,-0.781 2.558,-2.1c0.333,-0.954 0.883,-1.734 1.223,-1.734c0.341,0 1.039,-1.051 1.553,-2.335c0.908,-2.268 1.013,-2.334 3.727,-2.334c2.264,0 3.13,-0.314 4.57,-1.66c0.977,-0.912 3.236,-2.118 5.021,-2.68c1.784,-0.561 3.392,-1.259 3.572,-1.55c0.18,-0.291 1.105,-0.53 2.056,-0.53c1.278,0 1.902,-0.38 2.394,-1.459c0.365,-0.802 0.953,-1.459 1.306,-1.459c0.353,0 0.969,-0.525 1.37,-1.167c0.401,-0.642 1.09,-1.167 1.531,-1.167c0.994,0 1.556,-1.926 0.876,-2.999c-0.621,-0.981 -0.679,-2.415 -0.083,-2.065c0.241,0.142 1.029,0.035 1.751,-0.238c1.533,-0.58 1.897,-3.452 0.438,-3.452c-0.967,0 -1.199,-1.482 -0.318,-2.027c0.307,-0.19 0.41,-0.73 0.23,-1.202c-0.181,-0.471 -0.023,-0.856 0.351,-0.856c0.375,0 0.493,-0.303 0.264,-0.674c-0.229,-0.371 -0.162,-0.517 0.148,-0.325c0.661,0.409 4.869,-3.173 4.869,-4.144c0,-0.584 -2.731,-2.373 -3.502,-2.293c-0.75,0.077 -4.669,-1.605 -4.669,-2.005c0,-0.248 0.723,-0.361 1.605,-0.249c0.883,0.111 1.277,0.085 0.876,-0.058c-0.402,-0.142 -0.73,-0.606 -0.73,-1.029c0,-1.017 1.838,-1.698 2.35,-0.871c0.22,0.356 1.451,0.789 2.735,0.961c2.862,0.384 5.294,-1.19 4.087,-2.644c-0.611,-0.737 -0.313,-0.787 2.21,-0.371c6.081,1.002 11.347,-0.438 11.397,-3.117c0.016,-0.854 0.13,-0.834 0.876,0.152c0.471,0.623 0.857,0.901 0.857,0.618c0,-0.284 0.378,-0.005 0.841,0.618c0.462,0.623 0.702,1.702 0.532,2.398c-0.213,0.872 0.048,1.456 0.843,1.881c1.32,0.706 5.215,0.712 6.593,0.01c0.579,-0.295 1.411,-0.138 2.201,0.415c1.524,1.068 6.278,1.634 6.788,0.808c0.199,-0.322 0.07,-0.586 -0.287,-0.586c-1.458,0 -4.423,-2.639 -4.197,-3.736c0.126,-0.611 -0.193,-1.346 -0.707,-1.634c-1.23,-0.689 -1.184,-1.459 0.129,-2.162c0.725,-0.387 1.984,-0.317 3.94,0.219c1.581,0.434 2.48,0.834 1.999,0.888c-0.555,0.062 -0.623,0.201 -0.186,0.379c0.832,0.339 4.271,-1.352 4.271,-2.1c0,-0.292 0.722,-0.379 1.605,-0.195c0.883,0.185 2.393,0.402 3.356,0.483c0.963,0.081 1.919,0.176 2.125,0.21c0.206,0.034 0.537,0.71 0.736,1.504c0.441,1.755 1.657,2.457 4.725,2.728l2.335,0.206l0.013,-2.334c0.007,-1.284 -0.24,-2.513 -0.55,-2.73c-0.359,-0.252 -0.34,-0.888 0.052,-1.751c0.436,-0.959 0.43,-1.649 -0.02,-2.36c-1.104,-1.745 0.2,-2.158 4.179,-1.324c2.021,0.424 4.04,1.074 4.486,1.445c1.414,1.173 8.473,-0.582 8.473,-2.106c0,-0.472 -0.786,-1.305 -1.747,-1.852c-0.961,-0.547 -1.749,-1.206 -1.751,-1.466c-0.002,-0.26 -0.248,-0.321 -0.547,-0.137c-0.299,0.185 -0.732,0.031 -0.962,-0.341c-0.292,-0.472 0.044,-0.59 1.106,-0.387c0.839,0.161 1.6,0.105 1.692,-0.123c0.285,-0.712 4.543,-1.282 4.543,-0.609c0,0.886 2.197,2.944 3.142,2.944c0.444,0 0.945,0.526 1.113,1.168c0.167,0.642 0.751,1.167 1.297,1.167c0.665,0 0.876,0.304 0.638,0.923c-0.194,0.508 -0.354,1.164 -0.354,1.459c0,0.295 -0.544,0.536 -1.209,0.536c-1.791,0 -3.175,1.563 -2.308,2.608c0.377,0.453 1.011,0.699 1.41,0.546c0.399,-0.153 1.439,0.092 2.312,0.545c1.472,0.763 1.501,0.845 0.399,1.133c-1.77,0.463 -1.436,2.036 0.709,3.345c2.272,1.385 3.614,1.507 3.145,0.285c-0.259,-0.674 0.129,-0.875 1.688,-0.875c1.365,0 2.025,-0.272 2.025,-0.833c0,-1.484 2.891,-3.281 4.591,-2.855c1.649,0.414 4.746,3.184 4.746,4.245c0,0.39 1.101,0.626 2.772,0.595c1.525,-0.029 5.984,-0.017 9.909,0.025c6.204,0.068 13.581,-0.753 13.581,-1.511c0,-0.137 -0.525,-0.775 -1.167,-1.417c-0.642,-0.642 -1.167,-1.43 -1.167,-1.751c0,-0.88 1.908,-0.701 3.359,0.316c1.21,0.847 1.384,0.789 3.03,-1.022c0.961,-1.056 1.755,-2.117 1.764,-2.358c0.009,-0.241 0.296,-0.438 0.636,-0.438c0.339,0 0.467,0.245 0.282,0.544c-0.185,0.298 -0.041,0.725 0.32,0.948c0.464,0.287 0.424,0.551 -0.137,0.907c-1.355,0.858 1.467,0.613 3.706,-0.322c3.116,-1.302 3.696,-2.32 1.968,-3.452c-1.627,-1.066 -1.81,-3.156 -0.268,-3.062c0.551,0.033 1.509,0.646 2.13,1.363c0.621,0.716 1.282,1.149 1.469,0.962c0.188,-0.188 0.927,0.069 1.643,0.571l1.303,0.912l-1.595,0.607c-0.877,0.333 -1.84,0.606 -2.14,0.606c-0.3,0 -0.545,0.627 -0.545,1.393c0,1.193 0.355,1.444 2.48,1.752c1.364,0.198 3.188,0.162 4.054,-0.08c1.792,-0.5 7.136,-5.41 8.722,-8.012c1.043,-1.713 1.039,-1.748 -0.242,-2.46c-1.275,-0.708 -1.268,-0.723 0.381,-0.743c2.021,-0.025 6.945,-4.511 7.983,-7.274c1.715,-4.562 2.54,-5.606 4.921,-6.225c3.176,-0.825 5.55,-1.879 5.55,-2.463c0,-1.331 5.128,-4.778 8.17,-5.492c3.514,-0.824 4.667,-0.731 4.678,0.375c0.006,0.61 0.155,0.698 0.437,0.259c0.251,-0.389 2.099,-0.674 4.439,-0.686c3.112,-0.016 4.269,0.22 5.167,1.056c0.843,0.786 1.694,0.991 3.138,0.756c1.09,-0.177 3.537,-0.015 5.439,0.359c3.348,0.659 3.584,0.62 7.428,-1.196c3.003,-1.419 4.911,-1.912 7.827,-2.025c2.974,-0.115 3.855,0.037 3.855,0.663c0,0.446 -0.26,0.651 -0.578,0.454c-0.356,-0.22 -0.434,0.182 -0.202,1.047c0.206,0.772 0.379,1.864 0.383,2.426c0.013,1.585 2.832,1.349 3.492,-0.292c0.29,-0.722 0.544,-1.022 0.565,-0.665c0.02,0.356 1.458,0.794 3.194,0.973c1.737,0.18 3.836,0.77 4.664,1.313c1.602,1.05 2.992,4.867 2.483,6.817c-0.34,1.299 1.122,2.108 2.08,1.15c0.45,-0.45 0.97,-0.454 1.792,-0.014c0.763,0.409 3.07,0.465 6.768,0.166c3.085,-0.249 8.384,-0.441 11.775,-0.426l6.166,0.026l4.444,2.698c3.569,2.166 4.97,2.698 7.111,2.698c1.823,0 2.621,-0.231 2.522,-0.73c-0.187,-0.935 1.877,-0.61 3.109,0.491c0.544,0.485 2.172,0.822 3.973,0.822c3.354,0 8.366,1.07 7.976,1.703c-0.404,0.652 7.942,0.614 10.474,-0.048c3.624,-0.947 10.612,-4.449 11.784,-5.904c0.581,-0.721 1.814,-1.899 2.741,-2.617c1.576,-1.222 1.733,-1.241 2.421,-0.3c0.634,0.866 0.5,1.15 -0.956,2.035c-1.446,0.88 -1.965,1.874 -1.791,3.434c0.039,0.353 -10.92,5.935 -13.028,6.636c-0.64,0.213 -4.053,0.522 -7.583,0.687c-3.531,0.165 -6.535,0.416 -6.676,0.557c-0.754,0.754 1.473,1.593 4.302,1.621c2.123,0.021 3.03,0.229 2.651,0.608c-0.317,0.317 -0.576,0.761 -0.576,0.986c0,0.737 3.171,1.475 4.906,1.141l1.696,-0.325l-1.404,-0.7c-0.773,-0.384 -1.93,-0.833 -2.572,-0.997c-0.642,-0.164 0.146,-0.163 1.751,0c1.605,0.165 3.81,0.581 4.9,0.925c2.37,0.748 9.921,0.15 10.938,-0.866c0.223,-0.224 0.953,-0.415 1.621,-0.425c0.669,-0.01 1.726,-0.404 2.349,-0.875c0.623,-0.471 1.542,-0.859 2.043,-0.861c0.5,0 1.643,-0.386 2.541,-0.854c1.397,-0.729 1.676,-0.733 1.947,-0.028c0.381,0.992 -1.436,3.642 -2.819,4.111c-0.545,0.185 -2.046,0.378 -3.336,0.429c-1.291,0.052 -2.054,0.275 -1.697,0.495c0.358,0.221 0.489,0.822 0.292,1.336c-0.28,0.727 -1.221,0.934 -4.248,0.934c-2.77,0 -4.412,0.316 -5.708,1.097c-1.001,0.603 -2.82,1.416 -4.041,1.807c-2.003,0.64 -2.204,0.886 -2.043,2.492c0.267,2.663 1.514,3.154 5.773,2.275c1.987,-0.411 4.239,-1.156 5.004,-1.658c0.935,-0.612 2.145,-0.809 3.696,-0.601c1.268,0.17 3.234,0.1 4.368,-0.156c3.419,-0.771 2.858,0.353 -0.729,1.46c-1.839,0.568 -3.606,1.23 -3.927,1.472c-0.321,0.243 -2.29,0.902 -4.377,1.466c-5.1,1.378 -5.603,2.019 -1.583,2.019c6.054,0 22.124,-5.035 24.437,-7.657c0.533,-0.603 1.53,-1.097 2.216,-1.097c1.789,0 10.53,-5.181 10.53,-6.242c0,-0.577 0.33,-0.76 0.944,-0.524c0.52,0.199 2.292,-0.061 3.94,-0.579c4.049,-1.272 6.614,-0.605 8.134,2.115c0.617,1.106 1.683,2.572 2.369,3.258c0.685,0.687 1.719,1.939 2.298,2.783c1.741,2.537 4.602,3.348 11.787,3.339c4.248,-0.005 8.343,0.396 12.107,1.186c6.011,1.26 8.012,1.192 13.28,-0.454c3.945,-1.232 8.766,-1.404 14.036,-0.5c2.2,0.377 4.866,0.557 5.924,0.399c3.782,-0.563 7.444,-0.192 7.283,0.738c-0.058,0.335 -0.894,1.043 -1.856,1.574c-0.963,0.531 -1.62,1.075 -1.459,1.209c0.408,0.34 -1.531,2.202 -2.293,2.202c-0.344,0 -0.625,0.254 -0.625,0.564c0,0.837 -2.175,1.844 -4.102,1.899c-0.932,0.027 -1.577,0.239 -1.433,0.472c0.487,0.787 -8.16,0.496 -11.208,-0.378c-1.666,-0.477 -4.018,-1.54 -5.228,-2.361c-2.068,-1.403 -2.48,-1.468 -6.893,-1.087c-2.582,0.224 -6.014,0.748 -7.628,1.167c-4.14,1.073 -10.275,1.048 -13.552,-0.055c-3.8,-1.279 -8.619,-4.294 -9.679,-6.057c-1.221,-2.03 -6.19,-7.144 -8.119,-8.355c-2.413,-1.515 -4.3,-0.707 -8.898,3.81c-3.199,3.142 -3.9,4.122 -3.24,4.529c0.659,0.408 0.407,0.752 -1.155,1.582c-2.856,1.517 -5.997,4.683 -5.478,5.522c0.3,0.486 0.113,0.576 -0.614,0.297c-2.277,-0.874 -3.534,2.152 -1.669,4.016c0.539,0.539 1.014,1.543 1.057,2.23c0.042,0.688 0.276,1.842 0.519,2.564c0.333,0.991 0.217,1.313 -0.473,1.313c-0.504,0 -0.915,-0.306 -0.915,-0.68c0,-0.375 -0.187,-0.495 -0.415,-0.266c-0.228,0.228 0.363,1.041 1.313,1.807c1.558,1.255 1.652,1.517 0.958,2.657c-0.884,1.453 -0.984,1.288 1.552,2.578c1.958,0.996 3.983,0.841 3.307,-0.254c-0.24,-0.388 0.166,-0.385 1.201,0.008c1.526,0.581 4.943,-0.119 6.353,-1.3c0.305,-0.256 1.404,-0.465 2.442,-0.465c1.039,0 2.627,-0.295 3.531,-0.656c1.792,-0.717 6.683,-0.714 7.174,0.005c0.168,0.246 1.565,0.793 3.105,1.217c2.266,0.623 3.063,0.629 4.178,0.032c1.153,-0.617 1.599,-0.583 2.728,0.208c0.743,0.52 2.112,0.946 3.043,0.946c1.497,0 1.601,0.11 0.904,0.949c-0.71,0.857 -0.544,0.927 1.692,0.713c1.879,-0.179 2.409,-0.05 2.186,0.532c-0.162,0.423 0.094,0.918 0.571,1.1c0.476,0.183 0.865,0.698 0.865,1.145c0,0.849 2.174,1.075 4.453,0.464c1.175,-0.315 1.196,-0.43 0.377,-2.071c-0.894,-1.793 -0.52,-3.175 0.445,-1.648c0.299,0.472 0.547,0.621 0.552,0.332c0.006,-0.29 0.5,0.038 1.099,0.729c1.472,1.698 3.201,1.581 6.818,-0.46c8.158,-4.604 21.272,-5.84 21.272,-2.005c0,0.468 0.609,0.804 1.459,0.804c0.858,0 1.459,-0.335 1.459,-0.813c0,-0.944 1.587,-1.721 1.859,-0.91c0.101,0.3 0.84,0.553 1.643,0.562c8.33,0.096 12.292,-0.175 16.97,-1.162c8.428,-1.779 19.771,-1.272 22.277,0.995c0.846,0.766 2.227,0.906 7.594,0.769c3.607,-0.092 7.74,-0.188 9.185,-0.214c2.473,-0.043 9.164,1.078 11.088,1.859c0.482,0.196 9.148,0.388 19.259,0.427c19.438,0.075 37.054,0.569 37.848,1.059c0.261,0.162 4.13,0.27 8.597,0.24c4.467,-0.03 22.172,-0.105 39.345,-0.168c33.627,-0.122 37.096,-0.175 36.708,-0.564c-0.14,-0.139 -5.108,-0.672 -11.04,-1.184c-5.933,-0.512 -11.837,-1.029 -13.121,-1.15c-1.284,-0.12 -8.637,-0.283 -16.341,-0.362c-7.703,-0.079 -14.794,-0.311 -15.757,-0.516c-1.71,-0.364 -1.688,-0.389 0.988,-1.079c1.506,-0.389 4.133,-0.712 5.836,-0.718c1.704,-0.006 5.461,-0.401 8.35,-0.88c5.353,-0.886 14.661,-0.823 32.682,0.222c7.78,0.451 19.072,0.378 28.888,-0.188c5.55,-0.319 11.57,-0.548 31.223,-1.185c14.764,-0.479 35.427,-1.409 40.268,-1.812c4.151,-0.346 4.627,0.132 1.272,1.276c-1.181,0.403 -1.922,1.084 -2.039,1.872c-0.155,1.05 -0.713,1.3 -3.647,1.632c-1.905,0.215 -3.464,0.596 -3.464,0.845c0,0.249 -1.379,0.648 -3.064,0.886c-1.685,0.237 -2.67,0.556 -2.189,0.708c0.482,0.152 1.321,0.836 1.865,1.52c0.916,1.151 1.454,1.23 7.295,1.077c3.468,-0.092 9.589,-0.354 13.601,-0.584c4.012,-0.23 9.264,-0.213 11.672,0.037c2.541,0.265 5.479,0.218 7.003,-0.111c1.445,-0.312 4.99,-0.969 7.879,-1.459c2.889,-0.491 6.959,-1.187 9.046,-1.547c2.086,-0.36 4.318,-0.631 4.96,-0.603c2.093,0.093 6.908,-1.247 11.655,-3.242c4.652,-1.956 6.493,-2.406 5.897,-1.442c-0.174,0.282 -1.229,0.945 -2.344,1.474c-3.449,1.637 -2.153,2.537 3.791,2.632c5.903,0.094 7.183,0.408 6.707,1.649c-0.229,0.597 -0.058,0.76 0.55,0.527c1.088,-0.418 1.173,0.559 0.105,1.2c-0.735,0.442 -2.899,4.29 -2.581,4.591c0.082,0.077 1.613,0.322 3.404,0.543l3.255,0.403l2.457,-2.935c1.448,-1.729 3.268,-3.202 4.431,-3.586c1.085,-0.358 2.312,-1.06 2.727,-1.56c0.63,-0.759 0.571,-1.043 -0.359,-1.723c-1.834,-1.341 0.041,-2.248 4.221,-2.042c0.723,0.036 1.313,0.428 1.313,0.873c0,1.056 2.527,2.693 4.156,2.693c1.211,0 1.226,-0.057 0.291,-1.09c-0.94,-1.039 -0.895,-1.133 0.931,-1.974c1.054,-0.485 2.95,-1.066 4.212,-1.29c1.625,-0.288 2.056,-0.554 1.478,-0.911c-0.623,-0.385 -0.427,-0.651 0.83,-1.129c1.094,-0.416 1.533,-0.915 1.311,-1.492c-0.388,-1.013 -0.302,-1.034 1.489,-0.359c1.662,0.627 3.978,-0.16 3.978,-1.35c0,-0.908 2.812,-2.66 4.269,-2.66c0.454,0 1.452,-0.485 2.218,-1.079c0.765,-0.593 2.114,-1.254 2.996,-1.47c0.883,-0.215 1.605,-0.649 1.605,-0.964c0,-0.315 0.657,-0.573 1.459,-0.573c0.803,0 1.459,0.203 1.459,0.451c0,0.518 -3.129,2.198 -5.183,2.783c-2.398,0.683 -0.106,1.442 3.195,1.058c1.887,-0.219 3.466,-0.081 4.326,0.379c1.353,0.724 1.353,0.726 0.169,1.675c-1.726,1.383 -2.074,3.454 -0.703,4.188c0.613,0.328 1.114,0.981 1.114,1.451c0,1.056 -2.494,1.125 -6.274,0.173c-2.044,-0.514 -2.761,-0.516 -2.931,-0.007c-0.124,0.371 -0.919,1.466 -1.768,2.433c-1.204,1.372 -2.026,1.758 -3.747,1.758c-1.375,0 -2.149,0.256 -2.058,0.682c0.08,0.375 -0.458,0.996 -1.196,1.38l-1.341,0.7l1.433,1.702c3.518,4.181 1.391,5.409 -4.35,2.511c-3.302,-1.667 -7.948,-4.454 -8.699,-5.219c-0.348,-0.355 -1.448,-0.664 -3.73,-1.046c-1.568,-0.263 -1.661,-0.176 -1.31,1.223c0.276,1.098 0.1,1.669 -0.646,2.103c-0.918,0.535 -0.888,0.599 0.288,0.615c1.767,0.024 1.67,0.969 -0.146,1.424c-1.136,0.285 -1.459,0.741 -1.459,2.055c0,1.537 -0.223,1.723 -2.48,2.074c-3.894,0.606 -4.565,0.904 -4.393,1.95c0.136,0.825 -0.438,0.989 -3.684,1.055c-3.32,0.068 -4.055,0.289 -5.385,1.618c-1.874,1.875 -2.964,3.812 -2.438,4.336c0.459,0.457 3.986,0.645 17.796,0.947c5.618,0.122 10.953,0.506 11.856,0.853c0.904,0.347 1.889,0.63 2.189,0.63c1.41,0 0.328,1.074 -1.351,1.341c-1.043,0.166 -2.947,0.56 -4.231,0.876c-1.284,0.316 -8.349,0.738 -15.699,0.938c-11.748,0.32 -13.455,0.486 -14.105,1.375c-0.407,0.557 -0.666,1.087 -0.575,1.178c0.342,0.341 3.057,0.79 6.11,1.011c3.654,0.263 5.354,1.441 4.159,2.881c-0.549,0.661 -0.566,0.905 -0.061,0.905c0.379,0 0.527,0.263 0.329,0.584c-0.199,0.321 -1.118,0.583 -2.043,0.583c-1.39,0 -1.66,0.227 -1.56,1.313c0.242,2.644 1.1,3.267 4.934,3.586c2.013,0.167 3.873,0.435 4.133,0.596c0.436,0.27 5.024,0.36 12.919,0.254c1.765,-0.024 3.998,0.018 4.961,0.093c0.963,0.075 3.064,0.044 4.668,-0.069c1.653,-0.116 2.922,0.042 2.927,0.367c0.01,0.314 0.218,0.9 0.473,1.301c0.558,0.88 -0.346,0.938 -2.951,0.191c-1.032,-0.296 -1.853,-0.362 -1.823,-0.146c0.266,1.932 -0.279,2.958 -1.936,3.644c-1.018,0.422 -1.568,0.861 -1.222,0.977c0.439,0.146 0.452,0.848 0.042,2.333c-0.496,1.795 -0.425,2.242 0.458,2.888c0.949,0.693 0.887,0.764 -0.671,0.767c-0.944,0 -2.675,0.27 -3.848,0.595c-3.619,1.006 -6.972,1.099 -7.315,0.204c-0.176,-0.458 -1.096,-0.786 -2.142,-0.765c-1.623,0.032 -1.69,0.095 -0.581,0.543c0.689,0.278 1.412,0.763 1.607,1.077c0.484,0.784 -0.209,2.427 -1.026,2.433c-0.56,0.005 -2.395,2.972 -1.974,3.194c0.077,0.04 0.783,0.343 1.569,0.671c1.29,0.54 1.176,0.606 -1.167,0.679c-4.9,0.153 -9.23,0.81 -10.249,1.554c-0.716,0.524 -1.031,1.592 -1.06,3.595c-0.032,2.145 -0.314,3.009 -1.142,3.496c-1.599,0.939 -0.598,1.284 5.001,1.725c3.44,0.271 5.116,0.19 5.394,-0.26c0.498,-0.806 3.054,-0.862 3.539,-0.077c0.574,0.928 2.933,0.27 2.842,-0.792c-0.051,-0.605 0.373,-0.954 1.168,-0.96c0.686,-0.005 1.628,-0.249 2.093,-0.543c0.677,-0.428 0.531,-0.677 -0.73,-1.252c-0.866,-0.395 -1.574,-1.054 -1.574,-1.465c0,-0.571 1,-0.666 4.231,-0.402c2.327,0.19 4.385,0.58 4.573,0.866c0.188,0.286 1.107,0.726 2.042,0.978c1.114,0.3 1.711,0.845 1.728,1.58c0.014,0.618 0.382,1.837 0.815,2.71c0.915,1.843 0.103,3.373 -1.789,3.373c-0.602,0 -1.095,0.394 -1.095,0.876c0,0.481 0.262,0.875 0.583,0.875c0.985,0 0.647,3.265 -0.437,4.233c-0.562,0.501 -2.176,1.219 -3.587,1.594c-4.323,1.152 -7.294,3.659 -7.898,6.666l-0.341,1.696l-13.565,-0.346c-11.032,-0.281 -13.837,-0.193 -15.024,0.472c-0.913,0.512 -3.267,0.825 -6.288,0.838c-4.606,0.02 -4.855,0.088 -5.384,1.48c-0.305,0.802 -0.94,1.459 -1.41,1.459c-1.359,0 -1.781,1.275 -0.687,2.075c0.616,0.451 2.136,0.636 3.957,0.484c2.344,-0.196 3.112,-0.033 3.71,0.786c0.627,0.857 1.74,1.045 6.556,1.111c6.458,0.089 10.051,1.232 10.051,3.197c0,1.067 -0.84,1.39 -3.098,1.194c-0.58,-0.05 -0.903,0.154 -0.718,0.454c0.322,0.521 -0.703,0.718 -7.75,1.496c-1.707,0.188 -4.333,0.829 -5.836,1.423l-2.732,1.081l2.334,0.368c5.993,0.944 12.031,2.143 13.388,2.659c2.036,0.774 1.883,1.566 -0.274,1.416c-6.9,-0.477 -25.775,-0.862 -26.772,-0.546c-0.674,0.214 -1.508,0.918 -1.854,1.565c-0.503,0.939 -0.415,1.338 0.438,1.984c0.934,0.708 0.301,0.823 -5.06,0.92c-3.371,0.06 -6.522,0.049 -7.003,-0.026c-0.482,-0.075 -4.842,-0.148 -9.69,-0.162c-6.251,-0.019 -9.9,0.248 -12.548,0.915c-5.144,1.297 -9.628,3.068 -9.277,3.664c0.16,0.273 -0.375,0.574 -1.19,0.669c-0.814,0.095 -1.827,0.727 -2.25,1.404l-0.769,1.232l6.044,-0.392c3.324,-0.215 8.276,-0.912 11.004,-1.548c9.561,-2.229 11.679,-2.521 13.036,-1.801c1.321,0.7 8.623,0.648 8.192,-0.058c-0.451,-0.738 5.795,-0.772 12.913,-0.071c3.852,0.38 7.791,0.689 8.754,0.687c1.73,-0.004 1.723,-0.017 -0.584,-1.052c-1.283,-0.576 -2.571,-0.91 -2.862,-0.742c-0.29,0.168 -0.361,0.035 -0.157,-0.295c0.348,-0.562 2.117,-0.851 10.462,-1.709c3.832,-0.394 7.124,0.589 6.594,1.969c-0.177,0.461 -0.322,1.212 -0.322,1.667c0,0.455 -0.378,0.828 -0.841,0.828c-1.661,0 -1.535,1.207 0.287,2.74c1.848,1.555 1.85,1.563 0.53,2.052c-0.729,0.269 -2.808,0.446 -4.619,0.391c-1.811,-0.054 -4.275,0.226 -5.476,0.622c-1.851,0.611 -2.123,0.911 -1.795,1.98c0.213,0.693 0.436,1.32 0.496,1.393c0.06,0.073 1.903,0.387 4.097,0.698c2.194,0.31 4.266,0.842 4.605,1.18c0.782,0.783 0.346,0.823 -9.55,0.87c-7.068,0.034 -8.015,0.159 -9.098,1.205c-1.829,1.766 -2.187,3.21 -0.794,3.21c0.631,0 1.148,0.306 1.148,0.68c0,0.375 -0.159,0.522 -0.354,0.327c-0.365,-0.365 -1.201,0.206 -3.175,2.167c-0.635,0.63 -1.139,0.824 -1.139,0.437c0,-0.381 -0.279,-0.693 -0.618,-0.693c-0.34,0 -0.456,0.262 -0.258,0.583c0.199,0.321 0.084,0.584 -0.254,0.584c-0.372,0 -0.49,-0.785 -0.298,-1.991c0.189,-1.192 0.049,-2.157 -0.351,-2.403c-0.869,-0.537 -3.474,0.862 -3.474,1.866c0,0.427 -0.553,0.777 -1.23,0.777c-0.83,0 -1.124,0.273 -0.907,0.841c0.221,0.574 -0.327,1.055 -1.727,1.517c-2.146,0.708 -3.78,3.071 -2.801,4.05c0.297,0.297 3.363,0.722 6.812,0.945c3.45,0.223 6.273,0.584 6.273,0.802c0,0.218 0.786,0.282 1.747,0.141c0.961,-0.141 2.729,-0.073 3.93,0.153c2.03,0.381 2.098,0.457 0.965,1.087c-0.67,0.372 -1.104,1.005 -0.964,1.407c0.175,0.499 -0.436,0.729 -1.933,0.729c-4.441,0 -1.002,0.949 3.988,1.101c2.129,0.065 3.22,1.234 1.151,1.234c-0.571,0 -1.504,0.544 -2.074,1.21c-0.908,1.06 -1.487,1.17 -4.653,0.889c-1.989,-0.177 -6.702,-0.485 -10.474,-0.684c-5.984,-0.317 -6.857,-0.247 -6.857,0.549c0,1.881 -2.116,2.241 -6.117,1.041c-3.197,-0.959 -3.867,-1.007 -4.44,-0.317c-0.455,0.549 -1.963,0.813 -4.64,0.813c-5.587,0 -6.479,0.472 -3.452,1.828c1.34,0.599 3.042,1.09 3.782,1.09c0.741,0 1.434,0.227 1.542,0.504c0.235,0.608 6.322,1.249 6.322,0.665c0,-0.226 1.616,-0.459 3.59,-0.518c1.975,-0.06 3.76,-0.213 3.967,-0.341c0.208,-0.128 0.711,-0.027 1.118,0.225c0.437,0.27 -0.687,0.607 -2.739,0.822c-3.778,0.395 -6.665,1.437 -6.175,2.23c0.169,0.274 -0.117,0.498 -0.637,0.498c-0.519,0 -0.799,0.234 -0.623,0.52c0.177,0.286 -0.595,0.692 -1.716,0.902c-1.219,0.228 -2.038,0.723 -2.038,1.231c0,0.683 -1.077,0.849 -5.509,0.849c-3.085,0 -5.671,0.26 -5.875,0.59c-0.235,0.381 -3.191,0.458 -8.351,0.215l-7.986,-0.374l-6.419,2.47c-3.531,1.359 -8.857,3.276 -11.836,4.261c-7.458,2.465 -6.446,3.139 3.503,2.333c6.048,-0.489 17.756,-0.608 19.713,-0.2c0.16,0.033 -0.089,0.302 -0.555,0.596c-1.019,0.645 -6.183,1.075 -17.537,1.461c-13.393,0.456 -16.924,1 -16.924,2.609c0,1.203 -2.128,1.427 -19.771,2.085c-10.904,0.407 -22.111,1.312 -28.844,2.329c-3.146,0.475 -5.903,0.822 -6.128,0.771c-0.415,-0.094 -8.307,0.584 -11.496,0.989c-2.177,0.276 -21.887,0.448 -39.685,0.346c-7.383,-0.042 -14.08,0.048 -14.882,0.2c-7.707,1.461 -39.311,2.721 -46.688,1.863c-1.124,-0.131 -3.225,-0.393 -4.669,-0.583c-4.037,-0.531 -23.42,-1.211 -30.931,-1.085c-3.691,0.062 -8.454,0.399 -10.583,0.748c-7.395,1.214 -49.871,0.527 -56.328,-0.911c-1.74,-0.388 -10.825,1.134 -12.167,2.038c-0.321,0.216 -2.816,0.432 -5.545,0.48c-2.728,0.048 -6.445,0.247 -8.261,0.443c-2.995,0.323 -3.335,0.243 -3.686,-0.863c-0.471,-1.482 -2.735,-1.619 -5.234,-0.316c-1.789,0.933 -5.81,0.631 -13.611,-1.023c-2.416,-0.512 -3.377,-0.488 -4.503,0.115c-1.573,0.842 -1.43,1.547 0.485,2.392c0.863,0.381 -0.438,0.481 -4.175,0.322c-3.754,-0.159 -5.647,-0.012 -6.137,0.478c-0.576,0.577 -9.129,1.633 -12.654,1.563c-4.17,-0.083 -14.963,-1.358 -17.683,-2.089c-1.861,-0.5 -4.29,-0.909 -5.398,-0.909c-1.569,0 -5.752,1.682 -8.412,3.383c-0.148,0.095 0.067,0.711 0.479,1.37c1.018,1.631 0.583,1.875 -2.516,1.41c-1.735,-0.26 -2.653,-0.689 -2.653,-1.238c0,-0.585 -0.681,-0.839 -2.245,-0.839c-1.235,0 -3.053,-0.404 -4.041,-0.897c-1.934,-0.964 -6.98,-0.865 -7.638,0.151c-0.206,0.317 -1.557,0.727 -3.001,0.911c-1.444,0.184 -3.283,0.482 -4.085,0.664c-4.438,1.001 -8.438,0.462 -14.212,-1.914l-5.751,-2.367l-3.004,1.213c-1.652,0.666 -4.185,1.646 -5.63,2.176c-1.444,0.531 -2.889,1.121 -3.21,1.312c-0.321,0.192 -1.568,0.666 -2.772,1.054c-2.295,0.74 -2.906,1.719 -1.167,1.871c0.562,0.049 1.372,0.116 1.801,0.15c0.429,0.034 1.085,0.453 1.459,0.932c0.456,0.585 1.702,0.864 3.785,0.849c1.708,-0.013 3.217,0.156 3.352,0.376c1.13,1.828 -15.083,1.121 -26.321,-1.147c-4.803,-0.969 -10.603,-1.91 -12.888,-2.09c-5.214,-0.411 -10.275,-1.356 -10.697,-1.997c-1.315,-1.998 -8.007,-2.715 -9.841,-1.055c-0.659,0.596 -2.064,0.975 -3.616,0.975c-1.397,0 -3.346,0.242 -4.331,0.539c-3.446,1.036 -7.699,1.541 -9.699,1.152c-4.011,-0.782 -10.873,-1.062 -11.468,-0.467c-0.96,0.96 -3.771,-0.013 -3.401,-1.178c0.536,-1.688 -2.305,-2.244 -6.988,-1.367c-2.247,0.42 -4.173,1.02 -4.28,1.334c-0.107,0.314 -0.663,0.57 -1.235,0.57c-0.572,0 -1.689,0.512 -2.484,1.137c-1.272,1 -1.884,1.073 -5.125,0.615c-3.194,-0.451 -3.989,-0.363 -6.003,0.664c-2.447,1.249 -2.535,1.242 -7.145,-0.515c-4.947,-1.887 -6.528,-2.007 -9.523,-0.726c-1.498,0.641 -3.774,1.146 -5.058,1.122c-2.131,-0.039 -4.992,-0.06 -11.809,-0.084c-3.748,-0.014 -4.993,0.526 -6.417,2.778c-1.548,2.45 -1.228,2.696 3.656,2.812c1.754,0.042 3.19,0.273 3.19,0.514c0,0.241 -0.197,0.447 -0.438,0.46c-0.795,0.04 -5.073,0.586 -7.003,0.895c-1.104,0.176 -1.897,0.648 -1.897,1.129c0,1.283 -4.243,2.131 -10.135,2.025c-13.81,-0.249 -42.914,0.497 -45.015,1.152c-0.963,0.301 -3.327,0.725 -5.253,0.944c-1.925,0.218 -3.794,0.629 -4.151,0.913c-0.358,0.285 -2.49,0.581 -4.739,0.658l-4.089,0.14l1.383,1.285c0.761,0.707 1.383,1.517 1.383,1.799c0,1.28 -4.934,2.034 -15.078,2.305c-9.963,0.266 -10.683,0.358 -10.426,1.341c0.198,0.757 -0.159,1.184 -1.262,1.507c-2.286,0.672 -2.391,0.641 -3.177,-0.942c-0.652,-1.311 -1.127,-1.476 -4.688,-1.632c-3.745,-0.164 -4.122,-0.059 -6.891,1.931c-2.876,2.065 -5.637,2.561 -5.295,0.95c0.089,-0.421 -0.37,-0.905 -1.021,-1.075c-0.651,-0.171 -1.184,-0.542 -1.184,-0.825c0,-0.629 -4.698,-0.621 -10.213,0.016c-2.247,0.26 -4.348,0.27 -4.669,0.024c-0.782,-0.602 -10.994,0.064 -10.381,0.677c0.264,0.264 1.526,0.725 2.804,1.024c2.132,0.499 2.18,0.549 0.574,0.61c-4.041,0.154 -5.766,1.431 -2.903,2.15c1.882,0.472 2.978,2.304 1.677,2.803c-1.679,0.645 -3.735,0.377 -3.735,-0.486c0,-0.937 -2.006,-1.77 -2.913,-1.209c-1.22,0.754 -0.615,3.013 1.004,3.751c1.421,0.648 1.482,0.786 0.571,1.297c-0.562,0.314 -0.862,0.829 -0.667,1.144c0.67,1.083 -1.051,2.273 -3.286,2.273c-1.615,0 -2.47,0.344 -3.102,1.245c-0.742,1.059 -0.991,1.125 -1.671,0.438c-0.439,-0.444 -0.972,-1.267 -1.185,-1.829c-0.524,-1.385 -3.991,-1.571 -5.544,-0.297c-0.931,0.763 -8.67,0.182 -9.774,-0.735c-0.976,-0.81 -2.882,0.083 -3.788,1.775c-0.339,0.635 -1.002,1.154 -1.472,1.154c-0.47,0 -0.855,0.52 -0.855,1.156c0,0.747 -0.517,1.286 -1.459,1.522c-0.802,0.202 -1.459,0.706 -1.459,1.122c0,0.415 -0.827,1.043 -1.838,1.395c-2.157,0.752 -2.247,0.762 -2.247,0.249l-0.001,0Zm10.248,-9.803c0.816,-0.618 0.898,-0.862 0.291,-0.875c-1.289,-0.029 1.18,-1.729 2.544,-1.751c1.73,-0.029 0.889,-0.4 -1.858,-0.821c-2.448,-0.375 -2.488,-0.354 -2.366,1.248c0.068,0.897 -0.074,1.951 -0.317,2.343c-0.603,0.976 0.33,0.897 1.706,-0.144Zm12.95,0.489c0.723,-0.194 1.314,-0.673 1.314,-1.066c0,-0.856 -2.329,-1.993 -3.356,-1.639c-0.401,0.139 -0.73,0.53 -0.73,0.869c0,0.339 -0.459,0.965 -1.021,1.391c-0.922,0.7 -0.85,0.777 0.73,0.786c0.963,0.006 2.341,-0.147 3.063,-0.341Zm0.995,-4.258c0.205,-0.332 1.063,-0.332 2.219,0c1.037,0.297 1.946,0.541 2.02,0.541c0.588,0 1.913,-3.813 1.59,-4.576c-0.226,-0.533 -0.441,-2.085 -0.479,-3.449c-0.053,-1.922 -0.292,-2.48 -1.063,-2.48c-0.548,0 -1.651,-0.299 -2.453,-0.664c-2.105,-0.959 -5.822,0.797 -5.283,2.496c0.276,0.869 0.059,1.249 -0.849,1.487c-1.577,0.412 -1.546,1.012 0.094,1.812l1.313,0.64l-1.33,0.397c-1.029,0.307 -1.243,0.676 -0.948,1.637c0.209,0.682 0.413,1.268 0.454,1.3c1.564,1.276 4.165,1.749 4.715,0.859l0,0Zm-37.032,-8.156c2.012,-1.457 2.297,-3.128 0.489,-2.875c-0.843,0.118 -1.31,-0.082 -1.223,-0.525c0.175,-0.885 -3.159,-2.694 -3.612,-1.96c-0.18,0.29 -0.166,0.946 0.029,1.457c0.201,0.521 0.058,0.928 -0.324,0.928c-0.374,0 -0.518,0.262 -0.32,0.583c0.199,0.321 0.086,0.584 -0.25,0.584c-0.753,0 -0.553,2.459 0.25,3.07c0.809,0.614 3.216,0 4.961,-1.262l0,0Zm22.761,-5.018c1.439,-0.823 1.425,-0.834 -1.003,-0.855c-1.954,-0.016 -2.393,0.16 -2.127,0.855c0.415,1.081 1.239,1.081 3.13,0Zm-27.784,-2.966c0.662,-1.725 0.405,-2.56 -0.667,-2.165c-2.029,0.749 -2.629,3.088 -0.792,3.088c0.608,0 1.264,-0.415 1.459,-0.923Zm-3.731,-1.703c0,-0.481 -0.263,-0.875 -0.584,-0.875c-0.321,0 -0.583,0.394 -0.583,0.875c0,0.482 0.262,0.876 0.583,0.876c0.321,0 0.584,-0.394 0.584,-0.876Zm192.005,-5.485c5.03,-0.088 5.588,-0.327 6.167,-2.632c0.264,-1.054 0.209,-1.554 -0.148,-1.334c-0.313,0.194 -4.619,0.624 -9.568,0.956c-4.949,0.331 -9.392,0.694 -9.873,0.807c-0.482,0.113 -1.851,0.407 -3.044,0.652c-1.192,0.246 -2.463,0.803 -2.824,1.238c-0.548,0.66 0.628,0.758 7.128,0.59c4.282,-0.11 9.755,-0.235 12.162,-0.277Zm15.541,-0.022c0.041,-0.02 0.411,-0.849 0.823,-1.842c0.618,-1.492 0.61,-1.889 -0.048,-2.295c-0.437,-0.271 -1.068,-0.323 -1.401,-0.116c-0.334,0.206 -1.66,0.386 -2.946,0.399c-1.974,0.02 -2.368,0.229 -2.526,1.34c-0.112,0.787 0.18,1.456 0.726,1.666c0.502,0.192 0.758,0.601 0.569,0.907c-0.253,0.409 3.942,0.356 4.803,-0.06l0,0.001Zm-190.879,-7.314c1.48,-1.119 3.186,-1.113 4.801,0.019c1.677,1.174 5.01,0.897 5.263,-0.438c0.105,-0.554 -0.465,-1.411 -1.302,-1.96c-1.672,-1.095 -5.587,-1.669 -5.587,-0.819c0,0.305 -0.254,0.554 -0.565,0.554c-0.311,0 -0.41,-0.405 -0.22,-0.899c0.19,-0.495 0.116,-0.858 -0.164,-0.807c-2.374,0.434 -3.124,-1.58 -0.936,-2.511l1.594,-0.677l-1.523,-0.21c-1.586,-0.219 -3.272,-2.503 -2.623,-3.553c0.205,-0.332 1.545,-0.483 3.01,-0.339c2.736,0.268 5.152,-0.548 4.795,-1.619c-0.112,-0.338 -1.507,-0.687 -3.099,-0.776c-1.592,-0.089 -3.685,-0.341 -4.65,-0.559c-2.018,-0.456 -3.671,0.677 -5.008,3.434c-0.453,0.933 -1.218,1.877 -1.699,2.098c-0.481,0.22 -1.463,0.704 -2.181,1.075c-0.717,0.371 -2.031,0.676 -2.918,0.678c-0.887,0.002 -2.4,0.525 -3.363,1.163c-0.963,0.638 -1.454,1.161 -1.091,1.164c0.363,0.002 1.481,0.843 2.484,1.869c1.492,1.525 2.702,2.047 6.635,2.86c6.144,1.269 6.971,1.294 8.347,0.254l0,-0.001Zm283.421,-1.943c0.363,-0.364 -0.022,-1.108 -1.083,-2.092c-1.798,-1.667 -2.28,-1.828 -2.826,-0.944c-0.199,0.321 -1.512,0.584 -2.918,0.584c-3.121,0 -3.885,0.959 -1.99,2.496c1.161,0.941 2.003,1.086 4.829,0.83c1.883,-0.17 3.677,-0.564 3.988,-0.874Zm3.969,-1.212c0,-0.281 0.854,-0.687 1.897,-0.903c1.808,-0.374 1.844,-0.432 0.764,-1.24c-1.731,-1.295 -3.407,-1.114 -2.953,0.319c0.259,0.815 0.105,1.167 -0.509,1.167c-0.485,0 -1.043,0.263 -1.241,0.584c-0.199,0.321 0.18,0.584 0.841,0.584c0.66,0 1.201,-0.23 1.201,-0.511Zm88.275,-0.444c0.886,-0.169 1.479,-0.52 1.319,-0.78c-0.161,-0.259 0.625,-0.644 1.745,-0.854c1.121,-0.21 2.038,-0.602 2.038,-0.871c0,-0.958 -2.618,-1.158 -3.926,-0.3c-0.73,0.478 -1.327,0.738 -1.327,0.578c0,-0.16 -0.722,-0.024 -1.605,0.302l-1.604,0.593l1.604,-1.405c0.883,-0.773 1.605,-1.638 1.605,-1.924c0,-0.666 -2.858,-1.928 -4.377,-1.933c-0.642,-0.002 -1.982,-0.166 -2.977,-0.366c-1.316,-0.264 -2.62,0.047 -4.774,1.139c-3.713,1.881 -3.978,2.319 -2.004,3.314c0.872,0.44 2.026,1.237 2.566,1.771c0.784,0.777 1.486,0.876 3.501,0.497c1.387,-0.261 2.981,-0.652 3.542,-0.87c0.596,-0.231 1.022,-0.127 1.022,0.25c0,0.356 -0.394,0.646 -0.876,0.646c-0.481,0 -0.875,0.284 -0.875,0.63c0,0.398 0.699,0.494 1.897,0.26c1.043,-0.203 2.621,-0.508 3.506,-0.677Zm-366.07,-1.088c0.861,-0.492 1.1,-0.839 0.584,-0.847c-1.502,-0.022 -3.502,0.668 -3.502,1.207c0,0.75 1.245,0.596 2.918,-0.36Zm319.073,-0.542c2.748,-0.553 8.312,-2.991 8.32,-3.647c0.011,-0.909 -6.327,-3.258 -7.952,-2.948c-0.885,0.17 -1.179,0.005 -0.97,-0.541c0.535,-1.393 -1.972,-1.203 -5.507,0.417c-1.361,0.623 -2.74,1.133 -3.064,1.133c-0.325,0 -0.59,0.263 -0.59,0.584c0,0.321 -0.657,0.583 -1.459,0.583c-0.803,0 -1.459,0.263 -1.459,0.584c0,0.321 0.262,0.584 0.583,0.584c0.321,0 0.584,0.262 0.584,0.583c0,0.321 -0.772,0.584 -1.716,0.584c-1.777,0 -2.816,0.822 -1.819,1.438c0.313,0.194 2.435,0.448 4.716,0.564c2.281,0.117 4.327,0.394 4.547,0.615c0.362,0.363 2.144,0.199 5.786,-0.533Zm9.788,-2.084c0.198,-0.321 -0.034,-0.584 -0.515,-0.584c-0.482,0 -1.038,0.263 -1.236,0.584c-0.199,0.321 0.033,0.583 0.514,0.583c0.482,0 1.038,-0.262 1.237,-0.583Zm-22.413,-3.116c1.796,-0.854 3.462,-1.553 3.701,-1.553c0.24,0 1.103,-0.525 1.92,-1.167l1.483,-1.167l-2.85,-0.121c-1.568,-0.066 -4.033,-0.169 -5.477,-0.229c-1.445,-0.06 -4.15,-0.531 -6.011,-1.047c-5.681,-1.574 -7.827,-0.945 -7.747,2.272c0.036,1.478 -0.161,1.729 -1.27,1.612c-0.722,-0.077 -1.313,0.12 -1.313,0.437c0,0.318 0.591,0.585 1.313,0.594c0.722,0.009 2.757,0.53 4.523,1.157c4.072,1.448 7.509,1.217 11.728,-0.788Zm27.373,1.365c0.682,-0.441 0.521,-0.568 -0.729,-0.575c-0.883,-0.005 -1.605,0.254 -1.605,0.575c0,0.738 1.192,0.738 2.334,0Zm84.83,-0.558c0.387,-0.387 0.231,-0.969 -0.465,-1.739c-0.576,-0.636 -1.227,-2.021 -1.447,-3.077c-0.347,-1.67 -0.624,-1.912 -2.119,-1.854c-2.428,0.094 -8.61,1.407 -9.307,1.976c-0.321,0.263 -1.934,0.209 -3.583,-0.118c-2.691,-0.534 -3.122,-0.473 -4.183,0.588c-1.395,1.395 -1.106,1.864 1.151,1.864c1.081,0 1.654,-0.303 1.654,-0.875c0,-0.482 0.394,-0.876 0.875,-0.876c0.5,0 0.876,0.525 0.876,1.222c0,1.136 0.215,1.194 3.064,0.821c2.746,-0.36 2.949,-0.315 1.954,0.439c-1.222,0.926 -0.874,1.339 1.885,2.236c1.921,0.625 8.849,0.189 9.645,-0.607Zm-419.235,-1.286c0,-0.653 -0.755,-0.618 -2.714,0.127c-1.224,0.465 -1.426,0.739 -0.821,1.112c0.859,0.531 3.535,-0.408 3.535,-1.239Zm384.76,0.315c3.763,-1.89 3.788,-1.914 2.736,-2.579c-0.628,-0.397 -0.309,-0.552 1.184,-0.576c1.124,-0.019 2.916,-0.499 3.984,-1.068c2.707,-1.444 1.411,-2.299 -3.254,-2.147c-2.006,0.066 -3.648,0.057 -3.648,-0.019c0,-0.076 0.854,-0.713 1.897,-1.417c1.043,-0.703 1.371,-1.112 0.729,-0.908c-3.001,0.952 -11.895,4.664 -12.85,5.363c-1.591,1.163 -0.513,1.729 1.638,0.86c7.2,-2.909 7.419,-2.962 7.419,-1.814c0,0.587 0.328,1.2 0.73,1.362c0.401,0.162 -0.069,0.315 -1.044,0.341c-2.211,0.057 -8.046,2.073 -8.312,2.871c-0.186,0.558 1.379,0.973 4.414,1.173c0.733,0.048 2.703,-0.601 4.377,-1.442l0,0Zm48.414,-1.561c1.843,-0.768 3.178,-1.568 2.967,-1.779c-0.211,-0.211 -1.6,-0.383 -3.087,-0.383c-1.488,0 -2.954,-0.25 -3.259,-0.554c-0.305,-0.305 -1.612,-0.723 -2.904,-0.929c-1.85,-0.296 -2.652,-0.13 -3.774,0.778c-1.155,0.935 -1.291,1.316 -0.72,2.005c0.388,0.467 0.533,1.022 0.322,1.234c-0.211,0.211 0.069,0.384 0.623,0.384c0.613,0 0.844,0.263 0.59,0.674c-0.681,1.103 5.433,0.156 9.242,-1.43Zm-7.882,0.1c0.396,-0.399 0.866,-0.579 1.046,-0.399c0.18,0.18 -0.144,0.506 -0.72,0.725c-0.831,0.317 -0.898,0.25 -0.326,-0.326Zm46.636,-2.726c1.237,-0.656 3.104,-1.541 4.147,-1.966c2.565,-1.046 2.399,-1.862 -0.292,-1.439c-4.83,0.76 -6.994,0.978 -11.494,1.156c-2.806,0.111 -5.406,0.556 -6.451,1.104l-1.75,0.918l2.183,0.409c1.201,0.226 2.58,0.258 3.063,0.072c0.559,-0.214 0.88,0.004 0.88,0.6c0,0.793 0.571,0.891 3.732,0.637c2.1,-0.168 4.715,-0.82 5.982,-1.491l0,0Zm126.266,-0.073c10.874,-0.806 50.739,-1.335 59.077,-0.784c4.622,0.306 8.886,0.211 13.131,-0.291c3.458,-0.409 7.993,-0.772 10.08,-0.806c7.206,-0.12 18.975,-1.202 21.301,-1.959c3.08,-1.002 11.806,-1.656 20.138,-1.509c3.693,0.065 8.026,-0.184 9.629,-0.553c4.045,-0.932 11.961,-1.345 11.961,-0.625c0,0.317 0.46,0.489 1.021,0.382c0.562,-0.108 2.773,-0.363 4.913,-0.567c7.22,-0.689 23.305,-3.231 24.301,-3.84c0.705,-0.431 -0.684,-0.521 -4.848,-0.315c-3.21,0.158 -11.351,0.444 -18.092,0.634c-11.406,0.322 -15.326,0.605 -28.305,2.044c-13.821,1.532 -17.213,1.612 -46.104,1.093c-14.969,-0.269 -23.48,0.265 -24.767,1.552c-1.372,1.372 -32.815,1.666 -46.433,0.433c-18.023,-1.631 -42.019,-1.042 -42.019,1.032c0,0.292 -0.723,0.566 -1.605,0.61c-1.284,0.064 -1.354,0.128 -0.352,0.325c0.69,0.134 1.377,0.716 1.528,1.292c0.335,1.28 2.742,1.702 12.392,2.172c3.852,0.188 7.063,0.394 7.135,0.459c0.221,0.198 7.635,-0.165 15.918,-0.779Zm-598.668,-0.446c-0.421,-0.168 -0.924,-0.147 -1.118,0.046c-0.194,0.194 0.15,0.332 0.766,0.307c0.68,-0.028 0.818,-0.166 0.352,-0.353l0,0Zm553.085,-0.512c0.141,-0.141 -0.722,-0.256 -1.918,-0.256c-1.196,0 -2.023,0.244 -1.839,0.543c0.313,0.506 3.184,0.286 3.757,-0.287Zm-47.936,-0.402c-0.284,-0.866 -3.943,-1.352 -3.943,-0.523c0,0.706 1.029,1.146 2.821,1.206c0.842,0.029 1.27,-0.232 1.122,-0.683Zm41.419,0.304c-1.211,-0.127 -3.049,-0.125 -4.085,0.005c-1.036,0.128 -0.046,0.232 2.201,0.229c2.247,-0.003 3.095,-0.108 1.884,-0.234l0,0Zm-557.182,-1.519c0.615,-0.26 0.543,-0.329 -0.243,-0.234c-0.616,0.075 -1.227,0.53 -1.358,1.011c-0.153,0.563 -0.067,0.647 0.243,0.234c0.266,-0.353 0.877,-0.808 1.358,-1.011Zm536.826,0.465c7.367,-0.169 9.707,-1.039 4.454,-1.657c-3.568,-0.419 -9.32,-1.953 -14.089,-3.756c-2.255,-0.853 -3.619,-1.029 -5.422,-0.7c-2.927,0.536 -3.331,0.881 -2.374,2.034c0.608,0.733 0.577,0.89 -0.174,0.89c-0.502,0 -1.075,-0.263 -1.273,-0.584c-0.527,-0.852 -3.977,-0.713 -5.24,0.211c-0.986,0.72 -0.822,0.834 1.769,1.222c1.933,0.29 3.299,0.906 4.226,1.906c1.334,1.44 1.498,1.467 6.435,1.032c2.786,-0.246 8.046,-0.515 11.688,-0.598Zm-72.861,-0.837c0,-0.311 -0.394,-0.414 -0.876,-0.229c-0.481,0.185 -0.875,0.439 -0.875,0.565c0,0.126 0.394,0.23 0.875,0.23c0.482,0 0.876,-0.255 0.876,-0.566Zm43.583,-0.135c1.066,-0.386 1.938,-0.891 1.938,-1.123c0,-0.232 -3.433,-0.426 -7.629,-0.43c-6.464,-0.007 -7.525,0.115 -6.952,0.806c0.429,0.517 2.202,0.888 4.856,1.015c2.299,0.111 4.556,0.253 5.014,0.317c0.459,0.063 1.707,-0.2 2.773,-0.585Zm-218.518,-2.02c-0.402,-0.162 -1.058,-0.162 -1.459,0c-0.402,0.162 -0.073,0.294 0.729,0.294c0.802,0 1.131,-0.132 0.73,-0.294Zm106.653,-4.376c0,-0.668 -1.009,-0.616 -2.389,0.123c-1.655,0.885 -0.79,1.815 0.951,1.022c0.791,-0.36 1.438,-0.876 1.438,-1.145Zm53.248,-1.216c1.891,-0.665 1.894,-0.672 0.444,-1.064c-1.386,-0.376 -5.174,-0.196 -8.025,0.38c-0.722,0.145 -1.313,0.688 -1.313,1.205c0,0.803 0.507,0.882 3.496,0.544c1.922,-0.218 4.352,-0.697 5.398,-1.065Zm41.004,-5.11c0.198,-0.321 -0.18,-0.584 -0.841,-0.584c-0.661,0 -1.202,0.263 -1.202,0.584c0,0.321 0.379,0.583 0.841,0.583c0.463,0 1.004,-0.262 1.202,-0.583Zm276.336,-4.117c18.751,-1.443 21.038,-2.531 4.375,-2.083c-15.204,0.409 -20.716,0.966 -20.716,2.092c0,0.606 4.046,1.082 6.712,0.789c0.963,-0.106 5.296,-0.465 9.629,-0.798Zm106.325,-7.37c-0.421,-0.169 -0.924,-0.148 -1.118,0.046c-0.194,0.194 0.15,0.332 0.766,0.306c0.68,-0.028 0.818,-0.166 0.352,-0.352l0,0Zm-405.514,-17.217c2.737,-1.403 2.13,-2.019 -1.108,-1.125c-1.18,0.326 -2.837,0.457 -3.682,0.292c-0.91,-0.177 -2.014,0.068 -2.704,0.601c-1.012,0.78 -1.051,0.983 -0.292,1.516c1.184,0.832 4.831,0.231 7.786,-1.284Zm5.783,1.244c1.203,-0.335 2.188,-0.858 2.188,-1.164c0,-1.182 -6.266,-0.165 -7.849,1.274c-0.775,0.705 2.991,0.631 5.661,-0.11Zm169.301,-1.643c1.023,-0.403 1.026,-0.467 0.057,-1.272c-1.519,-1.262 -17.768,-1.624 -17.768,-0.395c0,1.134 3.187,1.616 8.082,1.223c2.838,-0.228 3.647,-0.145 3.007,0.31c-0.662,0.47 -0.091,0.615 2.334,0.59c1.766,-0.017 3.695,-0.223 4.288,-0.456l0,0Zm-158.319,-2.186c2.202,-0.654 4.558,-0.862 7.714,-0.679c4.764,0.275 4.97,-0.006 1.356,-1.848c-1.9,-0.969 -2.685,-1.045 -5.8,-0.557c-1.981,0.31 -4.39,0.796 -5.353,1.078c-0.962,0.283 -2.742,0.681 -3.955,0.885c-2.395,0.403 -2.507,1.477 -0.127,1.216c0.801,-0.088 1.456,0.066 1.456,0.343c0,0.73 1.131,0.625 4.709,-0.438Zm199.078,-2.375c-0.421,-0.169 -0.924,-0.148 -1.118,0.046c-0.194,0.194 0.15,0.332 0.766,0.306c0.68,-0.028 0.818,-0.166 0.352,-0.352l0,0Zm4.56,-0.309c0,-0.253 -0.672,-0.46 -1.494,-0.46c-0.821,0 -1.341,0.246 -1.156,0.547c0.402,0.649 2.65,0.575 2.65,-0.087l0,0Zm-695.926,-1.402c-0.264,-2.411 -2.124,-3.206 -4.107,-1.756c-1.034,0.756 -0.961,0.877 1.201,2.017c2.97,1.566 3.106,1.554 2.906,-0.261Zm711.935,0.866c8.334,-1.04 8.056,-1.772 -0.544,-1.433c-7.7,0.303 -8.906,0.44 -12.547,1.422c-3.102,0.837 6.407,0.844 13.091,0.011Zm68.577,-3.77c0.842,-0.886 0.644,-0.932 -2.59,-0.611c-1.926,0.191 -5.531,0.519 -8.01,0.73c-2.8,0.239 -4.371,0.607 -4.145,0.973c0.233,0.376 2.804,0.458 7.099,0.228c5.146,-0.276 6.949,-0.587 7.646,-1.32Zm6.164,-0.823c-0.198,-0.321 -0.871,-0.583 -1.494,-0.583c-0.623,0 -1.132,0.262 -1.132,0.583c0,0.321 0.672,0.584 1.493,0.584c0.847,0 1.337,-0.253 1.133,-0.584Zm-273.864,-2.409c-0.759,-0.723 -7.141,-1.281 -7.141,-0.625c0,0.332 0.328,0.731 0.729,0.889c1.12,0.438 6.9,0.201 6.412,-0.264Zm65.226,-0.527c0,-1.015 -1.633,-1.302 -4.53,-0.798l-2.765,0.482l3.21,0.364c1.765,0.2 3.406,0.407 3.647,0.459c0.241,0.052 0.438,-0.176 0.438,-0.507Zm-152.337,-0.543c1.036,-0.655 0.717,-0.795 -3.957,-1.736c-2.476,-0.498 -3.412,-0.456 -4.668,0.209c-1.17,0.618 -1.348,0.91 -0.696,1.139c2.616,0.922 8.116,1.15 9.321,0.388Zm389.426,-0.653c5.354,-0.727 6.771,-1.325 4.868,-2.055c-0.451,-0.174 -3.789,0.097 -7.417,0.601c-3.628,0.505 -7.822,0.918 -9.32,0.918c-1.791,0 -2.991,0.321 -3.503,0.938c-0.708,0.853 -0.305,0.912 4.451,0.654c2.877,-0.155 7.791,-0.631 10.921,-1.056Zm41.289,0.093c0,-0.988 -0.371,-1.102 -3.1,-0.95c-6.801,0.378 -7.244,2.046 -0.547,2.062c3.212,0.008 3.647,-0.124 3.647,-1.112Zm7.708,0.387c-1.403,-0.45 -2.104,-0.434 -2.597,0.059c-0.511,0.511 -0.044,0.661 1.922,0.616l2.597,-0.06l-1.922,-0.615Zm-346.982,-0.75c0.481,-1.255 0.006,-1.553 -1.773,-1.107c-1.754,0.44 -1.999,1.215 -0.506,1.605c1.761,0.461 1.924,0.425 2.279,-0.498Zm114.171,-0.078c0.264,-0.163 2.927,-0.271 5.919,-0.24c4.259,0.045 5.601,-0.14 6.191,-0.85c0.679,-0.818 -0.283,-0.872 -9.701,-0.543c-6.868,0.24 -11.219,0.654 -12.682,1.207c-1.225,0.464 -2.429,0.718 -2.676,0.565c-0.247,-0.153 -1.215,-0.046 -2.15,0.238c-1.075,0.326 1.304,0.406 6.459,0.218c4.488,-0.164 8.376,-0.432 8.64,-0.595Zm-62.613,-0.544c0,-0.125 -0.919,-0.228 -2.043,-0.228c-1.123,0 -2.042,0.21 -2.042,0.466c0,0.257 0.919,0.359 2.042,0.228c1.124,-0.131 2.043,-0.341 2.043,-0.466Zm106.07,-0.073c-1.525,-0.121 -4.02,-0.121 -5.544,0c-1.525,0.12 -0.277,0.218 2.772,0.218c3.049,0 4.297,-0.098 2.772,-0.218Zm-64.371,-0.705c-0.305,-0.302 -2.459,-0.681 -4.786,-0.841c-3.431,-0.236 -4.231,-0.132 -4.231,0.55c0,0.664 1.007,0.841 4.785,0.841c2.997,0 4.579,-0.206 4.232,-0.55Zm-175.476,-0.523c0.57,-0.362 0.477,-0.712 -0.396,-1.503c-1.207,-1.092 -2.195,-0.977 -5.763,0.673c-1.722,0.797 -2.016,0.793 -2.931,-0.035c-0.674,-0.61 -1.304,-0.744 -1.863,-0.398c-0.737,0.455 -0.735,0.558 0.013,0.799c0.473,0.153 1.253,0.409 1.735,0.569c1.444,0.482 8.406,0.402 9.205,-0.105l0,0Zm148.367,-0.094c0,-0.321 -0.541,-0.584 -1.201,-0.584c-0.661,0 -1.04,0.263 -0.841,0.584c0.198,0.321 0.739,0.583 1.201,0.583c0.463,0 0.841,-0.262 0.841,-0.583Zm116.586,-0.838c0.606,-0.606 -4.814,-0.32 -5.701,0.301c-0.64,0.448 -0.035,0.534 2.248,0.321c1.718,-0.161 3.272,-0.441 3.453,-0.622Zm-132.927,-1.022c2.087,-0.32 4.188,-0.669 4.669,-0.776c0.482,-0.106 1.007,-0.217 1.167,-0.247c0.161,-0.029 -0.062,-0.278 -0.496,-0.552c-1.309,-0.83 -10.95,-0.801 -12.292,0.037l-1.192,0.744l1.207,0.646c1.557,0.834 2.357,0.851 6.937,0.148l0,0Zm-60.986,-2.196c3.311,-1.583 3.406,-1.686 1.751,-1.877c-0.963,-0.111 -2.67,0.12 -3.794,0.514c-1.123,0.394 -3.167,0.998 -4.54,1.344c-1.374,0.345 -2.344,0.878 -2.154,1.184c0.687,1.112 5.245,0.504 8.737,-1.165Zm-514.449,-2.652c0.594,-0.716 0.485,-1.066 -0.609,-1.952c-1.303,-1.055 -3.398,-1.161 -6.913,-0.352l-1.397,0.322l1.333,0.934c1.286,0.901 3.941,1.736 5.912,1.86c0.523,0.033 1.276,-0.333 1.674,-0.812Zm40.003,-6.093c-0.211,-0.342 -1.091,-0.592 -1.955,-0.554c-1.21,0.052 -1.303,0.132 -0.403,0.348c0.642,0.154 1.412,0.514 1.712,0.798c0.691,0.657 1.155,0.232 0.646,-0.592Zm816.586,0.107c0.171,-0.519 -0.614,-0.729 -2.726,-0.729c-2.781,0 -3.531,0.408 -2.55,1.389c0.676,0.677 5.015,0.134 5.276,-0.66Zm-802.311,-6.062c0,-1.3 -3.443,-4.736 -4.384,-4.375c-0.4,0.154 -1,0.005 -1.334,-0.328c-0.79,-0.79 -5.577,-0.724 -5.846,0.08c-0.113,0.34 -0.578,0.618 -1.032,0.618c-1.104,0 -1.05,2.035 0.099,3.789c0.885,1.351 1.182,1.409 6.711,1.313c5.027,-0.088 5.786,-0.231 5.786,-1.097l0,0Zm475.903,-15.637c0.467,-0.754 -1.994,-2.374 -3.606,-2.374c-1.5,0 -1.579,0.194 -0.725,1.789c0.634,1.185 3.704,1.6 4.331,0.585Zm70.641,-1.499c0,-0.321 -0.722,-0.667 -1.605,-0.768c-1.171,-0.135 -1.605,0.073 -1.605,0.768c0,0.695 0.434,0.903 1.605,0.768c0.883,-0.101 1.605,-0.447 1.605,-0.768Zm-56.649,-1.395c0.523,-0.846 -2.568,-2.515 -4.658,-2.515c-1.064,0 -2.918,0.324 -4.119,0.721c-2.033,0.671 -2.109,0.776 -1.095,1.517c1.228,0.899 9.347,1.126 9.872,0.277Zm333.131,-12.389c-1.181,-0.341 -2.612,-0.341 -3.793,0c-1.661,0.48 -1.425,0.548 1.896,0.548c3.322,0 3.558,-0.068 1.897,-0.548Zm27.867,-2.265c0,-0.321 -0.51,-0.584 -1.133,-0.584c-0.623,0 -1.295,0.263 -1.493,0.584c-0.205,0.331 0.286,0.584 1.133,0.584c0.821,0 1.493,-0.263 1.493,-0.584Zm-403.999,-19.043c2.076,-0.556 1.574,-1.581 -0.566,-1.153c-2.241,0.448 -3.583,1.525 -1.885,1.513c0.626,-0.005 1.729,-0.167 2.451,-0.36Zm-92.647,-1.383c0,-0.321 -0.394,-0.584 -0.876,-0.584l-1.313,0c-0.24,0 -0.525,0.263 -0.632,0.584c-0.107,0.321 0.484,0.584 1.313,0.584c0.829,0 1.508,-0.263 1.508,-0.584Zm519.335,-1.368c1.266,-1.023 4.74,-1.035 4.74,-0.017c0,0.984 2.97,0.643 6.336,-0.728c1.077,-0.438 2.194,-0.652 2.48,-0.475c0.287,0.177 0.522,0.045 0.522,-0.296c0,-0.339 0.394,-0.618 0.876,-0.618c0.486,0 0.875,-0.518 0.875,-1.167c0,-1.323 0.098,-1.313 -13.569,-1.405c-8.237,-0.055 -9.113,0.214 -6.894,2.114c0.805,0.689 1.213,0.769 1.413,0.276c0.156,-0.381 0.303,-0.233 0.329,0.328c0.025,0.562 -0.348,1.022 -0.83,1.022c-0.497,0 -0.875,0.524 -0.875,1.213c0,1.064 0.235,1.164 1.897,0.808c1.043,-0.223 2.258,-0.698 2.7,-1.055l0,0Zm-319.312,-1.916c1.708,-0.458 1.107,-1.383 -0.903,-1.391c-0.864,-0.005 -2.884,-0.416 -4.489,-0.917c-7.482,-2.334 -21.084,-0.946 -14.211,1.45c2.343,0.816 6.631,0.821 9.255,0.01c2.83,-0.875 5.887,-0.732 6.944,0.325c0.974,0.974 1.449,1.047 3.404,0.523l0,0Zm63.58,-0.286c-1.45,-0.844 -19.567,-1.453 -18.782,-0.632c0.841,0.879 3.087,1.1 11.964,1.179c5.788,0.051 7.597,-0.094 6.818,-0.547Zm-120.626,-0.453c0.799,-0.222 1.193,-0.555 0.875,-0.74c-0.318,-0.185 -1.628,-0.005 -2.912,0.401c-1.757,0.556 -1.974,0.739 -0.875,0.741c0.802,0 2.112,-0.179 2.912,-0.402Zm-472.72,-1.23c0.265,0 0.344,-0.525 0.176,-1.167c-0.224,-0.857 -0.016,-1.17 0.784,-1.18c0.599,-0.007 1.746,-0.527 2.549,-1.154c0.802,-0.628 1.787,-1.147 2.188,-1.154c0.401,-0.007 0.73,-0.232 0.73,-0.498c0,-0.267 0.656,-0.837 1.459,-1.266c0.802,-0.43 1.459,-1.105 1.459,-1.501c0,-0.865 3.03,-2.001 5.339,-2.001c1.243,0 1.664,-0.279 1.664,-1.105c0,-1.414 -1.633,-2.053 -2.795,-1.093c-0.715,0.589 -0.946,0.591 -1.142,0.01c-0.135,-0.402 -0.88,-0.73 -1.656,-0.73c-0.776,0 -1.441,0.328 -1.478,0.73c-0.037,0.401 -0.128,0.992 -0.203,1.313c-0.074,0.321 -0.175,0.977 -0.224,1.459c-0.067,0.657 -0.992,0.91 -3.716,1.016c-2.873,0.111 -3.897,0.414 -4.933,1.459c-0.718,0.725 -1.713,1.657 -2.209,2.071c-1.281,1.067 -1.118,2.415 0.358,2.961c1.079,0.399 1.121,0.52 0.292,0.838c-0.533,0.205 -0.969,0.671 -0.969,1.036c0,0.367 0.414,0.506 0.923,0.311c0.507,-0.195 1.139,-0.355 1.404,-0.355Zm837.138,0.23c2.557,-0.981 0.054,-1.397 -8.414,-1.397c-6.149,0 -9.338,0.21 -9.338,0.615c0,0.379 1.45,0.567 3.798,0.491c2.09,-0.068 3.972,0.05 4.183,0.261c0.483,0.483 8.527,0.507 9.771,0.03l0,0Zm-416.353,-1.284c0,-0.26 -1.031,-0.926 -2.29,-1.482c-1.26,-0.556 -3.558,-2.179 -5.107,-3.608c-2.965,-2.734 -3.65,-2.985 -5.482,-2.005c-1.107,0.593 -1.104,0.641 0.148,2.335c1.088,1.471 1.67,1.729 3.906,1.729c2.416,0 2.537,0.067 1.495,0.832c-1.1,0.808 -1.091,0.847 0.327,1.375c0.802,0.299 1.853,0.692 2.334,0.873c1.359,0.512 4.669,0.477 4.669,-0.049l0,0Zm138.897,-1.272c1.347,-0.083 1.369,-0.129 0.292,-0.592c-1.617,-0.695 -18.475,-0.695 -19.55,0c-0.628,0.406 0.033,0.583 2.334,0.626c1.765,0.033 4.523,0.235 6.128,0.449c1.605,0.213 4.362,0.212 6.128,0c1.765,-0.215 3.866,-0.431 4.668,-0.481l0,-0.002Zm63.176,0.773c-0.402,-0.162 -1.058,-0.162 -1.459,0c-0.402,0.162 -0.073,0.294 0.729,0.294c0.802,0 1.131,-0.132 0.73,-0.294Zm26.804,0.018c2.014,-0.333 2.113,-0.447 1.589,-1.825c-0.308,-0.809 -0.486,-1.527 -0.397,-1.595c1.341,-1.031 3.367,-1.256 9.419,-1.043c3.896,0.136 7.45,0.366 7.897,0.511c1.336,0.431 0.19,1.037 -2.734,1.446c-1.511,0.211 4.818,0.419 14.065,0.462c11.121,0.051 16.691,-0.121 16.451,-0.508c-0.199,-0.322 -0.964,-0.434 -1.701,-0.25c-0.82,0.206 -2.081,-0.114 -3.25,-0.825c-1.051,-0.639 -2.244,-1.034 -2.651,-0.878c-0.407,0.156 -0.939,-0.038 -1.182,-0.431c-0.33,-0.534 0.059,-0.62 1.546,-0.341c1.472,0.276 1.731,0.221 0.997,-0.213c-0.556,-0.328 -2.078,-0.411 -3.466,-0.189c-2.113,0.338 -2.289,0.465 -1.198,0.868c0.702,0.26 1.257,0.809 1.231,1.221c-0.036,0.586 -0.11,0.59 -0.34,0.019c-0.162,-0.401 -0.776,-0.73 -1.364,-0.73c-0.589,0 -1.169,-0.294 -1.289,-0.654c-0.127,-0.381 -2.039,-0.738 -4.571,-0.853c-2.395,-0.109 -6.192,-0.321 -8.439,-0.471c-15.146,-1.009 -23.381,-1.067 -25.498,-0.18c-1.939,0.813 -2.228,0.813 -2.899,0.005c-0.63,-0.759 -1.793,-0.836 -7.476,-0.498c-10.134,0.603 -29.191,0.46 -37.02,-0.277c-7.709,-0.726 -10.41,-0.459 -9.048,0.895c0.533,0.531 2.741,0.923 6.304,1.121c3.015,0.167 5.588,0.41 5.717,0.539c0.129,0.129 -0.697,0.409 -1.836,0.622c-2.018,0.379 -2.802,1.205 -1.34,1.412c6.141,0.87 8.938,1.064 12.11,0.841c2.086,-0.147 5.238,-0.275 7.003,-0.285c7.677,-0.044 8.747,0.097 9.765,1.286c0.929,1.085 1.717,1.167 11.228,1.161c5.627,-0.005 11.196,-0.167 12.377,-0.362l0,-0.001Zm-195.863,-1.448c0.616,-0.998 -1.008,-1.724 -2.959,-1.324c-2.243,0.461 -2.724,0.758 -2.309,1.43c0.473,0.765 4.783,0.678 5.268,-0.106Zm-15.98,-1.598c2.096,0.125 8.738,-1.262 10.379,-2.167c1.33,-0.734 0.987,-0.786 -3.485,-0.527c-2.729,0.159 -5.749,0.523 -6.712,0.811c-0.963,0.288 -2.473,0.683 -3.356,0.879c-1.099,0.243 -1.604,0.724 -1.604,1.526c0,1.108 0.092,1.123 1.714,0.284c0.944,-0.487 2.322,-0.85 3.064,-0.806Zm35.952,-0.277c2.57,-1.057 3.05,-1.481 2.862,-2.534c-0.204,-1.147 -0.085,-1.208 1.289,-0.656c1.821,0.731 6.456,0.621 7.416,-0.176c0.378,-0.314 0.912,-0.509 1.187,-0.435c1.231,0.336 3.125,-0.84 3.125,-1.94c0,-1.09 -0.238,-1.15 -3.064,-0.763c-1.685,0.23 -3.72,0.691 -4.523,1.024c-0.802,0.333 -1.721,0.541 -2.042,0.462c-0.321,-0.079 -2.291,-0.28 -4.377,-0.447c-2.087,-0.167 -4.043,-0.539 -4.348,-0.826c-0.933,-0.879 -3.408,-0.638 -3.049,0.298c0.466,1.214 -1.714,3.012 -2.68,2.211c-1.349,-1.12 -9.21,-1.028 -12.684,0.148l-2.626,0.888l2.334,-0.285c1.284,-0.157 3.167,-0.442 4.184,-0.634c1.53,-0.289 2.083,-0.074 3.21,1.249c1.795,2.109 6.529,4.197 8.864,3.91c1.009,-0.123 3.224,-0.796 4.922,-1.494Zm28.84,1.295c-1.044,-0.916 -4.7,-1.689 -7.99,-1.689c-3.863,0 -4.731,0.342 -3.778,1.49c0.412,0.496 2.415,0.697 6.391,0.642c3.185,-0.044 5.604,-0.243 5.377,-0.443Zm236.238,0.03c1.444,-0.207 2.232,-0.447 1.75,-0.533c-0.481,-0.086 -1.072,-0.126 -1.313,-0.088c-0.24,0.038 -0.372,-0.259 -0.291,-0.66c0.08,-0.401 -0.18,-0.665 -0.577,-0.586c-0.432,0.086 -0.666,-0.383 -0.583,-1.167c0.131,-1.239 -0.097,-1.32 -4.168,-1.484c-4.141,-0.166 -4.294,-0.125 -3.982,1.067c0.243,0.929 0.107,1.157 -0.539,0.91c-0.474,-0.183 -0.721,-0.102 -0.547,0.179c0.488,0.79 -1.256,1.958 -3.642,2.438c-2.682,0.54 10.08,0.47 13.892,-0.076l0,0Zm-6.566,-3.273c0.401,-0.161 1.058,-0.161 1.459,0c0.401,0.162 0.073,0.295 -0.729,0.295c-0.803,0 -1.131,-0.133 -0.73,-0.295Zm-379.087,2.906c-0.421,-0.168 -0.924,-0.148 -1.118,0.046c-0.194,0.194 0.151,0.332 0.766,0.307c0.68,-0.028 0.818,-0.166 0.352,-0.353l0,0Zm72.169,-0.485c0.664,-0.664 -0.889,-1.45 -2.864,-1.45c-2.407,0 -3.32,1.387 -1.278,1.943c0.975,0.265 3.709,-0.06 4.142,-0.493Zm318.152,0.335c0,-0.689 -1.138,-1.425 -1.556,-1.007c-0.418,0.418 0.319,1.556 1.007,1.556c0.302,0 0.549,-0.247 0.549,-0.549Zm6.712,-0.618c-0.198,-0.321 -0.105,-0.584 0.209,-0.584c0.313,0 0.678,0.326 0.81,0.724c0.171,0.511 0.564,0.402 1.336,-0.37c0.602,-0.601 1.184,-0.824 1.294,-0.494c0.236,0.706 2.479,0.243 2.479,-0.512c0,-0.283 -1.029,-0.515 -2.287,-0.515c-1.258,0 -2.768,-0.173 -3.356,-0.385c-0.588,-0.211 -0.874,-0.17 -0.636,0.092c0.592,0.653 -0.708,2.123 -1.464,1.655c-0.353,-0.218 -0.434,-0.093 -0.192,0.299c0.229,0.37 0.811,0.673 1.292,0.673c0.482,0 0.713,-0.262 0.515,-0.583Zm20.134,0.02c1.445,-0.021 3.02,-0.297 3.502,-0.613c1.561,-1.025 -0.548,-1.729 -4.368,-1.458c-1.921,0.137 -5.018,0.303 -6.883,0.371c-1.864,0.067 -3.528,0.346 -3.697,0.619c-0.168,0.273 -0.548,0.347 -0.843,0.164c-0.295,-0.182 -0.384,0.067 -0.197,0.553c0.276,0.719 1.23,0.84 5.1,0.643c2.618,-0.133 5.942,-0.258 7.386,-0.279Zm46.105,-1.5c3.489,-0.436 7.403,-1.816 6.816,-2.404c-0.202,-0.202 -4.025,-0.024 -8.497,0.396c-6.573,0.617 -8.069,0.921 -7.812,1.59c0.467,1.218 2.509,1.794 4.519,1.275c0.97,-0.25 3.208,-0.636 4.974,-0.857Zm-119.785,-0.056c2.462,-0.659 1.322,-1.39 -1.751,-1.122c-1.685,0.147 -3.26,0.28 -3.501,0.295c-0.241,0.016 -0.438,0.291 -0.438,0.612c0,0.639 3.601,0.775 5.69,0.215Zm137.147,-0.034c-0.562,-0.147 -1.481,-0.147 -2.043,0c-0.561,0.147 -0.102,0.267 1.022,0.267c1.123,0 1.583,-0.12 1.021,-0.267Zm-88.562,-1.349c0,-1.205 -1.946,-1.684 -2.592,-0.638c-0.18,0.291 0.198,0.392 0.841,0.224c0.812,-0.212 1.168,-0.018 1.168,0.638c0,0.519 0.131,0.944 0.291,0.944c0.161,0 0.292,-0.526 0.292,-1.168Zm-208.083,-0.651c0.323,-0.301 -1.498,-0.496 -4.378,-0.468c-4.672,0.045 -4.839,0.089 -3.18,0.856c1.817,0.839 6.495,0.599 7.558,-0.388Zm42.048,-0.187c-5.31,-3.191 -5.645,-3.291 -10.683,-3.192c-3.189,0.063 -4.97,0.34 -5.147,0.8c-0.188,0.49 -1.902,0.671 -5.643,0.595c-6.334,-0.127 -7.654,0.177 -5.214,1.203c2.257,0.949 6.788,1.307 7.043,0.557c0.109,-0.321 1.948,-0.882 4.085,-1.247c3.354,-0.572 4.087,-0.533 5.346,0.286c2.558,1.663 4.861,2.279 8.754,2.341l3.794,0.06l-2.335,-1.403l0,0Zm139.335,1.036c-0.401,-0.162 -1.057,-0.162 -1.459,0c-0.401,0.161 -0.073,0.294 0.73,0.294c0.802,0 1.131,-0.133 0.729,-0.294Zm6.274,-0.198c0,-0.321 -0.853,-0.565 -1.897,-0.542c-1.589,0.034 -1.707,0.122 -0.729,0.542c1.612,0.693 2.626,0.693 2.626,0Zm4.085,0.125c0,-0.253 -0.788,-0.52 -1.75,-0.593c-0.963,-0.074 -1.751,0.133 -1.751,0.459c0,0.326 0.788,0.593 1.751,0.593c0.962,0 1.75,-0.207 1.75,-0.459Zm11.964,-0.125c0.201,-0.325 -0.235,-0.579 -0.987,-0.574c-1.084,0.007 -1.176,0.119 -0.472,0.574c1.086,0.702 1.025,0.702 1.459,0Zm-220.784,-0.982c-0.421,-0.168 -0.925,-0.148 -1.119,0.046c-0.194,0.194 0.151,0.332 0.766,0.307c0.68,-0.028 0.818,-0.167 0.353,-0.353l0,0Zm232.718,-0.577c0.143,-0.125 -0.579,-0.164 -1.605,-0.085c-1.027,0.078 -1.867,0.354 -1.867,0.612c0,0.433 2.871,-0.005 3.472,-0.527Zm-369.244,-0.337c0.309,-0.923 4.522,-0.978 4.522,-0.059c0,0.378 0.893,0.671 2.043,0.671c2.542,0 2.58,-0.49 0.146,-1.884c-1.044,-0.597 -2.459,-1.591 -3.146,-2.21c-1.937,-1.744 -4.843,-1.214 -6.208,1.131c-0.602,1.035 -0.927,2.151 -0.723,2.481c0.522,0.845 3.073,0.747 3.366,-0.13Zm43.149,0.331c-0.421,-0.169 -0.924,-0.148 -1.118,0.046c-0.194,0.193 0.151,0.331 0.766,0.306c0.68,-0.028 0.818,-0.166 0.352,-0.353l0,0.001Zm82.872,0c-0.421,-0.169 -0.925,-0.148 -1.119,0.046c-0.194,0.193 0.151,0.331 0.766,0.306c0.68,-0.028 0.819,-0.166 0.353,-0.353l0,0.001Zm273.229,-1.648c2.13,-1.111 2.659,-1.095 3.998,0.117c1.032,0.934 1.07,0.929 0.676,-0.096c-0.288,-0.752 -0.206,-0.955 0.267,-0.662c0.376,0.232 0.683,0.174 0.683,-0.128c0,-0.876 -2.14,-1.204 -6.026,-0.924c-7.716,0.557 -10.362,1.215 -8.234,2.048c1.94,0.76 6.889,0.556 8.636,-0.355l0,0Zm33.45,-0.051c3.053,-0.314 4.373,-1.21 4.673,-3.171c0.235,-1.542 -1.411,-1.698 -4.697,-0.447c-1.74,0.663 -3.095,0.88 -3.502,0.561c-1.952,-1.53 -6.566,-1.146 -9.525,0.794l-1.54,1.009l1.279,0.684c0.704,0.377 1.14,0.825 0.969,0.996c-0.341,0.341 7.535,0.069 12.343,-0.426Zm-419.888,-0.751c0.422,-0.604 1.291,-1.23 1.929,-1.391c0.945,-0.24 0.885,-0.307 -0.327,-0.362c-0.818,-0.037 -1.842,0.261 -2.274,0.662c-0.463,0.43 -0.633,0.457 -0.414,0.065c0.224,-0.401 -0.261,-0.791 -1.228,-0.986c-0.879,-0.177 -2.359,-0.506 -3.288,-0.733l-1.689,-0.411l1.323,1.323c1.28,1.28 3.966,2.92 4.794,2.927c0.223,0 0.751,-0.49 1.174,-1.094l0,0Zm112.078,-0.456c-0.401,-0.162 -1.058,-0.162 -1.459,0c-0.401,0.162 -0.073,0.294 0.73,0.294c0.802,0 1.13,-0.132 0.729,-0.294Zm317.334,-0.489c-0.353,-0.706 -4.142,-0.417 -4.96,0.378c-0.38,0.369 0.436,0.504 2.334,0.386c1.698,-0.105 2.796,-0.425 2.626,-0.764Zm-341.832,-0.367c-0.363,-0.362 -2.582,-0.772 -4.932,-0.91c-3.945,-0.233 -4.186,-0.183 -3.14,0.658c1.382,1.111 9.174,1.354 8.072,0.252Zm-145.001,-1.883l1.351,-0.749l-2.258,-1.565c-2.231,-1.546 -3.922,-1.867 -6.372,-1.21c-1.19,0.319 -1.204,0.392 -0.256,1.34c2.96,2.96 5.046,3.565 7.535,2.184Zm425.555,-6.466c4.146,-0.526 11.427,-1.263 14.153,-1.433c1.082,-0.068 1.159,-0.186 0.437,-0.675c-1.076,-0.729 -23.953,-0.154 -26.614,0.669c-2.65,0.819 -3.813,1.002 -9.138,1.439c-2.644,0.217 -4.94,0.519 -5.1,0.671c-0.337,0.318 23.202,-0.283 26.262,-0.671Zm-329.25,-0.348c0.907,-0.016 0.907,-0.056 0,-0.584c-1.079,-0.63 -2.822,-0.18 -2.822,0.727c0,0.321 0.415,0.424 0.923,0.229c0.507,-0.195 1.361,-0.362 1.896,-0.372l0.003,0Zm118.278,-0.534c0.321,-0.232 6.23,-0.469 13.131,-0.528c6.901,-0.058 13.04,-0.261 13.641,-0.451c0.602,-0.19 1.283,-0.039 1.514,0.334c0.316,0.512 2.422,0.528 8.535,0.065c4.464,-0.338 8.773,-0.607 9.575,-0.598c1.349,0.015 1.381,0.075 0.421,0.804c-0.908,0.689 -0.925,0.832 -0.133,1.135c1.012,0.389 19.553,-0.063 23.628,-0.576c2.393,-0.301 2.521,-0.396 1.514,-1.133c-1.659,-1.213 -6.947,-2.602 -11.014,-2.895c-17.763,-1.276 -33.008,-1.638 -38.635,-0.918c-10.006,1.281 -24.103,1.501 -29.829,0.466c-9.326,-1.685 -33.806,-2.419 -37.578,-1.126c-3.271,1.122 -6.95,1.003 -12.107,-0.393c-2.647,-0.717 -5.384,-1.219 -6.082,-1.116c-1.915,0.282 -1.973,1.554 -0.09,1.943c0.906,0.187 2.595,0.59 3.753,0.895c4.371,1.154 10.032,1.29 13.718,0.33c5.275,-1.374 14.055,-1.697 17.524,-0.644c1.559,0.473 3.404,0.863 4.1,0.866c0.695,0.005 1.352,0.259 1.459,0.567c0.176,0.508 4.508,1.012 9.824,1.142c1.298,0.032 2.677,0.596 3.786,1.549c1.601,1.377 2.03,1.467 5.252,1.102c1.93,-0.219 3.772,-0.588 4.093,-0.82l0,0Zm116.428,-0.077c4.334,-0.345 9.717,-0.643 11.964,-0.663c5.485,-0.047 7.719,-0.941 2.627,-1.05c-2.087,-0.045 -4.319,-0.192 -4.961,-0.326c-3.683,-0.771 -27.477,0.064 -44.938,1.577c-0.641,0.056 2.379,0.39 6.712,0.742c8.868,0.721 17.04,0.641 28.596,-0.28Zm-183.142,-2.104c-0.421,-0.169 -0.924,-0.148 -1.118,0.046c-0.194,0.194 0.151,0.332 0.766,0.306c0.68,-0.028 0.818,-0.166 0.352,-0.352l0,0Zm-1.276,-2.111c0,-1.376 -1.367,-2.159 -3.764,-2.156l-2.364,0.005l1.751,1.435c1.885,1.545 4.377,1.954 4.377,0.718l0,-0.002Zm319.657,-0.229c-0.567,-0.148 -1.355,-0.139 -1.75,0.021c-0.396,0.16 0.069,0.281 1.032,0.269c0.963,-0.012 1.286,-0.142 0.718,-0.29l0,0Zm6.951,-0.763c0.474,0 0.722,-0.227 0.55,-0.505c-0.411,-0.666 -3.258,-0.11 -3.258,0.635c0,0.318 0.415,0.419 0.923,0.224c0.507,-0.195 1.311,-0.354 1.785,-0.354Zm-474.86,-1.728c1.293,-0.818 0.424,-1.273 -2.644,-1.383c-1.667,-0.06 -2.856,0.172 -3.001,0.586c-0.384,1.087 4.169,1.73 5.645,0.797Zm5.567,-0.616c0.201,-0.326 0.617,-0.438 0.924,-0.249c0.306,0.19 1.404,0.15 2.44,-0.089c1.855,-0.428 1.861,-0.44 0.423,-0.86c-1.606,-0.47 -5.836,-0.687 -5.836,-0.299c0,0.134 0.16,0.659 0.355,1.167c0.404,1.054 1.156,1.2 1.694,0.33Zm475.847,-2.775c0.202,-0.32 1.445,-0.704 2.764,-0.855c1.318,-0.15 2.665,-0.439 2.993,-0.642c0.907,-0.561 1.281,-2.613 0.527,-2.9c-1.879,-0.718 -13.796,1.963 -13.796,3.104c0,0.273 -0.59,0.687 -1.313,0.92c-1.13,0.363 -0.947,0.513 1.313,1.076c2.744,0.682 6.882,0.295 7.512,-0.703Zm-465.64,0.096c0,-0.126 -0.394,-0.229 -0.875,-0.229c-0.482,0 -0.876,0.254 -0.876,0.565c0,0.311 0.394,0.414 0.876,0.229c0.481,-0.185 0.875,-0.439 0.875,-0.565Zm370.292,-2.557c0.204,-0.331 -0.03,-0.429 -0.549,-0.23c-1.011,0.388 -1.196,0.807 -0.357,0.807c0.302,0 0.71,-0.26 0.906,-0.577Zm23.056,-0.029c0.482,-0.096 -1.356,-0.339 -4.085,-0.539c-5.951,-0.436 -17.508,-0.041 -17.508,0.598c0,0.413 19.512,0.359 21.593,-0.059Zm-385.178,-1.145c0,-0.321 -0.409,-0.584 -0.909,-0.584c-0.501,0 -0.748,0.263 -0.55,0.584c0.199,0.321 0.608,0.583 0.91,0.583c0.302,0 0.549,-0.262 0.549,-0.583Zm469.408,-1.435c-0.167,-1.88 0.906,-3.231 2.602,-3.275c0.871,-0.023 2.11,-0.267 2.752,-0.543c0.915,-0.393 0.656,-0.51 -1.202,-0.542c-1.303,-0.023 -2.879,0.344 -3.502,0.816c-0.623,0.471 -1.551,0.865 -2.063,0.875c-0.512,0.01 -1.402,0.539 -1.978,1.175c-0.872,0.964 -0.92,1.308 -0.286,2.072c1.095,1.32 3.807,0.894 3.677,-0.578Zm-521.823,0.452c-0.421,-0.168 -0.924,-0.147 -1.118,0.046c-0.194,0.194 0.151,0.332 0.766,0.307c0.68,-0.028 0.818,-0.166 0.352,-0.353l0,0Zm47.747,-1.235c0,-0.825 -1.369,-1.867 -2.452,-1.867c-1.029,0 -1.43,1.176 -0.661,1.945c0.549,0.549 3.113,0.485 3.113,-0.078l0,0Zm96.294,-0.639c1.777,-0.494 1.82,-1.306 0.115,-2.156c-0.701,-0.349 -1.791,-1.103 -2.422,-1.674c-0.876,-0.793 -1.671,-0.948 -3.36,-0.654c-5.688,0.99 -7.044,2.833 -2.312,3.142c1.907,0.124 2.727,0.431 2.727,1.021c0,0.907 2.579,1.065 5.252,0.321Zm-152.781,-1.31c-2.623,-1.205 -4.792,-1.018 -4.792,0.413c0,0.641 0.848,0.824 3.648,0.787l3.647,-0.049l-2.503,-1.151l0,0Zm66.202,-0.356c-0.89,-3.191 -1.089,-3.648 -1.584,-3.648c-0.781,0 -0.671,2.148 0.179,3.51c0.895,1.432 1.79,1.52 1.405,0.138Zm306.597,0.797c0,-0.123 -0.525,-0.361 -1.167,-0.529c-0.642,-0.167 -1.167,-0.067 -1.167,0.224c0,0.291 0.525,0.529 1.167,0.529c0.642,0 1.167,-0.101 1.167,-0.224Zm-179.503,-1.818c-0.024,-0.321 -1.163,-0.997 -2.53,-1.502c-2.068,-0.764 -2.945,-0.802 -5.208,-0.228c-3.699,0.938 -4.019,2.467 -0.569,2.716c3.615,0.26 8.36,-0.303 8.307,-0.986Zm-198.088,-0.876c-1.15,-0.743 -3.501,-0.743 -3.501,0c0,0.321 0.984,0.58 2.188,0.575c1.628,-0.006 1.964,-0.154 1.313,-0.575Zm10.505,-1.056c0,-0.259 -0.354,-0.956 -0.786,-1.547c-0.545,-0.745 -0.914,-0.869 -1.202,-0.403c-0.582,0.941 -2.097,0.84 -2.097,-0.141c0,-1.019 -1.27,-1.522 -3.841,-1.522c-2.062,0 -2.335,0.31 -1.473,1.672c0.758,1.196 9.399,2.981 9.399,1.941Zm32.282,-3.325c2.225,-1.11 3.373,-1.096 1.893,0.023c-1.447,1.094 -0.842,1.088 1.807,-0.019c2.65,-1.107 3.703,-1.108 3.703,-0.005c0,0.588 0.428,0.792 1.313,0.627c0.722,-0.134 1.773,-0.264 2.335,-0.288c1.745,-0.074 1.12,-1.066 -0.876,-1.392c-3.792,-0.618 -5.976,-1.337 -5.725,-1.885c0.605,-1.316 -2.606,-2.085 -7.455,-1.785c-5.107,0.315 -6.12,0.028 -10.312,-2.924c-5.187,-3.652 -21.633,-8.468 -22.749,-6.662c-0.204,0.329 -0.158,0.6 0.102,0.601c0.26,0 1.523,0.671 2.807,1.487c2.467,1.569 2.03,1.562 -3.344,-0.053c-2.796,-0.841 -3.631,-0.886 -5.106,-0.275c-2.065,0.856 -2.186,1.406 -0.605,2.759c1.245,1.067 5.79,2.602 6.466,2.184c0.39,-0.241 2.227,-0.037 13.094,1.45c12.898,1.766 14.728,2.352 10.651,3.408c-1.043,0.27 -1.976,0.908 -2.074,1.417c-0.139,0.723 0.815,1.12 4.376,1.821c4.922,0.969 6.983,0.865 9.699,-0.49l0,0.001Zm-53.155,-2.155c0.177,-0.532 1.041,-0.555 3.574,-0.095c1.838,0.333 3.453,0.424 3.59,0.202c0.332,-0.537 -5.753,-3.492 -7.191,-3.492c-0.622,0 -1.944,0.162 -2.938,0.361c-1.629,0.326 -1.742,0.484 -1.153,1.605c1.097,2.085 3.607,2.949 4.118,1.419Zm12.703,-2.218c0,-0.321 -0.541,-0.584 -1.202,-0.584c-0.661,0 -1.039,0.263 -0.841,0.584c0.198,0.321 0.739,0.584 1.202,0.584c0.462,0 0.841,-0.263 0.841,-0.584Zm-190.839,-2.334c0,-0.321 -0.247,-0.584 -0.549,-0.584c-0.302,0 -0.711,0.263 -0.91,0.584c-0.198,0.321 0.049,0.583 0.549,0.583c0.501,0 0.91,-0.262 0.91,-0.583Zm165.137,-2.224c0.357,-0.786 0.518,-1.561 0.356,-1.723c-0.563,-0.563 -4.709,-0.426 -4.613,0.153c0.054,0.321 0.185,0.978 0.292,1.459c0.13,0.584 -0.341,0.937 -1.41,1.06c-1.497,0.173 -1.995,0.69 -1.317,1.369c0.159,0.159 1.583,0.023 3.165,-0.301c2.169,-0.444 3.036,-0.94 3.527,-2.017Zm8.777,2.295c0,-0.99 -1.707,-1.915 -2.86,-1.549c-1.709,0.543 -0.846,2.061 1.172,2.061c0.928,0 1.688,-0.23 1.688,-0.512Zm-228.189,-2.698c1.906,-0.733 1.823,-1.021 -0.292,-1.021c-2.503,0 -3.209,0.225 -3.209,1.021c0,1.049 0.779,1.049 3.501,0Zm24.037,-1.274c-0.421,-0.168 -0.924,-0.147 -1.118,0.046c-0.194,0.194 0.151,0.332 0.766,0.307c0.68,-0.028 0.818,-0.166 0.352,-0.353l0,0Zm40.678,-1.092c1.198,-1.198 -5.109,-1.861 -10.002,-1.052c-2.316,0.382 -2.871,1.118 -1.167,1.548c1.343,0.338 10.752,-0.079 11.169,-0.496Zm36.092,-0.081c-0.568,-0.148 -1.356,-0.138 -1.751,0.022c-0.395,0.16 0.069,0.281 1.032,0.269c0.963,-0.012 1.286,-0.143 0.719,-0.291l0,0Zm120.962,-1.117c0,-0.989 -0.828,-1.035 -2.505,-0.137c-1.231,0.658 -1.234,0.685 -0.108,1.086c1.461,0.521 2.613,0.102 2.613,-0.949Zm-93.084,0.457c1.488,-0.264 2.334,-0.728 2.334,-1.279c0,-0.702 -1.019,-0.869 -5.364,-0.881c-2.951,-0.008 -5.555,-0.205 -5.788,-0.437c-0.232,-0.233 -1.58,-0.423 -2.994,-0.423c-2.139,0 -2.537,0.172 -2.366,1.021c0.155,0.769 0.672,0.976 2.089,0.838c1.143,-0.112 2.243,0.175 2.797,0.729c0.982,0.982 5.108,1.174 9.292,0.432Zm-34.032,-1.085c-0.421,-0.168 -0.924,-0.147 -1.118,0.046c-0.194,0.194 0.151,0.332 0.766,0.307c0.68,-0.028 0.818,-0.166 0.352,-0.353l0,0Zm9.812,-0.127c0,-0.784 -3.241,-1.767 -4.629,-1.404c-1.352,0.353 -1.582,1.098 -0.477,1.544c1.272,0.513 5.106,0.408 5.106,-0.14Zm114.144,-0.326l1.642,-0.852l-2.596,-1.178c-1.428,-0.647 -2.925,-1.183 -3.326,-1.19c-0.887,-0.016 -0.947,1.408 -0.126,2.943c0.721,1.347 2.169,1.438 4.406,0.277Zm-45.649,-2.698c2.755,-1.316 4.056,-1.656 4.841,-1.265c0.59,0.294 2.058,0.587 3.262,0.65c1.865,0.099 2.189,-0.063 2.189,-1.098c0,-2.898 -2.717,-5.816 -3.794,-4.075c-0.198,0.321 -1.114,0.584 -2.035,0.584c-0.921,0 -2.086,0.411 -2.588,0.913c-0.502,0.502 -1.374,0.855 -1.938,0.784c-0.564,-0.071 -1.813,0.183 -2.776,0.564c-0.963,0.38 -2.079,0.807 -2.481,0.948c-0.401,0.141 -0.729,1.052 -0.729,2.025c0,2.318 1.145,2.312 6.049,-0.03l0,0Zm14.96,-1.668c0,-0.792 -1.029,-1.312 -1.402,-0.709c-0.349,0.564 0.156,1.258 0.916,1.258c0.268,0 0.486,-0.247 0.486,-0.549Zm17.753,0.195c1.537,-0.59 1.036,-1.397 -0.866,-1.397c-0.984,0 -2.298,-0.271 -2.918,-0.604c-0.854,-0.457 -1.129,-0.414 -1.129,0.175c0,1.803 2.526,2.742 4.913,1.826Zm-160.754,-2.418c-0.02,-0.457 -4.067,-2.524 -4.067,-2.076c0,0.141 0.272,0.764 0.605,1.385c0.571,1.068 3.503,1.654 3.462,0.691Zm10.524,-0.792c0,-0.286 -0.263,-0.521 -0.584,-0.521c-0.321,0 -0.584,0.278 -0.584,0.618c0,0.34 -0.303,0.431 -0.673,0.202c-0.408,-0.252 -0.516,-0.161 -0.274,0.232c0.443,0.715 2.115,0.296 2.115,-0.531Zm-8.645,0.248c-0.421,-0.169 -0.925,-0.148 -1.119,0.046c-0.194,0.193 0.151,0.331 0.766,0.306c0.68,-0.028 0.818,-0.166 0.353,-0.353l0,0.001Zm157.463,-0.185c0,-0.321 -0.459,-0.58 -1.021,-0.575c-0.873,0.008 -0.894,0.091 -0.146,0.575c1.102,0.711 1.167,0.711 1.167,0Zm35.814,-0.359c4.043,-0.668 4.455,-0.845 4.455,-1.919c0,-0.636 -0.546,-1.233 -1.313,-1.437c-1.692,-0.449 -9.192,1.893 -9.192,2.872c0,0.991 1.145,1.423 2.84,1.072c0.76,-0.157 2.204,-0.422 3.21,-0.588Zm-119.852,-0.072c0,-0.13 -0.378,-0.614 -0.839,-1.075c-0.841,-0.841 -1.876,-0.166 -1.264,0.825c0.299,0.484 2.103,0.699 2.103,0.25Zm-100.38,-1.355c0,-0.34 -0.263,-0.455 -0.584,-0.257c-0.321,0.198 -0.583,0.477 -0.583,0.618c0,0.142 0.262,0.257 0.583,0.257c0.321,0 0.584,-0.278 0.584,-0.618Zm229.225,-2.841c-0.243,-1.261 -1.931,-1.165 -1.831,0.104c0.045,0.561 -0.152,1.021 -0.437,1.021c-0.286,0 -0.519,0.257 -0.519,0.571c0,0.345 0.586,0.304 1.482,-0.104c0.845,-0.385 1.406,-1.069 1.305,-1.592Zm-202.379,0.536c0,-0.92 -3.177,-1.601 -4.672,-1.001l-1.456,0.584l1.926,0.435c1.059,0.24 2.07,0.579 2.246,0.755c0.423,0.423 1.956,-0.182 1.956,-0.773Zm10.971,-2.446c1.051,-1.05 0.846,-2.093 -0.495,-2.518c-1.436,-0.456 -2.89,0.611 -2.89,2.123c0,1.268 2.25,1.531 3.385,0.395Zm209.922,0.117c-0.198,-0.321 -0.623,-0.584 -0.944,-0.584c-0.321,0 -0.421,0.263 -0.223,0.584c0.199,0.321 0.623,0.584 0.944,0.584c0.321,0 0.422,-0.263 0.223,-0.584Zm-221.477,-1.751c0,-0.321 -0.51,-0.583 -1.133,-0.583c-0.623,0 -1.295,0.262 -1.493,0.583c-0.205,0.331 0.285,0.584 1.132,0.584c0.822,0 1.494,-0.263 1.494,-0.584Zm5.398,0.197c-0.401,-0.162 -1.058,-0.162 -1.459,0c-0.401,0.162 -0.073,0.295 0.73,0.295c0.802,0 1.13,-0.133 0.729,-0.295Zm207.868,-3.048c0.176,-0.285 -0.268,-0.675 -0.987,-0.868c-1.924,-0.516 -2.182,-0.455 -2.182,0.509c0,0.952 2.619,1.248 3.169,0.359Zm-6.807,-1.238c0.179,-0.94 -5.269,-3.249 -6.245,-2.646c-0.288,0.178 -1.193,0.069 -2.011,-0.242c-2.168,-0.824 -2.502,0.326 -0.41,1.408c0.958,0.495 2.298,0.9 2.979,0.9c0.681,0 1.646,0.408 2.144,0.907c1.097,1.096 3.311,0.892 3.543,-0.327Zm18.808,-0.726c0,-0.24 -1.047,-0.437 -2.331,-0.437c-1.284,0 -2.334,0.236 -2.334,0.525c0,0.289 1.049,0.486 2.331,0.438c1.282,-0.048 2.333,-0.285 2.334,-0.526Zm-78.127,-1.337c3.937,-1.386 6.931,-2.784 6.931,-3.235c0,-1.526 -5.177,-1.433 -8.298,0.148c-3.705,1.877 -4.09,2.248 -3.31,3.189c0.845,1.018 1.541,1.003 4.677,-0.102Zm-33.483,-4.137c0.722,-0.193 1.313,-0.652 1.313,-1.019c0,-0.367 0.656,-1.376 1.459,-2.241c1.738,-1.875 1.858,-2.792 0.363,-2.792c-1.241,0 -2.607,1.356 -1.989,1.974c0.224,0.224 -0.182,0.561 -0.903,0.75c-0.721,0.188 -1.702,1.097 -2.178,2.019c-0.936,1.809 -0.65,2.002 1.935,1.309Zm26.572,-8.161c0.532,-0.532 -1.34,-3.143 -2.254,-3.143c-0.678,0 -1.996,1.681 -1.996,2.547c0,0.257 1.457,0.648 3.259,0.875c0.348,0.044 0.794,-0.082 0.991,-0.279Zm5.36,-2.376c2.277,-1.086 2.462,-1.46 1.227,-2.485c-0.596,-0.495 -1.421,-0.532 -2.879,-0.129c-1.123,0.31 -2.154,0.452 -2.291,0.316c-0.136,-0.137 -0.591,0.165 -1.011,0.671c-0.649,0.782 -0.575,0.968 0.501,1.249c0.695,0.182 1.263,0.563 1.263,0.846c0,0.762 0.882,0.633 3.19,-0.468Zm-346.769,261.89c-0.047,-0.623 0.357,-1.27 0.897,-1.438c0.54,-0.169 0.26,-0.221 -0.623,-0.117c-0.882,0.105 -1.604,-0.069 -1.604,-0.385c0,-0.325 -0.742,-0.428 -1.698,-0.236c-1.247,0.249 -1.795,0.087 -2.062,-0.609c-0.2,-0.521 -0.096,-1.215 0.231,-1.542c0.963,-0.963 2.803,-1.006 3.161,-0.073c0.182,0.474 0.88,0.863 1.551,0.863c0.671,0 1.058,0.262 0.859,0.583c-0.198,0.321 0.049,0.617 0.549,0.657c1.689,0.135 1.979,0.217 2.458,0.696c0.494,0.495 -1.958,2.697 -3.029,2.72c-0.332,0.007 -0.643,-0.497 -0.69,-1.119Zm27.012,-117.752c-0.317,-0.832 -0.25,-0.899 0.327,-0.327c0.398,0.396 0.578,0.867 0.398,1.046c-0.18,0.18 -0.506,-0.144 -0.725,-0.719Zm952.743,-21.692l-1.411,-0.394l1.64,-1.075c1.539,-1.008 1.764,-1.016 3.631,-0.126c1.094,0.522 1.829,1.21 1.632,1.528c-0.396,0.641 -3.312,0.677 -5.492,0.067l0,0Zm2.286,-18.749c-0.481,-0.311 -1.451,-0.569 -2.155,-0.574c-0.991,-0.007 -1.225,-0.29 -1.04,-1.255c0.132,-0.685 0.343,-1.348 0.468,-1.474c0.432,-0.432 5.082,2.367 4.89,2.944c-0.285,0.853 -1.17,1 -2.163,0.359Zm23.212,-10.945c-0.368,-1.407 0.912,-2.631 1.811,-1.732c0.844,0.844 0.851,2.757 0.01,2.757c-0.362,0 -0.49,-0.45 -0.291,-1.022c0.333,-0.956 0.305,-0.956 -0.449,0.014c-0.77,0.989 -0.818,0.988 -1.081,-0.017l0,0Zm-930.519,-5.881c-0.529,-0.847 -0.497,-1.07 0.152,-1.07c0.45,0 0.819,0.481 0.819,1.07c0,0.588 -0.068,1.07 -0.151,1.07c-0.084,0 -0.452,-0.482 -0.82,-1.07Zm890.81,-6.006c0.396,-0.399 0.867,-0.578 1.047,-0.399c0.18,0.18 -0.144,0.506 -0.72,0.726c-0.832,0.316 -0.899,0.249 -0.327,-0.327Zm31.379,-10.277c-0.642,-0.16 -1.864,-0.786 -2.716,-1.391c-0.852,-0.604 -1.936,-1.099 -2.409,-1.099c-0.473,0 -1.187,-0.394 -1.587,-0.875c-0.399,-0.482 -1.263,-0.876 -1.919,-0.876c-0.656,0 -1.04,-0.153 -0.853,-0.34c0.187,-0.187 1.872,-0.146 3.745,0.091c1.872,0.237 3.076,0.544 2.675,0.681c-1.02,0.348 -0.913,1.319 0.146,1.319c0.481,0 0.875,0.263 0.875,0.584c0,0.321 0.591,0.587 1.313,0.591c2.06,0.013 3.958,0.658 3.607,1.226c-0.338,0.546 -0.973,0.566 -2.877,0.089Zm-5.059,-8.319c-2.141,-0.164 -4.066,-0.473 -4.279,-0.687c-0.212,-0.213 -0.096,-0.929 0.258,-1.591c0.832,-1.555 4.123,-2.47 5.161,-1.436c0.413,0.411 0.676,0.866 0.584,1.011c-0.092,0.145 0.466,0.812 1.24,1.483c0.774,0.671 1.299,1.288 1.167,1.37c-0.132,0.082 -1.991,0.015 -4.131,-0.15Zm22.687,-5.626c-0.202,-0.202 -1.743,-0.815 -3.424,-1.363c-2.75,-0.897 -3.057,-1.166 -3.057,-2.68c0,-1.443 0.286,-1.746 2.013,-2.129c2.456,-0.545 4.807,-0.091 4.488,0.867c-0.13,0.388 0.771,1.701 2.001,2.919c1.23,1.218 2.236,2.335 2.236,2.483c0,0.41 -3.838,0.322 -4.257,-0.097l0,0Zm-493.382,-2.24c-1.028,-0.354 -2.057,-0.832 -2.286,-1.061c-0.23,-0.23 -0.833,-0.414 -1.342,-0.409c-0.809,0.008 -0.815,0.079 -0.048,0.575c0.481,0.311 0.613,0.565 0.292,0.565c-0.748,0 -2.889,-2.3 -3.38,-3.629c-0.443,-1.199 0.482,-1.383 1.162,-0.231c0.494,0.836 2.985,2.381 3.969,2.462c0.321,0.026 1.493,0.437 2.605,0.912c2.451,1.048 1.651,1.719 -0.972,0.816l0,0Zm-403.456,-3.535c-0.406,-0.49 -0.592,-1.036 -0.413,-1.215c0.446,-0.446 2.759,0.845 2.759,1.541c0,0.875 -1.525,0.663 -2.346,-0.326Zm408.972,-2.441c-2.959,-0.327 -2.787,-1.339 0.227,-1.339c1.527,0 2.664,-0.339 3.089,-0.92c0.605,-0.828 0.819,-0.803 2.107,0.241c0.789,0.639 1.254,1.343 1.035,1.563c-0.529,0.531 -3.732,0.756 -6.458,0.455Zm476.366,-1.144c0,-0.535 -0.174,-0.799 -0.386,-0.587c-0.212,0.211 -0.759,-0.149 -1.216,-0.802c-0.554,-0.791 -1.205,-1.069 -1.95,-0.832c-1.004,0.318 -1.101,0.085 -0.953,-2.282c0.167,-2.661 1.003,-4.526 1.003,-2.238c0,0.724 0.842,1.876 2.037,2.788c1.12,0.855 1.904,1.768 1.742,2.03c-0.162,0.263 0.235,0.645 0.881,0.85c1.522,0.483 1.528,2.046 0.01,2.046c-0.7,0 -1.167,-0.39 -1.167,-0.973l-0.001,0Zm-889.995,-1.973c0,-0.336 0.786,-1.058 1.747,-1.605c0.961,-0.546 1.749,-1.428 1.751,-1.96c0.003,-0.829 0.52,-0.921 3.651,-0.652c6.071,0.523 6.503,2.418 0.635,2.787c-1.425,0.09 -3.058,0.586 -3.629,1.102c-1.154,1.045 -4.155,1.282 -4.155,0.328Zm424.357,-0.744c-1.171,-0.679 -1.236,-0.858 -0.424,-1.169c0.527,-0.202 2.112,-0.209 3.524,-0.016c1.412,0.194 3.322,0.089 4.245,-0.233c1.451,-0.506 1.689,-0.437 1.76,0.511c0.05,0.669 -0.3,1.097 -0.903,1.1c-0.541,0.005 -2.298,0.141 -3.903,0.307c-1.913,0.198 -3.393,0.026 -4.299,-0.5l0,0Zm325.667,-3.645c-0.979,-0.504 -1.144,-0.805 -0.584,-1.061c0.43,-0.196 -0.072,-0.271 -1.115,-0.167c-1.232,0.123 -1.897,-0.066 -1.897,-0.542c0,-0.402 -0.459,-0.829 -1.021,-0.949c-0.562,-0.119 0.215,-0.226 1.725,-0.237c1.511,-0.011 2.613,0.196 2.45,0.46c-0.163,0.264 0.111,0.323 0.609,0.132c0.499,-0.191 0.906,-0.611 0.906,-0.932c0,-0.332 0.63,-0.426 1.459,-0.218c0.959,0.24 1.459,0.122 1.459,-0.346c0,-0.553 0.156,-0.555 0.7,-0.011c0.902,0.902 2.424,0.922 1.87,0.025c-0.282,-0.455 -0.037,-0.576 0.749,-0.37c0.741,0.194 1.409,-0.082 1.83,-0.756c0.863,-1.382 0.413,-1.604 -3.578,-1.765c-2.371,-0.096 -3.322,-0.365 -3.322,-0.94c0,-0.743 3.252,-2.323 4.211,-2.046c0.23,0.066 1.805,-0.254 3.502,-0.71c1.696,-0.457 2.624,-0.848 2.063,-0.869c-0.562,-0.021 -1.022,-0.26 -1.022,-0.53c0,-0.27 1.727,-0.548 3.837,-0.616c5.367,-0.174 7.688,-0.525 9.801,-1.482c1.005,-0.456 3.421,-0.999 5.367,-1.207c4.412,-0.471 5.654,-1.141 4.194,-2.261c-0.562,-0.43 -1.022,-0.888 -1.022,-1.017c0,-0.129 1.51,-0.1 3.356,0.064c4.537,0.404 10.73,-0.286 12.971,-1.445c2.101,-1.086 6.026,-1.639 5.491,-0.773c-0.32,0.518 2.409,0.344 6.779,-0.432c1.134,-0.202 0.971,0.005 -0.73,0.921c-1.203,0.649 -2.188,1.428 -2.188,1.73c0,0.302 1.322,0.725 2.937,0.939c3.251,0.432 3.268,0.802 0.079,1.739c-1.177,0.346 -2.075,0.937 -1.994,1.313c0.098,0.458 -0.913,0.684 -3.053,0.684c-1.758,0 -4.188,0.374 -5.398,0.831c-1.21,0.457 -3.513,1.025 -5.118,1.263c-1.605,0.237 -3.181,0.487 -3.502,0.555c-0.321,0.069 -2.159,0.448 -4.085,0.844c-1.926,0.395 -3.784,0.947 -4.129,1.226c-0.346,0.279 -1.528,0.634 -2.627,0.788c-9.234,1.294 -11.479,1.693 -12.45,2.21c-1.072,0.572 -1.074,0.617 -0.05,1.191c1.533,0.858 10.189,0.617 14.136,-0.395c1.853,-0.474 6.257,-1.423 9.788,-2.107c3.531,-0.684 7.715,-1.617 9.298,-2.074c1.583,-0.457 3.015,-0.83 3.182,-0.83c0.168,0 -1.495,1.182 -3.694,2.626c-2.199,1.444 -4.55,2.63 -5.225,2.634c-1.685,0.01 -8.212,2.099 -9.827,3.145c-0.726,0.47 -2.896,1.009 -4.822,1.196c-1.926,0.188 -4.946,0.492 -6.712,0.677c-6.627,0.692 -24.176,0.621 -25.585,-0.105l0.001,0Zm104.371,-2.576l0,-1.032c0,-0.241 0.328,-0.438 0.729,-0.438c0.402,0 0.927,-0.262 1.168,-0.583c0.289,-0.386 0.586,-0.374 0.875,0.034c0.241,0.339 1.028,1.02 1.749,1.512c1.264,0.863 1.207,0.899 -1.605,0.998c-1.658,0.059 -2.916,-0.153 -2.916,-0.491Zm-316.363,-3.229c-0.75,-0.75 -3.266,-1.324 -6.936,-1.584c-1.048,-0.075 -3.119,-1.934 -3.266,-2.932c-0.061,-0.413 0.557,-0.752 1.425,-0.783c1.97,-0.07 6.295,-0.697 11.453,-1.66c4.353,-0.813 21.579,-0.802 26.103,0.016c1.372,0.248 3.413,0.522 4.536,0.609c3.774,0.291 5.843,0.898 5.427,1.593c-0.224,0.374 0.011,0.333 0.539,-0.095c0.771,-0.624 1.067,-0.619 1.673,0.03c0.432,0.462 1.48,0.686 2.531,0.54l1.794,-0.249l-1.344,1.19c-1.33,1.177 -4.896,1.429 -6.469,0.456c-0.357,-0.221 -0.952,-0.214 -1.321,0.014c-0.37,0.229 -3.067,0.454 -5.994,0.501c-2.927,0.047 -5.627,0.274 -6,0.505c-1.142,0.705 -11.262,1.004 -11.262,0.332c0,-0.33 -0.437,-0.164 -0.971,0.37c-0.631,0.632 -1.516,0.862 -2.53,0.66c-0.857,-0.172 -2.288,0.067 -3.181,0.529c-2.11,1.095 -5.09,1.075 -6.207,-0.042l0,0Zm210.293,-0.67c-0.96,-0.387 -0.945,-2.531 0.018,-2.531c0.411,0 0.802,0.656 0.869,1.459c0.066,0.802 0.058,1.438 -0.018,1.413c-0.077,-0.026 -0.468,-0.179 -0.869,-0.341Zm-157.184,-0.433c-0.133,-0.13 -1.556,-0.376 -3.161,-0.548c-1.605,-0.171 -3.55,-0.546 -4.321,-0.831c-1.348,-0.499 -1.307,-0.559 1.033,-1.495c2.603,-1.042 4.96,-1.185 9.854,-0.597c2.906,0.349 4.346,1.373 1.931,1.373c-0.623,0 -1.295,0.262 -1.494,0.583c-0.198,0.321 -0.017,0.588 0.404,0.593c0.555,0.006 0.524,0.163 -0.112,0.574c-0.871,0.563 -3.67,0.798 -4.134,0.348Zm122.606,-0.952c0,-1.032 0.163,-1.1 1.246,-0.521c0.995,0.533 1.083,0.77 0.437,1.179c-1.257,0.797 -1.683,0.63 -1.683,-0.658Zm9.337,0.604c0,-0.321 0.41,-0.583 0.91,-0.583c0.5,0 0.748,0.262 0.549,0.583c-0.198,0.321 -0.608,0.584 -0.91,0.584c-0.302,0 -0.549,-0.263 -0.549,-0.584Zm5.107,0.188c-1.48,-0.396 -1.253,-1.175 0.437,-1.498c0.803,-0.153 1.459,-0.072 1.459,0.18c0,0.252 2.211,0.412 4.912,0.357c3.6,-0.075 4.765,0.074 4.362,0.559c-0.542,0.653 -9.086,0.961 -11.17,0.402Zm16.341,-0.022c-1.495,-0.226 -2.365,-1.917 -0.987,-1.917c0.34,0 0.455,0.263 0.257,0.584c-0.198,0.321 0.034,0.584 0.515,0.584c0.481,0 1.038,-0.263 1.236,-0.584c0.198,-0.321 0.64,-0.584 0.981,-0.584c0.424,0 0.415,0.249 -0.029,0.784c-0.357,0.43 -0.477,0.956 -0.266,1.167c0.211,0.211 0.275,0.345 0.141,0.296c-0.134,-0.048 -0.965,-0.196 -1.848,-0.33l0,0Zm-260.297,-0.822c0.396,-0.399 0.867,-0.578 1.046,-0.398c0.18,0.179 -0.144,0.506 -0.719,0.725c-0.832,0.317 -0.899,0.25 -0.327,-0.327Zm216.089,0.073c-0.526,-0.34 -0.598,-0.57 -0.181,-0.575c0.383,-0.005 0.858,0.254 1.056,0.575c0.448,0.724 0.246,0.724 -0.875,0Zm3.064,0.124c-2.219,-0.347 -1.453,-1.146 0.854,-0.892c1.192,0.132 2.253,0.325 2.357,0.429c0.349,0.349 -1.881,0.67 -3.211,0.463Zm4.231,-0.124c-0.199,-0.321 -0.082,-0.584 0.257,-0.584c0.34,0 0.618,0.263 0.618,0.584c0,0.321 -0.116,0.583 -0.257,0.583c-0.142,0 -0.42,-0.262 -0.618,-0.583Zm1.459,0.134c0,-0.326 0.394,-0.744 0.875,-0.929c0.482,-0.185 0.876,-0.245 0.876,-0.134c0,0.111 -0.394,0.529 -0.876,0.929c-0.504,0.418 -0.875,0.475 -0.875,0.134Zm145.901,-0.058c0,-0.324 -1.182,-0.766 -2.627,-0.982c-1.444,-0.217 -2.626,-0.575 -2.626,-0.796c0,-0.552 5.233,-1.552 6.892,-1.317c1.885,0.267 1.609,3.222 -0.326,3.497c-0.723,0.103 -1.313,-0.078 -1.313,-0.402Zm-367.958,-0.653c-0.205,-0.331 0.029,-0.429 0.549,-0.23c1.011,0.388 1.196,0.807 0.357,0.807c-0.302,0 -0.71,-0.26 -0.906,-0.577Zm209.636,-0.179c-0.167,-0.435 0.159,-0.79 0.766,-0.836c0.58,-0.044 1.2,0.297 1.376,0.756c0.208,0.541 -0.063,0.836 -0.766,0.836c-0.597,0 -1.217,-0.34 -1.376,-0.756Zm-22.905,-1.023c-0.207,-0.336 -0.814,-0.565 -1.347,-0.508c-1.398,0.15 -4.733,-0.694 -5.101,-1.29c-0.379,-0.613 0.188,-0.678 4.707,-0.535c3.487,0.111 4.544,0.685 3.977,2.162c-0.358,0.931 -1.702,1.034 -2.236,0.171Zm7.552,-0.191c-0.573,-1.493 -0.193,-1.561 3.179,-0.573c3.456,1.013 3.824,1.57 0.55,0.831c-1.343,-0.303 -2.352,-0.255 -2.737,0.13c-0.423,0.424 -0.726,0.305 -0.992,-0.388Zm-155.478,-0.038c0,-0.142 0.263,-0.42 0.584,-0.618c0.321,-0.199 0.583,-0.083 0.583,0.257c0,0.34 -0.262,0.618 -0.583,0.618c-0.321,0 -0.584,-0.116 -0.584,-0.257Zm151.445,-0.91c-0.198,-0.321 -0.083,-0.584 0.258,-0.584c0.34,0 0.618,0.263 0.618,0.584c0,0.321 -0.116,0.583 -0.258,0.583c-0.141,0 -0.419,-0.262 -0.618,-0.583Zm28.305,-0.607c0,-0.377 -0.394,-0.534 -0.875,-0.349c-0.545,0.209 -0.876,-0.005 -0.876,-0.563c0,-1.01 2.85,-0.966 3.692,0.058c0.314,0.38 0.586,0.329 0.78,-0.148c0.163,-0.403 0.537,-0.584 0.831,-0.403c0.773,0.478 0.654,1.233 -0.196,1.239c-0.401,0.005 -1.321,0.196 -2.043,0.429c-0.856,0.275 -1.313,0.184 -1.313,-0.263l0,0Zm-705.871,-0.565c-0.199,-0.323 0.059,-0.749 0.575,-0.947c1.117,-0.429 1.74,0.043 1.203,0.913c-0.485,0.784 -1.304,0.8 -1.778,0.034l0,0Zm698.98,0.105c-1.761,-0.249 -1.349,-1.379 0.703,-1.928c1.23,-0.329 1.544,-0.245 1.315,0.35c-0.208,0.544 0.134,0.735 1.119,0.627c0.867,-0.095 1.42,0.144 1.42,0.615c0,0.74 -1.123,0.823 -4.557,0.336Zm-578.164,-5.925c-0.205,-0.332 0.038,-0.761 0.539,-0.954c0.502,-0.192 0.913,-0.862 0.913,-1.489c0,-0.626 0.267,-0.974 0.593,-0.772c0.326,0.201 0.42,0.647 0.208,0.989c-0.212,0.343 0.191,1.058 0.895,1.59c1.275,0.962 1.272,0.966 -0.747,1.102c-1.116,0.075 -2.196,-0.135 -2.401,-0.466Zm752.277,-0.801c-1.017,-0.743 -0.989,-0.811 0.484,-1.181c0.874,-0.219 2.13,-0.089 2.851,0.297c1.254,0.671 1.257,0.702 0.134,1.14c-1.695,0.663 -2.271,0.62 -3.469,-0.256Zm-759.319,-1.596c-0.222,-0.36 -1.435,-1.116 -2.695,-1.68l-2.29,-1.025l2.216,-0.366c1.22,-0.202 3.16,-0.37 4.312,-0.373c1.164,-0.005 3.703,-0.81 5.71,-1.813c2.446,-1.222 3.844,-1.625 4.324,-1.247c1.553,1.222 10.604,1.695 17.927,0.938c4.67,-0.483 11.677,-0.577 12.343,-0.165c0.757,0.468 -2.016,0.933 -8.55,1.432c-6.272,0.48 -6.98,0.697 -6.027,1.846c0.662,0.797 0.416,0.855 -2.157,0.516c-1.598,-0.211 -3.803,-0.118 -4.902,0.207c-1.27,0.375 -2.241,0.387 -2.667,0.033c-0.369,-0.306 -2.622,-0.568 -5.006,-0.582c-2.385,-0.014 -5.972,-0.07 -7.971,-0.125c-3.959,-0.108 -4.782,0.228 -3.715,1.514c0.436,0.525 0.482,0.969 0.124,1.19c-0.315,0.195 -0.754,0.059 -0.976,-0.3Zm653.186,-1.777c-0.262,-1.003 -0.661,-1.183 -2.135,-0.967c-0.997,0.146 -1.916,0.097 -2.044,-0.109c-0.127,-0.206 -1.727,-0.21 -3.555,-0.009c-2.771,0.305 -18.641,0.277 -27.385,-0.048c-1.283,-0.047 -3.516,-0.077 -4.96,-0.066c-5.161,0.042 -6.39,-0.05 -6.136,-0.462c0.142,-0.229 1.095,-0.441 2.119,-0.47c1.023,-0.029 2.017,-0.283 2.209,-0.565c0.424,-0.621 5.311,-0.619 4.926,0.005c-0.393,0.637 1.879,0.203 2.807,-0.536c1.201,-0.957 3.797,-1.285 17.612,-2.225c7.007,-0.477 15.017,-1.296 17.8,-1.818c2.782,-0.523 5.584,-1.017 6.226,-1.098c7.175,-0.905 12.614,-2.07 19.505,-4.178c0.455,-0.139 1.026,0.068 1.269,0.46c0.69,1.117 -1.853,3.39 -3.806,3.402c-0.939,0.006 -3.565,0.912 -5.836,2.014c-2.27,1.102 -5.441,2.161 -7.046,2.353c-3.864,0.462 -6.903,0.991 -7.435,1.294c-0.758,0.432 0.975,1.815 2.024,1.615c0.555,-0.105 1.155,0.045 1.334,0.334c0.189,0.306 0.886,0.312 1.666,0.016c1.379,-0.525 3.297,0.118 2.262,0.757c-0.684,0.423 -4.045,0.959 -8.101,1.291c-2.666,0.219 -3.033,0.11 -3.32,-0.987l0,-0.003Zm1.679,0.127c-0.181,-0.294 0,-0.667 0.404,-0.829c0.442,-0.179 0.327,-0.314 -0.289,-0.342c-0.561,-0.025 -1.021,0.348 -1.021,0.829c0,0.482 0.278,0.876 0.618,0.876c0.34,0 0.47,-0.24 0.288,-0.534Zm13.162,-1.267c-0.769,-0.307 -1.237,-0.72 -1.041,-0.916c0.637,-0.637 3.314,-0.7 3.314,-0.078c0,0.378 0.308,0.348 0.823,-0.08c0.573,-0.475 0.941,-0.494 1.208,-0.062c0.211,0.342 0.669,0.445 1.017,0.23c0.391,-0.241 0.465,-0.118 0.193,0.322c-0.243,0.393 -0.8,0.576 -1.239,0.408c-0.439,-0.169 -0.953,-0.055 -1.142,0.252c-0.422,0.681 -1.295,0.66 -3.133,-0.075l0,-0.001Zm-426.854,-1.452c0.383,-0.178 0.565,-0.668 0.404,-1.087c-0.185,-0.482 0.311,-0.88 1.346,-1.078c0.901,-0.173 1.701,-0.254 1.778,-0.178c0.416,0.407 -1.511,2.025 -2.766,2.322c-0.802,0.19 -1.145,0.199 -0.762,0.021l0,0Zm350.082,-0.194c-0.18,-0.291 0.199,-0.392 0.841,-0.224c1.363,0.356 1.535,0.753 0.327,0.753c-0.462,0 -0.988,-0.238 -1.168,-0.529Zm5.785,-7.562c-0.766,-0.766 -0.101,-1.685 1.219,-1.685c1.095,0 1.403,0.237 1.154,0.885c-0.251,0.655 -0.146,0.731 0.403,0.293c0.898,-0.717 3.23,-1.188 9.789,-1.977c5.87,-0.707 4.501,-0.644 13.131,-0.599c3.852,0.021 7.458,0.031 8.013,0.024c0.556,-0.007 1.162,-0.259 1.348,-0.559c0.426,-0.689 6.122,-0.703 7.204,-0.017c0.467,0.295 1.575,0.281 2.626,-0.034c2.325,-0.696 4.585,-1.008 8.239,-1.135c1.605,-0.056 5.938,-0.49 9.629,-0.965c8.483,-1.092 10.519,-1.225 10.175,-0.669c-0.151,0.245 -1.649,0.842 -3.328,1.326c-3.041,0.877 -5.146,1.21 -11.808,1.865c-1.925,0.19 -4.552,0.566 -5.836,0.837c-1.284,0.271 -4.583,0.51 -7.332,0.533c-2.749,0.023 -6.209,0.267 -7.688,0.544c-1.479,0.276 -2.987,0.318 -3.351,0.093c-0.364,-0.225 -1.843,-0.02 -3.286,0.455c-1.81,0.596 -3.023,0.694 -3.906,0.314c-0.706,-0.302 -2.858,-0.443 -4.784,-0.313c-1.926,0.13 -6.39,0.34 -9.921,0.466c-3.531,0.126 -7.544,0.311 -8.918,0.411c-1.374,0.1 -2.621,0.058 -2.772,-0.093l0,0Zm-462.488,-16.421c0,-0.321 0.116,-0.583 0.258,-0.583c0.141,0 0.419,0.262 0.618,0.583c0.198,0.321 0.082,0.584 -0.258,0.584c-0.34,0 -0.618,-0.263 -0.618,-0.584Z" style="fill:#fff;fill-rule:nonzero;"/></svg>