<?xml version="1.0" encoding="UTF-8" standalone="no"?><!DOCTYPE svg PUBLIC "-//W3C//DTD SVG 1.1//EN" "http://www.w3.org/Graphics/SVG/1.1/DTD/svg11.dtd"><svg width="100%" height="100%" viewBox="0 0 1001 366" version="1.1" xmlns="http://www.w3.org/2000/svg" xmlns:xlink="http://www.w3.org/1999/xlink" xml:space="preserve" xmlns:serif="http://www.serif.com/" style="fill-rule:evenodd;clip-rule:evenodd;stroke-linejoin:round;stroke-miterlimit:2;"><path id="path2987" d="M206.919,363.729c-0.761,-1.162 -0.75,-1.527 0.122,-4.118c0.586,-1.741 1.297,-2.89 1.835,-2.963c0.701,-0.096 0.8,0.166 0.493,1.3c-0.211,0.78 -0.199,2.249 0.027,3.263c0.412,1.846 -0.171,3.792 -1.137,3.792c-0.278,0 -0.881,-0.573 -1.34,-1.274l0,0Zm-33.59,-3.783c-0.157,-0.157 -0.855,-0.373 -1.549,-0.479c-0.785,-0.12 -1.328,-0.616 -1.434,-1.312c-0.202,-1.324 1.466,-5.533 1.808,-4.562c0.165,0.466 0.524,0.512 1.195,0.153c1.308,-0.7 1.638,-0.22 1.638,2.387c0,2.089 -1.025,4.446 -1.658,3.813Zm24.242,-1.591c0.046,-1.305 2.007,-5.789 2.067,-4.726c0.022,0.386 0.254,0.57 0.517,0.408c0.777,-0.481 0.994,2.745 0.274,4.09c-0.874,1.634 -2.913,1.796 -2.858,0.228Zm26.758,-7.088c-0.856,-1.031 -0.188,-3.255 1.077,-3.586c1.376,-0.36 1.647,-0.023 1.647,2.051c0,1.933 -1.631,2.852 -2.724,1.535Zm-1.42,-14.188c-0.655,-0.263 -1.341,-1.073 -1.523,-1.8c-0.183,-0.727 -1.132,-2.05 -2.11,-2.94c-1.748,-1.591 -1.783,-1.598 -2.092,-0.446c-0.173,0.645 -0.318,1.822 -0.322,2.617c-0.01,1.541 -0.786,2.419 -1.344,1.516c-0.185,-0.3 -0.625,-0.541 -0.976,-0.537c-0.384,0.005 -0.318,0.216 0.165,0.529c0.716,0.462 0.716,0.518 0,0.506c-1.255,-0.023 -3.022,-3.279 -3.425,-6.311c-0.376,-2.839 0.01,-3.642 2.499,-5.199c0.472,-0.295 0.934,-1.141 1.026,-1.879c0.211,-1.677 -1.427,-1.899 -3.105,-0.421c-0.913,0.804 -1.403,0.888 -2.58,0.44c-1.087,-0.413 -1.356,-0.394 -1.067,0.074c0.272,0.441 0.082,0.502 -0.64,0.207c-2.037,-0.831 -2.633,-0.61 -2.813,1.042c-0.097,0.886 -0.385,1.826 -0.641,2.09c-0.265,0.274 -0.343,0.011 -0.18,-0.61c0.156,-0.6 -0.019,-1.278 -0.39,-1.507c-0.475,-0.294 -0.574,-0.153 -0.332,0.476c0.188,0.491 0.109,0.893 -0.177,0.893c-0.286,0 -0.52,-0.611 -0.52,-1.359c0,-1.503 -1.106,-2.189 -2.55,-1.582c-0.516,0.218 -1.49,0.433 -2.164,0.479c-1.051,0.072 -1.182,-0.113 -0.92,-1.305c0.168,-0.764 0.895,-2.554 1.616,-3.979c0.722,-1.425 1.199,-2.773 1.062,-2.996c-0.138,-0.222 -0.399,-1.339 -0.579,-2.48c-0.181,-1.142 -0.44,-2.257 -0.576,-2.478c-0.364,-0.593 -3.287,-0.49 -3.669,0.129c-0.322,0.521 -3.921,-0.66 -4.547,-1.492c-1.152,-1.531 -2.114,-1.778 -3.711,-0.952c-2.198,1.136 -2.503,1.083 -4.444,-0.772c-0.927,-0.885 -2.193,-1.614 -2.813,-1.618c-1.899,-0.014 -5.756,-1.356 -5.308,-1.847c0.233,-0.255 0.01,-0.314 -0.503,-0.132c-1.142,0.41 -1.947,-0.871 -1.621,-2.577c0.285,-1.491 2.664,-3.845 4.157,-4.113c0.819,-0.148 1.1,-0.664 1.184,-2.182c0.061,-1.095 0.51,-2.599 0.999,-3.345c1.096,-1.673 0.656,-3.839 -0.878,-4.326c-1.276,-0.405 -5.331,1.996 -5.331,3.156c0,0.857 -1.894,2.66 -2.958,2.816c-1.365,0.2 -1.532,-1.926 -0.257,-3.283c1.219,-1.298 1.065,-2.581 -0.249,-2.076c-0.411,0.157 -1.2,0.043 -1.754,-0.253c-0.818,-0.438 -1.39,-0.18 -3.027,1.365l-2.019,1.905l1.2,1.277c1.374,1.463 1.279,1.495 -2.005,0.668c-3.278,-0.825 -4.139,0 -2.037,1.945c1.257,1.166 1.386,1.5 0.74,1.909c-1.321,0.835 -5.727,0.623 -6.078,-0.293c-0.177,-0.459 -0.977,-0.805 -1.864,-0.805c-0.855,0 -2.131,-0.442 -2.835,-0.982c-1.886,-1.447 -3.199,-1.8 -4.055,-1.089c-1.221,1.013 -1.789,-0.116 -1.809,-3.593c-0.034,-5.969 0.261,-7.405 2.055,-10.009c0.956,-1.387 1.979,-2.671 2.273,-2.853c0.935,-0.578 0.367,-3.527 -0.801,-4.161c-1.66,-0.901 -5.605,-1.592 -8.679,-1.52c-2.009,0.047 -2.843,-0.156 -3.07,-0.747c-0.427,-1.112 -1.417,-1.023 -1.427,0.129c-0.013,1.502 -0.8,2.346 -2.346,2.516c-1.692,0.186 -3.55,-1.8 -3.55,-3.796c0,-0.699 -0.241,-1.27 -0.537,-1.27c-0.295,0 -0.536,0.362 -0.536,0.805c0,0.443 -0.333,0.805 -0.74,0.805c-0.406,0 -1.053,0.378 -1.436,0.839c-0.631,0.761 -0.74,0.761 -1.166,0c-0.258,-0.461 -1.024,-0.839 -1.701,-0.839c-0.678,0 -1.652,-0.463 -2.165,-1.03c-0.89,-0.983 -0.882,-1.059 0.165,-1.619c1.553,-0.831 0.867,-2.076 -1.467,-2.662c-6.152,-1.544 -10.989,-1.093 -12.893,1.202c-0.628,0.758 -2.752,1.289 -2.752,0.688c0,-0.111 0.353,-1.202 0.785,-2.425c0.873,-2.474 0.623,-3.819 -0.708,-3.809c-1.192,0.009 -5.595,5.116 -7.733,8.969c-2.193,3.951 -5.823,8.667 -6.703,8.707c-0.92,0.042 -0.847,-0.462 0.407,-2.801c0.593,-1.105 1.189,-2.881 1.325,-3.946c0.267,-2.084 1.502,-3.376 3.252,-3.404c0.656,-0.01 1.496,-0.713 2.103,-1.761c0.556,-0.96 1.568,-2.421 2.25,-3.247c0.681,-0.826 1.634,-2.335 2.118,-3.354c0.484,-1.02 1.053,-1.853 1.265,-1.853c0.49,0 0.614,-0.925 0.794,-5.905c0.08,-2.214 0.434,-5.213 0.786,-6.664c0.395,-1.627 0.446,-2.759 0.132,-2.952c-0.981,-0.607 -0.864,-1.064 0.693,-2.689c0.864,-0.902 1.443,-1.768 1.286,-1.925c-0.157,-0.157 0.111,-2.03 0.595,-4.162c0.674,-2.969 1.117,-3.922 1.895,-4.072c1.44,-0.277 2.934,-2.248 2.955,-3.898c0.01,-0.771 0.742,-2.314 1.628,-3.428c1.433,-1.803 1.849,-2.66 1.501,-3.087c-0.06,-0.074 0.273,-0.859 0.741,-1.744c0.468,-0.886 1.423,-2.924 2.123,-4.529c0.699,-1.604 1.935,-3.837 2.747,-4.96c0.812,-1.123 1.476,-2.37 1.476,-2.769c0,-0.4 0.484,-1.164 1.074,-1.698c0.59,-0.535 1.073,-1.211 1.073,-1.504c0,-0.293 0.846,-1.565 1.879,-2.826c1.033,-1.261 1.879,-2.413 1.879,-2.562c0,-0.148 1.219,-2.038 2.709,-4.201c2.766,-4.016 3.069,-5.577 1.413,-7.275c-0.868,-0.89 -7.166,0.57 -8.709,2.019c-0.615,0.578 -1.535,1.051 -2.045,1.051c-0.97,0 -4.104,2.078 -4.104,2.721c0,0.205 -1.974,2.439 -4.387,4.965c-4.132,4.326 -6.954,8.406 -8.792,12.711c-0.442,1.033 -1.035,2.241 -1.318,2.684c-0.653,1.018 -2.298,4.446 -2.362,4.92c-0.12,0.884 -0.956,1.15 -1.393,0.444c-1.224,-1.981 1.4,-9.09 6.371,-17.26c0.677,-1.113 0.975,-2.103 0.685,-2.282c-0.856,-0.529 -0.048,-2.352 1.183,-2.671c0.636,-0.165 1.759,-1.212 2.494,-2.327c0.735,-1.115 1.483,-2.147 1.661,-2.295c0.178,-0.148 1.63,-1.966 3.226,-4.04c1.595,-2.075 3.207,-4.128 3.582,-4.563c2.003,-2.326 2.808,-3.413 2.808,-3.792c0,-0.231 0.725,-1.215 1.61,-2.184c0.886,-0.97 1.61,-1.968 1.61,-2.219c0,-0.668 1.145,-1.646 2.765,-2.362c0.924,-0.408 1.656,-1.346 2.089,-2.677c0.367,-1.127 0.995,-2.526 1.396,-3.108c0.942,-1.369 0.921,-1.893 -0.076,-1.893c-0.443,0 -0.806,-0.138 -0.806,-0.307c0,-0.169 0.363,-0.669 0.806,-1.112c0.495,-0.495 0.805,-1.811 0.805,-3.419c0,-1.438 0.261,-2.775 0.58,-2.972c0.319,-0.198 0.438,-0.927 0.264,-1.621c-0.349,-1.387 1.136,-2.615 2.52,-2.084c0.936,0.36 2.234,-1.097 1.72,-1.929c-0.448,-0.724 -4.092,-0.175 -4.632,0.697c-0.238,0.385 -1.246,0.192 -3.053,-0.586c-1.483,-0.638 -3.169,-1.16 -3.746,-1.16c-1.38,0 -3.839,2.11 -2.909,2.496c0.941,0.39 0.28,1.261 -0.958,1.261c-0.75,0 -0.932,0.252 -0.678,0.94c0.191,0.516 0.533,1.066 0.76,1.221c0.227,0.156 0.199,0.63 -0.063,1.055c-0.367,0.594 -0.824,0.65 -1.985,0.243c-1.79,-0.627 -2.371,-2.693 -0.868,-3.083c0.75,-0.194 0.776,-0.265 0.118,-0.314c-1.555,-0.113 -2.592,-4.356 -1.065,-4.356c0.21,0 1.665,-0.957 3.234,-2.128c2.242,-1.672 3.06,-2.016 3.824,-1.608c0.651,0.349 1.424,0.314 2.344,-0.105c1.949,-0.888 1.892,-3.232 -0.104,-4.231c-0.811,-0.406 -1.89,-1.081 -2.397,-1.5c-0.507,-0.418 -1.412,-0.633 -2.011,-0.476c-0.982,0.257 -1.062,0.091 -0.808,-1.677c0.155,-1.08 0.342,-2.446 0.416,-3.036c0.074,-0.591 0.33,-1.386 0.568,-1.768c0.244,-0.391 0.158,-1.027 -0.197,-1.454c-0.511,-0.615 -0.361,-0.827 0.786,-1.115c2.13,-0.535 1.489,-1.976 -1.268,-2.85c-2.328,-0.738 -2.339,-0.753 -1.069,-1.457c0.706,-0.391 1.706,-0.72 2.223,-0.73c0.968,-0.02 1.363,-1.093 0.403,-1.093c-0.296,0 -0.537,-0.242 -0.537,-0.537c0,-0.295 0.966,-0.537 2.147,-0.537c1.57,0 2.147,-0.22 2.147,-0.822c0,-1.056 -1.002,-1.422 -4.16,-1.517c-3.44,-0.103 -3.375,-1.295 0.134,-2.451c4.591,-1.511 6.978,-2.901 6.978,-4.064c0,-1.485 -5.018,-2.313 -6.013,-0.992c-0.354,0.471 -1.019,0.712 -1.476,0.537c-1.218,-0.467 -1.015,0.585 0.243,1.258c1.125,0.602 1.486,2.147 0.501,2.147c-1.244,0 -2.72,-1.185 -2.428,-1.948c0.195,-0.507 0.081,-0.654 -0.315,-0.409c-0.987,0.61 -7.42,0.689 -7.42,0.091c0,-0.293 -0.362,-0.386 -0.805,-0.207c-0.443,0.179 -1.136,0.461 -1.541,0.625c-0.405,0.165 -1.155,-0.119 -1.666,-0.631c-0.752,-0.752 -1.124,-0.809 -1.941,-0.299c-0.556,0.347 -1.799,0.616 -2.762,0.597c-1.701,-0.033 -1.713,-0.05 -0.423,-0.565c0.868,-0.346 1.11,-0.665 0.699,-0.919c-0.413,-0.256 -0.458,-0.661 -0.129,-1.18c0.863,-1.365 0.574,-1.983 -1.355,-2.899c-2.022,-0.959 -3.568,-2.991 -2.276,-2.991c0.397,0 1.187,-0.341 1.757,-0.757c1.012,-0.74 1.013,-0.781 0.028,-1.869c-0.825,-0.911 -0.885,-1.259 -0.33,-1.927c0.528,-0.636 0.531,-0.815 0.017,-0.815c-0.372,0 -0.523,-0.359 -0.345,-0.821c0.227,-0.592 -0.137,-0.911 -1.304,-1.144c-1.982,-0.397 -2.978,-1.929 -1.858,-2.858c0.943,-0.782 4.311,0.157 5.004,1.396c0.261,0.467 0.807,0.646 1.343,0.44c0.497,-0.19 0.769,-0.562 0.606,-0.826c-0.163,-0.264 0.586,-1.001 1.664,-1.637c1.747,-1.031 1.927,-1.338 1.652,-2.819l-0.309,-1.661l1.062,1.265c1.25,1.489 2.471,1.221 3.203,-0.705c0.341,-0.896 0.786,-1.24 1.334,-1.029c0.591,0.227 0.83,-0.04 0.85,-0.95l0.028,-1.265l0.843,1.208c0.463,0.664 1.162,1.207 1.554,1.207c0.967,0 3.622,-2.515 3.037,-2.876c-0.257,-0.159 -3.349,-0.456 -6.87,-0.659c-4.588,-0.265 -6.968,-0.653 -8.395,-1.37c-1.095,-0.549 -2.303,-1.007 -2.684,-1.016c-0.38,-0.009 -1.9,-0.611 -3.376,-1.337c-2.915,-1.434 -6.254,-1.708 -8.687,-0.712c-1.049,0.43 -9.392,0.666 -27.276,0.772c-24.313,0.145 -31.674,0.54 -34.078,1.827c-0.501,0.268 -2.053,0.642 -3.449,0.831c-3.246,0.441 -4.749,-0.663 -4.308,-3.164c0.702,-3.986 2.852,-4.502 16.07,-3.853c3.838,0.189 7.727,0.578 8.642,0.866c2.266,0.712 33.999,0.683 38.057,-0.035c1.771,-0.313 5.636,-0.704 8.588,-0.868c4.636,-0.258 5.807,-0.14 8.588,0.865c7.567,2.732 12.406,3.235 17.735,1.841c1.76,-0.46 3.935,-0.7 4.834,-0.533c1.775,0.33 6.734,-0.922 8.741,-2.206c0.688,-0.44 1.534,-0.693 1.879,-0.561c0.345,0.131 1.197,0.027 1.893,-0.232c1.012,-0.376 1.198,-0.734 0.932,-1.794c-0.26,-1.037 -0.156,-1.256 0.48,-1.012c0.446,0.171 0.812,0.527 0.812,0.791c0,0.732 1.482,0.57 2.244,-0.245c0.717,-0.768 2.587,-0.568 2.587,0.277c0,0.275 1.164,0.447 2.587,0.382c1.422,-0.065 2.817,0.024 3.098,0.198c0.281,0.174 2.076,0.13 3.988,-0.097c1.913,-0.228 4.202,-0.199 5.088,0.063c8.528,2.526 18.517,3.298 20.727,1.603c2.204,-1.691 3.037,-1.758 4.156,-0.335c0.783,0.995 1.542,1.315 3.106,1.309c3.017,-0.012 3.58,-0.548 3.226,-3.073c-0.164,-1.178 -0.724,-3.033 -1.243,-4.122c-1.26,-2.641 -0.56,-3.801 2.292,-3.801l2.089,0l-0.194,4.965c-0.169,4.326 -0.08,4.965 0.688,4.965c0.485,0 1.015,-0.347 1.178,-0.772c0.163,-0.425 1.017,-0.931 1.899,-1.124c1.436,-0.316 1.586,-0.54 1.446,-2.162c-0.203,-2.36 2.022,-6.105 3.64,-6.126c1.646,-0.02 2.126,0.955 2.043,4.146c-0.08,3.041 0.498,3.619 1.475,1.476c0.336,-0.738 0.929,-1.342 1.318,-1.342c0.389,0 1.127,-0.664 1.641,-1.476c1.551,-2.45 3.06,-3.873 4.118,-3.882c0.792,-0.007 0.924,0.243 0.631,1.198c-0.204,0.664 -0.507,2.39 -0.675,3.835l-0.304,2.627l1.552,-0.375c0.853,-0.207 1.851,-0.767 2.217,-1.246c1.2,-1.57 1.363,-0.244 0.201,1.635c-1.523,2.464 -1.448,2.693 0.744,2.282c1.57,-0.295 2.106,-0.125 3.262,1.031c0.761,0.76 2.391,1.733 3.623,2.162c2.039,0.709 2.302,0.696 2.925,-0.139c0.377,-0.506 0.634,-1.792 0.571,-2.86c-0.128,-2.177 2.112,-6.549 3.825,-7.466c1.469,-0.786 3.239,-0.673 3.239,0.208c0,0.491 0.376,0.657 1.073,0.474c0.617,-0.161 1.074,-0.016 1.074,0.341c0,0.919 -2.251,3.798 -2.97,3.798c-0.962,0 -3.311,2.281 -3.709,3.603c-0.197,0.653 -0.081,1.705 0.257,2.338c0.51,0.953 0.908,1.086 2.311,0.774c0.933,-0.208 2.015,-0.395 2.406,-0.415c0.433,-0.023 0.603,-0.444 0.437,-1.081c-0.301,-1.151 1.733,-3.554 3.122,-3.689c0.456,-0.044 1.118,-0.105 1.471,-0.134c0.443,-0.037 0.596,0.896 0.497,3.032c-0.089,1.928 0.073,3.087 0.433,3.087c0.317,0 0.576,0.33 0.576,0.733c0,0.576 0.807,0.676 3.757,0.465c3.729,-0.267 3.758,-0.259 3.758,1.083c0,0.864 -0.504,1.683 -1.395,2.267l-1.395,0.913l1.197,0.838c1.07,0.75 1.461,0.754 3.68,0.044c1.366,-0.436 2.784,-0.694 3.15,-0.571c0.809,0.269 0.892,3.151 0.104,3.637c-0.605,0.374 -0.157,5.016 0.56,5.796c0.588,0.64 4.834,-0.75 4.834,-1.584c0,-1.082 1.981,-1.892 4.183,-1.709c1.678,0.139 1.971,0.347 1.87,1.329c-0.11,1.061 0.109,1.156 2.463,1.071c2.073,-0.075 2.976,-0.438 4.567,-1.835c1.091,-0.958 2.398,-1.734 2.904,-1.724c1.456,0.028 3.173,1.773 3.583,3.639c0.366,1.669 0.447,1.711 3.312,1.711c1.615,0 3.588,-0.328 4.386,-0.73c0.797,-0.401 2.536,-0.871 3.865,-1.045c4.392,-0.573 6.327,-1.715 6.973,-4.113c0.807,-2.999 3.35,-4.847 6.666,-4.847c2.816,0 3.956,0.468 5.916,2.428c1.541,1.54 3.082,1.705 4.131,0.441c0.405,-0.489 1.573,-1.238 2.596,-1.666c1.817,-0.759 1.893,-0.739 3.354,0.897c1.008,1.127 1.496,2.263 1.496,3.477c0,1.553 0.212,1.846 1.531,2.109c0.841,0.169 2.045,0.172 2.675,0.007c1.757,-0.459 3.861,0.23 3.508,1.15c-0.364,0.949 1.618,3.862 2.906,4.271c0.512,0.162 1.17,0.821 1.462,1.464c0.293,0.643 0.894,1.331 1.337,1.53c2.856,1.284 2.953,1.418 2.953,4.083c0,3.192 1.674,5.862 3.996,6.372c2.586,0.568 3.089,1.65 1.664,3.578l-1.218,1.647l1.092,1.092c0.952,0.952 2.167,1.157 9.484,1.606c7.164,0.44 8.525,0.399 9.301,-0.281c3.277,-2.87 8.865,-3.906 15.133,-2.807c3.759,0.66 4.738,1.041 5.561,2.165c0.548,0.751 1.877,1.845 2.952,2.433c1.075,0.588 2.679,1.487 3.564,1.998c3.997,2.308 10.09,3.617 20.666,4.439c10.435,0.812 15.925,1.492 19.592,2.426c1.771,0.452 4.196,1.004 5.387,1.228c1.192,0.224 2.492,0.608 2.89,0.853c0.397,0.246 3.287,0.624 6.421,0.839c7.214,0.496 9.725,1.544 9.725,4.057c0,1.622 0.134,1.739 2.381,2.076c1.309,0.196 11.635,0.062 22.947,-0.299c11.311,-0.361 24.31,-0.675 28.886,-0.699c9.869,-0.05 33.407,0.349 33.876,0.576c0.18,0.087 6.581,0.296 14.224,0.465c7.643,0.169 15.225,0.394 16.849,0.5c1.623,0.106 7.735,0.344 13.58,0.529c9.858,0.311 10.617,0.269 10.467,-0.587c-0.226,-1.29 2.279,-1.724 6.863,-1.189c2.041,0.238 9.388,0.702 16.325,1.031c17.025,0.807 19.381,1.028 20.258,1.905c0.414,0.414 1.521,0.765 2.459,0.778c0.939,0.014 6.537,0.267 12.442,0.561c5.904,0.294 11.46,0.544 12.345,0.554c1.513,0.019 8.081,0.594 14.762,1.294c1.623,0.17 5.906,0.449 9.516,0.62c5.761,0.273 6.606,0.204 6.902,-0.566c0.43,-1.122 1.268,-1.119 2.092,0.007c0.561,0.767 1.809,0.87 9.427,0.774c8.373,-0.105 8.82,-0.058 9.635,1.023c0.934,1.239 1.31,1.269 14.18,1.13c5.768,-0.062 6.47,-0.175 7.156,-1.154c0.721,-1.029 1.272,-1.081 10.513,-0.986c8.818,0.091 9.958,-0.003 11.899,-0.979c4.04,-2.03 17.262,-2.388 35.258,-0.955c6.921,0.551 10.467,0.633 11.441,0.262c2.098,-0.797 5.242,-0.651 7.221,0.337c1.257,0.626 2.508,0.783 4.436,0.555c2.465,-0.292 2.817,-0.187 4.274,1.269c1.526,1.526 1.769,1.586 6.248,1.536c4.72,-0.054 7.355,0.333 8.523,1.251c0.395,0.31 0.984,0.314 1.529,0.009c0.489,-0.274 2.007,-0.318 3.383,-0.098c1.373,0.22 5.581,0.699 9.351,1.065c5.988,0.581 6.971,0.563 7.783,-0.145c0.782,-0.683 1.818,-0.734 6.565,-0.324c3.1,0.267 6.844,0.489 8.32,0.494c1.476,0.004 4.254,0.466 6.173,1.026c1.919,0.561 5.421,1.257 7.783,1.546c5.443,0.669 8.967,1.351 9.875,1.912c0.391,0.242 1.784,1.436 3.095,2.653c2.789,2.587 3.618,2.892 8.066,2.964c3.635,0.058 4.508,0.665 3.136,2.181c-0.587,0.649 -0.697,1.107 -0.321,1.34c1.129,0.698 0.536,1.301 -1.441,1.465c-1.854,0.153 -2.071,0.349 -2.745,2.479c-0.67,2.12 -0.648,2.372 0.269,3.045c0.55,0.403 1.616,0.61 2.37,0.46c1.025,-0.205 1.827,0.154 3.187,1.424c1.304,1.218 1.627,1.814 1.144,2.112c-0.748,0.462 -3.25,0.134 -4.112,-0.54c-0.557,-0.436 -3.309,0.608 -2.943,1.117c0.106,0.147 -0.083,0.785 -0.421,1.416c-0.541,1.011 -0.44,1.217 0.848,1.722c0.805,0.316 4.54,0.689 8.301,0.829c3.76,0.141 7.081,0.406 7.38,0.591c0.912,0.564 0.607,1.346 -0.526,1.346c-1.29,0 -5.372,1.708 -5.372,2.248c0,0.211 -1.905,0.254 -4.234,0.096c-2.656,-0.18 -4.363,-0.079 -4.579,0.27c-0.56,0.907 5.108,2.116 11.766,2.509c1.771,0.105 5.394,0.321 8.051,0.48c2.657,0.159 7.971,0.447 11.809,0.641c6.904,0.348 6.994,0.369 8.454,1.981c0.812,0.897 1.476,2.074 1.476,2.615c0,1.362 2.97,3.042 6.119,3.462c1.527,0.204 3.076,0.798 3.696,1.418c1.731,1.73 4.712,2.214 21.948,3.566c6.777,0.531 12.531,1.18 12.786,1.441c1.074,1.1 1.058,3.173 -0.035,4.469c-1.066,1.264 -1.321,1.306 -7.322,1.192c-5.343,-0.102 -6.128,-0.01 -5.579,0.65c0.35,0.423 1.221,0.915 1.934,1.094c0.714,0.18 1.947,0.928 2.741,1.663l1.443,1.338l-1.837,0c-1.816,0 -1.835,0.024 -1.635,2.123c0.184,1.932 0.071,2.156 -1.25,2.488c-0.839,0.21 -2.785,-0.006 -4.608,-0.513c-1.736,-0.483 -3.836,-0.878 -4.667,-0.878c-1.465,0 -2.8,0.826 -2.8,1.731c0,0.617 2.544,1.542 5.077,1.846c2.584,0.31 2.771,0.417 3.128,1.783c0.264,1.01 0.027,1.082 -3.558,1.09c-4.73,0.01 -6.36,0.761 -2.973,1.37c1.294,0.232 2.909,0.36 3.589,0.285c0.681,-0.076 1.828,0.249 2.55,0.722c0.722,0.473 1.312,0.751 1.312,0.617c0,-0.134 0.785,0.004 1.745,0.305c0.959,0.302 3.675,0.879 6.034,1.282c3.647,0.624 4.491,0.974 5.636,2.34c0.74,0.884 2.011,1.766 2.823,1.96c0.811,0.194 1.476,0.548 1.476,0.788c0,0.542 -2.788,1.176 -5.635,1.28c-1.182,0.044 -2.707,0.391 -3.39,0.771c-0.683,0.38 -1.975,0.614 -2.873,0.52c-0.897,-0.094 -1.663,-0.05 -1.703,0.097c-0.098,0.369 1.801,3.072 3.268,4.653c1.784,1.921 1.509,2.256 -1.61,1.964c-6.389,-0.598 -6.876,-0.532 -8.188,1.113c-0.938,1.177 -1.553,1.48 -2.6,1.28c-0.82,-0.157 -1.976,0.136 -2.874,0.728c-1.854,1.222 -4.545,1.268 -7.877,0.132c-2.84,-0.967 -3.632,-0.702 -2.3,0.771c0.491,0.541 0.892,1.337 0.892,1.769c0,0.46 2.234,1.883 5.401,3.442c2.971,1.462 5.737,3.028 6.146,3.48c1.046,1.156 0.252,2.121 -2.054,2.495c-1.567,0.255 -2.742,-0.066 -5.861,-1.601c-4.38,-2.155 -18.464,-6.348 -21.346,-6.355c-1.033,-0.002 -2.926,0.138 -4.207,0.312c-1.82,0.247 -2.659,0.081 -3.84,-0.761c-1.717,-1.222 -5.869,-1.504 -5.971,-0.405c-0.123,1.339 0.166,2.829 0.645,3.328c1.078,1.12 0.331,1.436 -3.132,1.323c-3.793,-0.123 -4.214,-0.03 -3.847,0.852c0.429,1.031 6.25,5.635 7.125,5.635c0.485,0 0.882,0.233 0.882,0.517c0,0.284 1.025,1.502 2.277,2.705c1.877,1.803 2.137,2.281 1.477,2.709c-1.584,1.027 -3.13,1.12 -4.743,0.286c-2.117,-1.095 -2.033,-1.119 -2.688,0.761c-0.709,2.032 -2.07,2.076 -5.717,0.186c-8.057,-4.176 -7.742,-4.061 -8.638,-3.165c-0.458,0.458 -0.594,0.832 -0.303,0.832c0.488,0 4.379,4.899 4.379,5.513c0,0.831 -3.961,2.041 -5.527,1.688c-0.946,-0.214 -2.686,-0.458 -3.867,-0.542c-1.181,-0.085 -3.058,-0.317 -4.172,-0.515c-1.216,-0.216 -2.663,-0.095 -3.623,0.302c-1.302,0.54 -1.764,0.526 -2.486,-0.074c-0.488,-0.405 -0.944,-0.615 -1.014,-0.468c-0.184,0.393 -6.687,-3.345 -6.687,-3.844c0,-0.448 -4.395,-2.597 -5.309,-2.597c-0.296,0 -1.674,-0.604 -3.062,-1.342c-3.665,-1.948 -6.625,-1.829 -8.81,0.356c-1.234,1.234 -2.431,1.814 -4.385,2.123c-3.495,0.552 -4.541,1.352 -3.407,2.606c0.45,0.497 0.819,1.292 0.819,1.766c0,0.997 -1.696,0.853 -4.965,-0.421c-2.221,-0.866 -2.442,-0.762 -1.144,0.535c0.478,0.478 0.725,1.013 0.55,1.188c-0.487,0.487 -6.393,-2.228 -9.506,-4.369c-3.205,-2.205 -5.083,-2.525 -4.629,-0.789c0.207,0.792 0.081,1.035 -0.436,0.836c-0.4,-0.153 -1.651,-0.432 -2.779,-0.62c-1.128,-0.188 -3.259,-0.848 -4.735,-1.467c-1.986,-0.834 -4.068,-1.165 -8.01,-1.274c-2.93,-0.082 -6.013,-0.433 -6.852,-0.78c-0.999,-0.414 -3.601,-0.547 -7.531,-0.385c-3.302,0.136 -7.089,0.045 -8.415,-0.203c-1.517,-0.283 -2.612,-0.25 -2.951,0.09c-0.781,0.78 -3.657,0.663 -5.81,-0.237c-1.334,-0.557 -4.649,-0.822 -11.74,-0.939c-9.416,-0.155 -9.959,-0.108 -11.493,0.999c-1.199,0.866 -3.048,1.327 -7.246,1.81c-3.1,0.356 -6.635,0.98 -7.855,1.387c-1.22,0.407 -4.964,0.874 -8.32,1.037c-3.355,0.163 -6.705,0.411 -7.443,0.551c-0.738,0.14 -3.941,0.477 -7.118,0.749c-3.177,0.272 -5.956,0.605 -6.175,0.741c-2.307,1.426 -47.419,1.3 -66.149,-0.184c-3.395,-0.269 -8.347,-0.645 -11.004,-0.836c-6.615,-0.475 -8.566,-0.638 -12.614,-1.052l-3.489,-0.357l1.611,1.155l1.61,1.155l-4.174,-0.275c-2.606,-0.172 -4.054,-0.081 -3.854,0.241c0.175,0.284 0.544,0.378 0.819,0.208c0.275,-0.17 0.499,-0.093 0.499,0.17c0,0.268 -5.503,0.466 -12.479,0.45c-6.864,-0.016 -15.862,0.279 -19.995,0.656c-9.605,0.876 -19.295,1.483 -35.427,2.219c-14.704,0.672 -15.15,0.716 -18.787,1.884c-2.381,0.765 -7.553,0.853 -45.894,0.782c-59.31,-0.11 -70.454,-0.372 -86.419,-2.031c-2.805,-0.292 -7.153,-0.696 -9.662,-0.9c-2.51,-0.203 -4.708,-0.457 -4.887,-0.563c-0.641,-0.385 -13.663,-0.376 -14.879,0.01c-0.73,0.231 -1.132,0.69 -0.972,1.107c0.371,0.969 -0.764,1.319 -3.233,0.998c-1.712,-0.223 -9.725,-0.25 -20.849,-0.071c-1.181,0.019 -4.804,0.005 -8.052,-0.031c-3.247,-0.036 -6.689,0.044 -7.649,0.178c-1.952,0.272 -2.2,-0.077 -0.805,-1.136c0.856,-0.65 0.812,-0.715 -0.498,-0.73c-0.791,-0.009 -1.818,-0.397 -2.282,-0.861c-0.487,-0.487 -0.843,-0.587 -0.843,-0.236c0,0.333 -0.225,0.467 -0.5,0.298c-0.275,-0.17 -0.655,-0.057 -0.845,0.25c-0.59,0.954 -4.151,0.427 -4.434,-0.657c-0.138,-0.527 -0.593,-0.958 -1.01,-0.958c-0.418,0 -0.881,-0.316 -1.029,-0.701c-0.148,-0.386 -1.223,-0.758 -2.39,-0.827c-1.832,-0.108 -2.074,0.006 -1.781,0.836c0.486,1.374 2.391,3.376 3.213,3.376c0.916,0 2.527,2.475 2.081,3.197c-0.191,0.308 -0.68,0.56 -1.088,0.56c-1.452,0 -1.398,1.142 0.208,4.44c0.896,1.839 1.609,3.464 1.585,3.612c-0.024,0.147 0.575,1.374 1.33,2.727c0.791,1.416 1.35,3.237 1.319,4.294c-0.03,1.009 -0.154,1.541 -0.275,1.181c-0.361,-1.074 -5.788,-3.91 -9.531,-4.981l-3.495,-0.999l-0.604,1.127c-0.483,0.903 -0.431,1.254 0.261,1.76c0.954,0.698 0.637,1.41 -0.442,0.996c-0.381,-0.146 -1.179,0.581 -1.808,1.647c-1.024,1.736 -1.345,1.909 -3.528,1.909c-1.321,0 -2.552,0.243 -2.735,0.539c-0.408,0.661 -2.912,0.12 -4.067,-0.879c-2.305,-1.994 -3.4,-0.284 -3.229,5.043c0.084,2.608 -0.078,3.432 -0.723,3.679c-0.456,0.176 -0.729,0.484 -0.604,0.685c0.401,0.649 -2.093,0.405 -2.648,-0.26c-0.585,-0.7 -6.577,-2.912 -7.819,-2.886c-0.423,0.009 0.318,0.968 1.646,2.131c2.808,2.458 2.184,2.738 -1.643,0.736c-2.917,-1.524 -7.482,-2.355 -7.482,-1.361c0,0.323 0.504,0.857 1.12,1.187c1.617,0.865 0.989,1.121 -1.155,0.471c-1.014,-0.307 -3.511,-0.617 -5.549,-0.689c-3.132,-0.11 -3.992,0.064 -5.56,1.128c-1.788,1.214 -2.03,1.238 -6.874,0.698c-6.827,-0.761 -6.777,-0.766 -6.576,0.626c0.108,0.748 0.665,1.302 1.508,1.499c2.541,0.596 0.075,1.166 -3.422,0.791c-3.154,-0.338 -3.418,-0.283 -3.692,0.764c-0.162,0.621 -0.171,1.603 -0.019,2.184c0.237,0.905 0.597,1.011 2.536,0.745c2.056,-0.282 2.389,-0.156 3.699,1.401c0.967,1.149 1.44,2.334 1.44,3.605c0,1.878 -0.017,1.892 -2.013,1.63c-1.107,-0.145 -2.556,-0.44 -3.22,-0.655c-1.04,-0.338 -1.208,-0.201 -1.208,0.977c0,0.754 -0.24,2.002 -0.534,2.774c-0.293,0.772 -0.622,5.029 -0.73,9.461c-0.111,4.55 -0.438,8.298 -0.751,8.611c-0.931,0.931 -2.496,0.259 -3.047,-1.308c-0.357,-1.015 -0.318,-2.245 0.123,-3.894c0.355,-1.326 0.645,-3.362 0.645,-4.524c0,-2.624 -1.016,-7.574 -1.739,-8.472c-0.297,-0.37 -0.329,-0.675 -0.072,-0.68c0.258,-0.005 0.141,-0.215 -0.259,-0.469c-0.601,-0.381 -0.572,-0.699 0.169,-1.829c0.553,-0.845 0.832,-2.156 0.727,-3.423c-0.156,-1.902 -0.281,-2.042 -1.688,-1.892c-1.139,0.121 -1.589,-0.104 -1.796,-0.896c-0.152,-0.581 -0.928,-1.326 -1.724,-1.656c-2.079,-0.861 -5.339,0.568 -6.141,2.69c-0.328,0.869 -0.965,1.589 -1.417,1.601c-0.455,0.011 -0.139,0.391 0.705,0.849c1.294,0.701 6.256,5.409 6.256,5.935c0,0.652 -3.403,-0.061 -5.593,-1.172c-3.079,-1.562 -5.704,-1.858 -4.591,-0.518c0.94,1.134 -0.714,2.356 -3.235,2.39c-1.033,0.014 -2.228,0.247 -2.656,0.517c-0.5,0.316 -1.432,0.218 -2.615,-0.277c-1.984,-0.829 -3.497,-1.049 -2.455,-0.357c0.326,0.217 0.76,1.3 0.963,2.407c0.227,1.234 0.673,2.013 1.151,2.013c0.43,0 0.781,0.483 0.781,1.074c0,0.596 0.358,1.073 0.805,1.073c0.443,0 0.805,0.362 0.805,0.805c0,0.496 -0.503,0.805 -1.308,0.805c-1.026,0 -1.633,0.604 -2.818,2.803c-0.83,1.542 -2.334,3.356 -3.342,4.031c-1.007,0.676 -2.094,1.751 -2.415,2.389c-0.703,1.398 -1.279,1.592 -2.849,0.963l0,0.001Zm-5.615,-13.852c0.114,-0.774 -0.111,-1.165 -0.67,-1.165c-0.549,0 -0.843,0.484 -0.843,1.386c0,1.682 1.261,1.498 1.513,-0.221Zm12.32,-7.17c-0.332,-0.996 -1.487,-1.161 -1.487,-0.213c0,0.468 0.382,0.85 0.85,0.85c0.467,0 0.754,-0.287 0.637,-0.637Zm-23.354,-13.207c-0.07,-0.652 0.083,-1.186 0.34,-1.186c0.64,0 1.062,-2.46 0.562,-3.27c-0.311,-0.504 -0.854,-0.444 -2.326,0.254c-1.551,0.736 -1.825,1.088 -1.424,1.83c0.272,0.505 0.639,1.598 0.815,2.43c0.396,1.871 2.235,1.819 2.033,-0.058l0,0Zm83.829,-5.96c0.339,-0.55 -0.906,-1.13 -2.425,-1.13c-0.566,0 -1.029,0.362 -1.029,0.805c0,0.888 2.935,1.164 3.454,0.325Zm9.965,-3.073c0,-0.183 -0.665,-1.379 -1.476,-2.658c-1.4,-2.204 -2.66,-3.251 -3.23,-2.681c-0.533,0.533 0.459,2.027 1.531,2.308c0.768,0.2 1.033,0.602 0.852,1.292c-0.152,0.585 0.108,1.217 0.628,1.52c1.037,0.605 1.695,0.69 1.695,0.219Zm141.17,-29.401c0,-0.116 -0.362,-0.35 -0.805,-0.519c-0.443,-0.17 -0.805,-0.075 -0.805,0.211c0,0.285 0.362,0.519 0.805,0.519c0.443,0 0.805,-0.094 0.805,-0.211Zm3.885,-0.168c-0.667,-0.129 -1.634,-0.124 -2.147,0.011c-0.513,0.134 0.033,0.239 1.214,0.233c1.181,-0.006 1.601,-0.116 0.933,-0.244l0,0Zm196.33,-0.14c0,-0.286 -0.363,-0.381 -0.805,-0.211c-0.443,0.169 -0.806,0.403 -0.806,0.519c0,0.117 0.363,0.211 0.806,0.211c0.442,0 0.805,-0.234 0.805,-0.519Zm-203.294,-0.395c-0.66,-0.128 -1.868,-0.131 -2.684,-0.007c-0.816,0.123 -0.276,0.227 1.2,0.231c1.477,0.004 2.144,-0.096 1.484,-0.224l0,0Zm-100.132,-1.584c0.357,-1.07 -3.167,-2.007 -6.98,-1.855c-1.306,0.052 -1.425,0.19 -0.938,1.099c0.794,1.484 7.463,2.121 7.918,0.756Zm501.156,-109.798c-0.144,-0.234 -0.746,-0.425 -1.336,-0.425c-0.591,0 -0.934,0.226 -0.763,0.503c0.171,0.276 0.772,0.467 1.336,0.425c0.565,-0.043 0.908,-0.269 0.763,-0.503Zm-19.203,-2.879c5.565,-1.617 2.413,-2.184 -3.406,-0.612c-1.255,0.339 -2.282,0.805 -2.282,1.036c0,0.676 2.563,0.485 5.688,-0.424Zm-471.477,-2.825c0.315,-0.315 0.312,-0.623 -0.01,-0.82c-0.717,-0.443 -7.635,0.258 -7.635,0.773c0,0.958 6.688,1 7.641,0.047l0.004,0Zm15.44,-1.162c0,-0.295 -0.966,-0.537 -2.147,-0.537c-1.181,0 -2.147,0.242 -2.147,0.537c0,0.295 0.966,0.537 2.147,0.537c1.181,0 2.147,-0.242 2.147,-0.537Zm-1.85,-2.638c-0.167,-0.27 -1.985,-1.151 -4.042,-1.957c-3.078,-1.208 -3.883,-1.347 -4.559,-0.786c-1.987,1.649 -0.793,2.502 4.01,2.864c1.329,0.1 2.973,0.224 3.655,0.276c0.682,0.051 1.103,-0.127 0.936,-0.397Zm-19.711,-0.618c1.008,-0.04 -4.561,-1.67 -5.814,-1.702c-2.796,-0.071 -3.757,0.186 -3.757,1.007c0,0.749 0.475,0.836 3.22,0.587c1.846,-0.167 3.358,-0.069 3.543,0.231c0.178,0.287 0.681,0.385 1.118,0.217c0.437,-0.168 1.198,-0.321 1.69,-0.34Zm39.275,0.067c0,-0.278 -0.242,-0.655 -0.537,-0.837c-0.295,-0.182 -0.537,-0.796 -0.537,-1.363c0,-1.121 2.159,-1.977 3.264,-1.294c0.353,0.218 1.605,0.478 2.783,0.578c1.177,0.1 2.426,0.419 2.775,0.709c0.979,0.812 21.403,2.484 21.64,1.771c0.128,-0.382 1.615,-0.492 4.324,-0.322c3.808,0.241 4.049,0.196 3.091,-0.578c-1.247,-1.006 -1.476,-2.776 -0.468,-3.613c0.838,-0.695 7.727,-0.277 10.062,0.61c0.795,0.303 4.237,0.55 7.649,0.55c5.453,0 6.122,-0.098 5.535,-0.805c-0.368,-0.443 -1.108,-0.806 -1.644,-0.806c-0.537,0 -1.143,-0.269 -1.346,-0.598c-0.216,-0.35 -1.192,-0.488 -2.351,-0.332c-1.15,0.154 -2.529,-0.037 -3.286,-0.456c-0.717,-0.398 -2.458,-0.731 -3.87,-0.742c-1.411,-0.01 -3.948,-0.464 -5.636,-1.008c-3.859,-1.244 -17.067,-1.59 -21.114,-0.553c-2.233,0.572 -3.024,0.547 -5.178,-0.165c-1.398,-0.462 -3.629,-0.781 -4.958,-0.708c-1.445,0.079 -3.397,-0.28 -4.86,-0.894c-2.42,-1.016 -2.468,-1.016 -4.831,0.056c-3.045,1.382 -4.559,1.375 -8.65,-0.041c-2.763,-0.956 -3.598,-1.046 -5.006,-0.537c-2.396,0.866 -4.124,0.761 -6.873,-0.417c-2.566,-1.1 -4.128,-2.832 -4.141,-4.594c-0.022,-2.902 -0.461,-2.977 -13.396,-2.262c-7.345,0.405 -9.244,0.729 -7.634,1.302c0.386,0.138 1.281,0.829 1.989,1.537c1.596,1.597 2.115,1.596 4.922,-0.009c2.937,-1.679 3.442,-1.07 0.92,1.11c-1.928,1.666 -1.966,1.767 -1.141,3.026c0.514,0.783 1.563,1.419 2.636,1.596c0.98,0.162 3.391,1.042 5.358,1.955c1.966,0.914 3.964,1.661 4.438,1.661c0.967,0 5.363,2.168 8.634,4.259c1.186,0.757 2.636,1.665 3.221,2.016c1.29,0.775 14.216,0.954 14.216,0.198l0,0Zm-5.596,-4.196c-0.789,-0.789 -0.124,-1.204 1.928,-1.204c1.23,0 2.108,0.129 1.951,0.285c-0.512,0.513 -3.563,1.235 -3.879,0.919Zm-44.029,-12.424c0.281,-0.266 0.993,-0.608 1.584,-0.76c0.59,-0.152 -0.115,-0.236 -1.569,-0.186c-1.568,0.053 -2.731,0.362 -2.862,0.76c-0.257,0.781 2.062,0.933 2.847,0.186Zm-7.628,-10.88c0.669,-1.061 0.102,-2.591 -0.96,-2.591c-0.446,0 -0.96,0.59 -1.141,1.311c-0.581,2.318 0.883,3.21 2.101,1.28Zm-1.214,-6.724c0.733,-1.93 0.431,-1.975 -1.641,-0.245c-1.081,0.902 -1.645,1.757 -1.41,2.137c0.578,0.935 2.407,-0.199 3.051,-1.892Zm-195.693,-0.161c-0.183,-0.295 -0.861,-0.533 -1.508,-0.529c-0.956,0.007 -1.026,0.106 -0.371,0.529c1.057,0.683 2.301,0.683 1.879,0Zm3.489,-11.342c2.71,-1.643 3.66,-3.38 1.668,-3.05c-0.559,0.092 -1.516,-0.284 -2.126,-0.836c-0.916,-0.827 -1.561,-0.934 -3.681,-0.609c-2.195,0.337 -2.394,0.462 -1.363,0.852c1.253,0.475 1.387,0.837 1.224,3.31c-0.08,1.216 0.123,1.476 1.151,1.474c0.686,-0.001 2.093,-0.514 3.127,-1.141Zm38.008,-5.089l-0.166,-2.624l-5.1,-0.584c-5.752,-0.658 -6.43,-0.564 -6.062,0.843c0.191,0.729 0.969,1.093 2.907,1.36c1.456,0.2 3.042,0.763 3.526,1.251c1.85,1.866 4.152,3.289 4.599,2.842c0.255,-0.255 0.388,-1.644 0.296,-3.088Zm-13.854,-3.399c0,-0.715 -2.209,-2.178 -3.289,-2.178c-0.772,0 -0.813,0.196 -0.284,1.338c0.441,0.949 1.05,1.339 2.097,1.342c0.812,0.002 1.476,-0.224 1.476,-0.502Zm-31.401,-0.567c-0.182,-0.296 -0.74,-0.533 -1.239,-0.529c-0.782,0.007 -0.797,0.08 -0.103,0.529c1.051,0.679 1.762,0.679 1.342,0Zm71.763,241.814c0.144,-0.295 -0.182,-0.959 -0.726,-1.476c-0.544,-0.517 -0.989,-0.692 -0.989,-0.39c0,0.302 -0.603,0.153 -1.341,-0.33c-0.738,-0.484 -1.342,-0.627 -1.342,-0.317c0,0.309 -0.544,0.732 -1.208,0.939c-0.664,0.207 -1.357,0.609 -1.54,0.893c-0.19,0.295 -1.221,-0.038 -2.415,-0.783c-1.146,-0.714 -2.506,-1.454 -3.023,-1.645c-0.517,-0.19 -0.939,-0.716 -0.939,-1.168c0,-0.452 -0.242,-0.822 -0.537,-0.822c-0.295,0 -0.537,-0.256 -0.537,-0.569c0,-0.312 0.208,-0.44 0.461,-0.283c0.403,0.249 0.433,-0.959 0.066,-2.637c-0.25,-1.144 0.071,-1.793 1.782,-3.607c1.458,-1.547 2.293,-1.944 4.721,-2.247c3.087,-0.386 5.871,0.482 6.216,1.936c1.074,4.531 1.171,6.539 0.344,7.144c-0.745,0.545 -0.621,0.683 0.89,0.985c1.648,0.329 1.736,0.459 1.412,2.079c-0.19,0.95 -0.618,1.977 -0.951,2.281c-0.373,0.342 -0.505,0.348 -0.343,0.017l-0.001,0Zm-40.899,-2.199c0,-0.956 1.17,-4.758 2.843,-9.236c0.705,-1.889 1.303,-2.755 1.777,-2.573c0.392,0.15 0.88,0.006 1.082,-0.323c0.239,-0.386 0.121,-0.443 -0.334,-0.162c-0.455,0.282 -0.573,0.224 -0.334,-0.162c0.367,-0.594 1.958,-0.302 1.929,0.354c-0.01,0.19 -0.485,2.036 -1.058,4.102c-0.573,2.067 -1.049,4.275 -1.058,4.906c-0.021,1.553 -1.574,3.228 -3.37,3.636c-1.146,0.26 -1.477,0.139 -1.477,-0.542Zm1.342,-0.753c-0.182,-0.295 -0.438,-0.537 -0.568,-0.537c-0.13,0 -0.237,0.242 -0.237,0.537c0,0.295 0.256,0.537 0.569,0.537c0.312,0 0.419,-0.242 0.236,-0.537Zm17.302,-10.351c0.365,-3.127 0.704,-4.19 1.233,-3.864c0.286,0.177 0.521,0.066 0.521,-0.246c0,-0.313 -0.34,-0.569 -0.755,-0.569c-0.513,0 -0.656,-0.377 -0.447,-1.179c0.294,-1.125 0.327,-1.131 0.717,-0.134c0.294,0.752 0.439,0.819 0.515,0.24c0.058,-0.443 0.308,0.761 0.556,2.676c0.468,3.623 0.214,4.382 -1.557,4.652c-0.816,0.125 -0.951,-0.146 -0.783,-1.576Zm-96.184,-6.789c-0.397,-0.642 0.613,-1.278 1.328,-0.836c0.6,0.371 0.206,1.336 -0.546,1.336c-0.26,0 -0.612,-0.225 -0.782,-0.5Zm42.114,-4.81c0,-0.264 0.382,-0.626 0.849,-0.805c1.313,-0.504 1.486,-0.395 0.761,0.479c-0.741,0.892 -1.61,1.068 -1.61,0.326Zm16.103,-1.936c0.367,-0.443 0.789,-0.806 0.936,-0.806c0.148,0 -0.032,0.363 -0.4,0.806c-0.367,0.442 -0.789,0.805 -0.936,0.805c-0.148,0 0.032,-0.363 0.4,-0.805Zm-11.01,-0.814c-0.289,-0.469 -0.52,-1.397 -1,-4.017c-0.054,-0.296 -0.286,-0.839 -0.517,-1.208c-0.274,-0.439 -0.084,-0.693 0.552,-0.734c6.381,-0.417 6.838,-0.408 5.932,0.114c-0.519,0.299 -1.178,0.399 -1.465,0.222c-0.287,-0.178 -1.025,-0.053 -1.641,0.276c-0.818,0.438 -0.969,0.781 -0.561,1.273c0.39,0.469 0.377,0.855 -0.043,1.274c-0.443,0.444 -0.3,0.523 0.55,0.3c1.308,-0.342 1.35,-0.232 0.627,1.668c-0.529,1.394 -1.815,1.833 -2.434,0.832l0,0Zm603.748,-5.147c0.178,-0.178 0.641,-0.197 1.029,-0.042c0.428,0.171 0.301,0.298 -0.325,0.324c-0.565,0.023 -0.882,-0.104 -0.704,-0.282l0,0Zm-688.546,-1.277c-0.186,-0.3 0.04,-0.545 0.5,-0.545c0.942,0 1.081,0.322 0.337,0.782c-0.275,0.17 -0.652,0.063 -0.837,-0.237Zm302.27,-5.645c-0.17,-0.443 -0.075,-0.805 0.211,-0.805c0.286,0 0.519,0.362 0.519,0.805c0,0.443 -0.095,0.805 -0.21,0.805c-0.117,0 -0.35,-0.362 -0.52,-0.805Zm-210.269,-1.202c-1.154,-3.036 0.488,-6.342 3.413,-6.873c1.183,-0.214 1.391,-0.014 1.7,1.634c0.211,1.125 0.666,1.879 1.134,1.879c1.102,0 1.019,0.183 -1.186,2.64c-2.384,2.655 -4.225,2.917 -5.061,0.72Zm-92.049,-1.819c-0.462,-0.747 0.432,-1.85 2.893,-3.569c2.924,-2.044 10.265,-5.701 10.657,-5.309c0.396,0.395 -0.844,2.506 -1.472,2.506c-0.298,0 -1.703,1.087 -3.123,2.415c-1.421,1.329 -2.827,2.416 -3.126,2.416c-0.298,0 -1.141,0.471 -1.873,1.046c-1.273,1.002 -3.473,1.277 -3.956,0.495Zm17.605,-2.164c0.115,-0.342 0.999,-1.047 1.967,-1.566c0.967,-0.518 2.162,-1.276 2.655,-1.684c1.223,-1.011 6.273,-3.642 6.991,-3.642c1.459,0 -0.313,1.558 -4.5,3.958c-2.511,1.439 -4.696,2.828 -4.856,3.086c-0.436,0.706 -2.496,0.567 -2.257,-0.152Zm282.76,-13.309c0,-0.281 0.89,-0.398 1.977,-0.259c2.777,0.356 2.917,0.771 0.259,0.771c-1.23,0 -2.236,-0.23 -2.236,-0.512Zm-339.417,-0.382c-0.197,-0.197 -0.358,-1.006 -0.358,-1.798c0,-1.264 0.401,-1.598 3.269,-2.729c1.798,-0.708 3.497,-1.711 3.776,-2.228c0.279,-0.516 1.119,-0.939 1.866,-0.939c1.714,0 2.583,-0.471 6.94,-3.77c3.299,-2.497 5.694,-3.317 6.391,-2.189c0.661,1.069 -0.47,3.869 -2.309,5.715c-2.333,2.343 -5.565,4.094 -8.077,4.377c-1.007,0.113 -3.325,1.041 -5.15,2.062c-3.122,1.746 -5.532,2.315 -6.348,1.499Zm645.52,-4.261c0.179,-0.178 0.642,-0.197 1.029,-0.042c0.428,0.171 0.301,0.298 -0.324,0.324c-0.566,0.024 -0.883,-0.103 -0.705,-0.282l0,0Zm-607.667,-2.412c0.242,-0.742 4.65,-2.505 6.475,-2.588c2.867,-0.131 -1.218,2.448 -4.796,3.029c-1.501,0.244 -1.87,0.147 -1.679,-0.441Zm42.504,-4.495c-0.438,-1.143 -0.18,-1.34 2.275,-1.739l2.071,-0.336l-0.858,1.299c-1.032,1.561 -3.017,2.003 -3.488,0.776Zm-2.347,-5.607c0,-0.455 3.251,-2.728 3.902,-2.728c0.158,0 -0.391,0.725 -1.218,1.611c-1.48,1.584 -2.684,2.085 -2.684,1.117Zm-60.481,-22.204c-0.155,-0.251 -0.197,-0.52 -0.093,-0.598c2.92,-2.21 5.824,-2.672 5.824,-0.925c0,1.654 -4.853,2.943 -5.73,1.523l-0.001,0Zm51.893,-33.061c0,-0.555 0.383,-1.326 0.851,-1.715c0.468,-0.388 1.368,-1.804 1.999,-3.147c1.496,-3.183 6.463,-8.083 9.507,-9.378c1.322,-0.563 3.853,-1.676 5.625,-2.474c1.771,-0.799 4.788,-1.625 6.704,-1.837c1.916,-0.211 3.771,-0.623 4.123,-0.915c0.61,-0.506 6.472,-1.604 9.285,-1.739c0.939,-0.045 1.528,0.353 2.017,1.359c1.34,2.76 -0.257,3.844 -8.173,5.551c-7.157,1.543 -10.339,2.767 -12.488,4.804c-1.103,1.046 -2.231,1.903 -2.507,1.905c-0.277,0.002 -1.624,0.951 -2.995,2.107c-1.37,1.155 -3.4,2.48 -4.511,2.944c-1.11,0.464 -2.74,1.451 -3.622,2.193c-2.044,1.72 -5.815,1.941 -5.815,0.342Zm16.775,-20.331c-2.447,-0.419 -1.956,-4.88 0.555,-5.038c5.499,-0.347 8.877,1.342 5.348,2.674c-0.811,0.307 -2.2,1.011 -3.086,1.564c-0.886,0.554 -2.153,0.913 -2.817,0.8Zm6.431,-10.331c0.368,-0.59 1.132,-1.073 1.698,-1.073c0.993,0 0.995,0.035 0.056,1.073c-0.535,0.59 -1.299,1.074 -1.698,1.074c-0.593,0 -0.603,-0.199 -0.056,-1.074Zm-6.566,-3.238c0,-0.882 2.173,-1.448 4.535,-1.183c2.563,0.288 2.961,0.545 1.89,1.221c-1.082,0.685 -6.425,0.653 -6.425,-0.038l0,0Zm23.698,-5.674c-0.399,-0.451 -0.588,-0.958 -0.42,-1.126c0.414,-0.414 3.56,0.924 3.56,1.515c0,0.782 -2.363,0.49 -3.14,-0.389Zm13.296,0.004c-0.621,-0.748 -0.549,-0.833 0.563,-0.671c0.701,0.102 1.374,0.487 1.495,0.856c0.318,0.966 -1.217,0.828 -2.058,-0.185Zm-26.817,-7.489c-1.127,-1.358 0.639,-4.413 3.113,-5.385c2.331,-0.916 2.569,-1.051 5.489,-3.131c1.653,-1.177 2.348,-1.411 2.812,-0.946c0.464,0.464 0.305,0.948 -0.646,1.96c-1.083,1.154 -1.175,1.534 -0.651,2.685c0.868,1.905 0.438,2.502 -3.014,4.19c-3.386,1.657 -6.053,1.892 -7.103,0.627Zm-55.515,-2.895c-0.138,-0.224 0.345,-0.726 1.073,-1.115c0.728,-0.39 1.323,-0.876 1.323,-1.08c0,-0.205 0.556,-0.266 1.236,-0.136c0.68,0.13 2.67,-0.248 4.423,-0.84c1.753,-0.591 3.291,-0.973 3.417,-0.847c0.301,0.302 0.255,0.327 -3.171,1.769c-3.93,1.653 -7.989,2.753 -8.301,2.249Zm825.621,-2c-0.618,-0.618 -0.391,-1.253 0.447,-1.253c0.443,0 0.805,0.363 0.805,0.806c0,0.838 -0.635,1.065 -1.252,0.447Zm-834.497,-1.489c0,-0.13 0.242,-0.386 0.537,-0.569c0.295,-0.182 0.537,-0.076 0.537,0.237c0,0.313 -0.242,0.568 -0.537,0.568c-0.295,0 -0.537,-0.106 -0.537,-0.236Zm-9.29,-6.043c-1.468,-0.382 -0.852,-1.907 0.968,-2.393c0.894,-0.239 2.443,-0.198 3.489,0.092c1.034,0.288 3.451,0.528 5.37,0.534c3.556,0.012 5.222,0.537 4.648,1.467c-0.321,0.519 -12.651,0.775 -14.475,0.3Zm37.497,-5.469c0.812,-0.759 2.926,-1.258 2.926,-0.691c0,0.586 -1.278,1.167 -2.567,1.167c-0.531,0 -0.67,-0.185 -0.359,-0.476Zm4.321,-1.588c1.004,-1.172 3.972,-1.635 3.972,-0.62c0,0.296 -0.181,0.568 -0.402,0.606c-0.222,0.037 -0.886,0.132 -1.476,0.209c-0.591,0.078 -1.526,0.326 -2.079,0.551c-0.977,0.399 -0.978,0.379 -0.015,-0.746l0,0Zm354.772,-6.71c-0.817,-0.598 -0.858,-0.805 -0.237,-1.193c0.991,-0.617 2.68,-0.864 3.573,-0.522c0.544,0.209 0.576,0.534 0.136,1.356c-0.669,1.251 -2.055,1.394 -3.472,0.359Zm-309.603,-0.721c-0.516,-0.135 -0.939,-0.478 -0.939,-0.762c0,-0.311 0.427,-0.288 1.074,0.059c0.59,0.316 1.073,0.686 1.073,0.824c0,0.137 -0.06,0.221 -0.134,0.187c-0.074,-0.034 -0.557,-0.173 -1.074,-0.308l0,0Zm-20.531,-4.411c-2.31,-0.274 -2.709,-0.496 -2.865,-1.599c-0.41,-2.899 2.936,-2.94 5.972,-0.074c2.531,2.388 2.601,2.35 -3.107,1.673l0,0Zm314.547,0.136c-0.591,-0.125 -1.617,-0.343 -2.282,-0.485c-0.853,-0.182 -1.207,-0.643 -1.207,-1.571c0,-1.59 1.385,-2.424 4.025,-2.424c3.775,0 5.355,2.229 2.833,3.996c-1.212,0.849 -1.468,0.886 -3.369,0.484Zm-291.466,-1.259c0.183,-0.295 0.921,-0.537 1.642,-0.537c0.721,0 1.31,0.242 1.31,0.537c0,0.295 -0.739,0.537 -1.642,0.537c-0.958,0 -1.503,-0.224 -1.31,-0.537Zm279.416,-10.971c-0.522,-0.628 -0.34,-0.927 0.981,-1.61c1.728,-0.894 3.606,-1.098 3.996,-0.436c0.13,0.222 0.032,0.946 -0.219,1.61c-0.351,0.928 -0.882,1.208 -2.287,1.208c-1.007,0 -2.119,-0.347 -2.471,-0.772Zm-6.724,-0.949c-0.582,-0.338 -1.911,-0.799 -2.952,-1.025c-1.041,-0.226 -3.221,-0.882 -4.844,-1.458c-1.624,-0.576 -4.213,-1.175 -5.753,-1.331c-1.541,-0.157 -3.03,-0.426 -3.311,-0.6c-0.939,-0.58 -18.011,-0.706 -20.551,-0.152c-4.272,0.933 -7.113,-1.174 -6.543,-4.851c0.156,-1.007 -0.06,-1.208 -1.3,-1.208c-0.818,0 -2.052,-0.395 -2.742,-0.878c-1.083,-0.759 -1.218,-1.206 -0.985,-3.275c0.165,-1.46 -0.01,-2.934 -0.445,-3.775c-0.501,-0.964 -0.556,-1.677 -0.184,-2.371c0.483,-0.903 0.346,-0.968 -1.506,-0.72c-1.121,0.15 -3.245,0.386 -4.721,0.523c-1.476,0.137 -4.081,0.416 -5.789,0.619c-2.665,0.317 -3.209,0.229 -3.832,-0.624c-0.842,-1.152 -0.627,-2.004 1.09,-4.33l1.242,-1.681l-2.303,-0.644c-2.729,-0.765 -6.987,-0.129 -10.16,1.517c-1.449,0.751 -2.458,0.938 -3.489,0.644c-0.798,-0.228 -4.033,-0.355 -7.188,-0.284c-6.082,0.138 -6.44,0.266 -10.809,3.84c-1.672,1.367 -3.852,1.584 -6.012,0.6c-1.091,-0.497 -1.638,-0.497 -2.434,0c-0.564,0.352 -1.387,0.641 -1.827,0.641c-0.66,0 -0.693,-0.237 -0.19,-1.342c0.397,-0.87 1.049,-1.342 1.857,-1.342c0.916,0 1.339,-0.391 1.596,-1.476c0.744,-3.13 1.95,-3.691 8.769,-4.076c1.962,-0.111 3.552,-0.462 3.668,-0.811c0.113,-0.338 0.54,-0.615 0.949,-0.615c0.44,0 0.617,0.328 0.434,0.805c-0.46,1.199 1.578,1.022 3.101,-0.268c1.173,-0.993 1.197,-1.116 0.328,-1.637c-1.238,-0.743 -1.193,-1.947 0.099,-2.638c1.305,-0.699 5.77,-0.729 6.194,-0.043c0.174,0.283 0.681,0.374 1.125,0.203c0.445,-0.17 1.826,0.058 3.07,0.507c3.987,1.44 7.297,2.02 9.504,1.667c1.904,-0.304 2.15,-0.512 2.15,-1.819c0,-0.812 -0.386,-1.797 -0.857,-2.188c-0.783,-0.65 -0.781,-0.738 0.031,-1.023c0.488,-0.171 2.988,-0.086 5.554,0.189c3.338,0.358 5.563,0.315 7.82,-0.151c2.937,-0.607 8.953,-0.498 15.23,0.276c2.13,0.263 2.281,0.196 2.281,-1.01c0,-0.711 0.484,-1.73 1.075,-2.265c0.937,-0.848 2.163,-0.979 9.528,-1.022c8.643,-0.051 10.341,-0.355 9.258,-1.66c-0.432,-0.52 -1.786,-0.649 -5.082,-0.483c-4.342,0.218 -4.531,0.177 -5.611,-1.194c-1.494,-1.901 -1.411,-2.988 0.494,-6.459c0.886,-1.614 1.61,-3.119 1.61,-3.345c0,-0.226 -0.703,-0.307 -1.562,-0.181c-0.859,0.126 -1.967,0.002 -2.463,-0.276c-0.737,-0.412 -0.329,-0.776 2.222,-1.984c2.451,-1.161 3.328,-1.353 4.067,-0.891c1.465,0.915 3.377,0.696 4.469,-0.51c1.538,-1.7 3.909,-2.528 8.279,-2.892c2.263,-0.188 4.586,-0.712 5.335,-1.202c0.738,-0.484 2.891,-0.977 4.849,-1.11c3.378,-0.231 4.574,0.041 7.429,1.686c1.012,0.583 2.032,0.58 5.904,-0.019c4.993,-0.772 9.498,-1.93 12.318,-3.165c2.695,-1.181 8.751,-2.454 11.418,-2.4c1.329,0.026 3.503,0.071 4.831,0.098c1.329,0.027 5.073,-0.464 8.32,-1.091c3.248,-0.627 7.233,-1.149 8.857,-1.159c1.624,-0.011 3.918,-0.236 5.099,-0.5c1.181,-0.264 3.838,-0.633 5.905,-0.82c5.584,-0.506 7.31,-0.838 8.546,-1.643c2.844,-1.855 9.01,-2.138 11.227,-0.516c0.816,0.596 0.901,1.08 0.524,2.986c-0.623,3.148 -2.434,3.757 -9.323,3.132c-5.003,-0.454 -6.407,-0.355 -18.489,1.304c-3.247,0.445 -7.399,0.955 -9.225,1.133c-1.826,0.177 -4.363,0.706 -5.636,1.175c-1.473,0.543 -4.854,0.95 -9.294,1.118c-4.579,0.173 -7.38,0.517 -8.147,1.001c-0.644,0.405 -2.214,0.889 -3.489,1.076c-3.756,0.548 -8.051,1.817 -10.639,3.143c-1.329,0.68 -3.606,1.389 -5.061,1.576c-1.454,0.187 -3.024,0.676 -3.488,1.087c-0.83,0.734 -3.318,2.1 -7.008,3.848c-1.028,0.487 -3.806,1.017 -6.173,1.177c-3.328,0.226 -4.788,0.597 -6.439,1.635c-3.01,1.894 -3.834,2.785 -3.033,3.28c0.353,0.219 0.488,0.8 0.299,1.291c-0.291,0.759 -0.07,0.847 1.458,0.579c0.99,-0.174 2.59,-0.556 3.555,-0.848c0.965,-0.293 3.53,-0.61 5.7,-0.704c3.131,-0.137 4.402,-0.461 6.153,-1.566c1.213,-0.766 2.799,-1.393 3.524,-1.393c0.725,0 1.877,-0.211 2.56,-0.468c1.812,-0.683 3.281,0.08 4.481,2.324c1.045,1.956 1.045,1.985 0.015,2.745c-0.634,0.466 -2.32,0.767 -4.298,0.767c-1.791,0 -4.1,0.259 -5.131,0.577c-1.031,0.317 -4.049,0.556 -6.706,0.531c-3.821,-0.037 -5.237,0.171 -6.771,0.995c-1.067,0.573 -2.879,1.198 -4.026,1.39c-1.147,0.191 -2.448,0.474 -2.891,0.628c-0.443,0.154 -3.1,0.332 -5.904,0.396c-5.907,0.134 -8.688,0.909 -9.899,2.756c-0.663,1.012 -1.33,1.315 -2.891,1.315c-1.116,0 -3.281,0.624 -4.811,1.386c-4.122,2.054 -7.091,1.052 -7.091,-2.393c0,-0.955 -0.292,-1.057 -2.549,-0.891c-1.403,0.103 -3.154,0.421 -3.892,0.706c-0.738,0.285 -2.102,0.684 -3.031,0.886c-0.928,0.202 -2.117,0.84 -2.64,1.418c-0.913,1.009 -0.91,1.084 0.079,1.837c0.679,0.518 1.88,0.714 3.529,0.575c2.162,-0.183 2.538,-0.063 2.787,0.888c0.268,1.027 0.549,1.076 4.21,0.733c5.076,-0.475 9.752,-1.322 12.78,-2.315c1.328,-0.435 3.985,-1.004 5.904,-1.265c1.919,-0.26 4.569,-0.628 5.888,-0.818c1.32,-0.19 3.295,-0.911 4.39,-1.602c1.767,-1.115 2.703,-1.267 8.336,-1.353c4.773,-0.073 7.054,-0.357 9.202,-1.144c1.571,-0.576 3.319,-0.926 3.885,-0.778c0.586,0.153 1.663,-0.229 2.499,-0.887c1.401,-1.102 2.056,-1.16 14.096,-1.249c8.835,-0.065 14.24,-0.36 17.995,-0.982c4.876,-0.806 7.48,-1.191 14.762,-2.179c3.074,-0.417 4.986,1.06 4.727,3.652c-0.268,2.672 -1.05,2.832 -10.455,2.13c-6.027,-0.45 -9.589,-0.474 -12.254,-0.083c-6.707,0.986 -12.143,1.195 -14.294,0.55c-1.635,-0.49 -2.686,-0.451 -5.161,0.19c-1.71,0.443 -3.643,0.666 -4.295,0.495c-0.715,-0.187 -1.921,0.123 -3.03,0.777c-3.895,2.298 -19.699,7.156 -23.777,7.308c-1.257,0.047 -2.691,0.486 -3.255,0.997c-1.344,1.216 -4.037,1.71 -5.386,0.987c-0.812,-0.434 -1.685,-0.389 -3.421,0.176c-3.907,1.272 -8.625,1.911 -11.545,1.564c-1.525,-0.181 -3.457,-0.157 -4.294,0.054l-1.521,0.384l1.342,0.688c0.738,0.379 2.239,0.851 3.336,1.049c2.419,0.436 2.956,1.148 1.816,2.407c-1.421,1.57 -1.089,3.098 0.753,3.466c1.474,0.295 2.325,1.423 1.073,1.423c-1.349,0 -0.259,0.969 2.818,2.505c4.971,2.482 6.285,2.784 15.969,3.666c4.871,0.444 9.823,1.062 11.004,1.372c1.181,0.311 4.039,0.78 6.353,1.042c2.313,0.262 4.789,0.859 5.501,1.326c3.396,2.224 -0.759,6.003 -4.326,3.934l-0.001,0Zm-354.012,-3.11c0,-0.295 0.241,-0.537 0.536,-0.537c0.296,0 0.537,0.242 0.537,0.537c0,0.295 -0.241,0.537 -0.537,0.537c-0.295,0 -0.536,-0.242 -0.536,-0.537Zm62.265,-1.616c0,-0.292 0.604,-0.531 1.342,-0.531c0.738,0 1.342,0.189 1.342,0.42c0,0.231 -0.604,0.47 -1.342,0.531c-0.738,0.061 -1.342,-0.128 -1.342,-0.42Zm295.591,-2.74c-0.535,-0.311 -3.796,-0.698 -7.246,-0.858c-6.162,-0.286 -9.762,-1.134 -9.762,-2.298c0,-0.323 0.624,-1.212 1.386,-1.975c1.302,-1.302 1.605,-1.365 4.965,-1.036c6.249,0.611 12.674,1.654 13.591,2.206c1.175,0.708 1.44,2.568 0.524,3.672c-0.84,1.012 -2.043,1.112 -3.458,0.289Zm-13.521,-8.53c-0.184,-0.297 0.054,-0.689 0.528,-0.871c1.027,-0.395 1.6,0.04 1.106,0.839c-0.445,0.721 -1.199,0.736 -1.634,0.032l0,0Zm-106.949,-3.579c-1.41,-0.983 -1.564,-2.07 -0.359,-2.533c1.362,-0.522 2.393,-0.381 3.215,0.441c0.963,0.963 0.957,1.113 -0.077,2.147c-1.022,1.023 -1.241,1.018 -2.78,-0.055l0.001,0Zm-192.225,-14.209c-1.52,-0.562 -1.804,-1.334 -0.845,-2.294c1.751,-1.751 5.932,-0.537 5.52,1.603c-0.213,1.103 -2.605,1.457 -4.675,0.691Zm17.341,-1.247c-0.573,-0.433 -0.787,-0.795 -0.474,-0.805c0.313,-0.009 1.037,0.338 1.61,0.771c0.573,0.434 0.787,0.796 0.474,0.805c-0.313,0.009 -1.037,-0.337 -1.61,-0.771Zm119.728,-2.974c-0.587,-0.948 0.305,-2.679 1.381,-2.679c1.296,0 1.453,2.41 0.188,2.895c-1.114,0.428 -1.177,0.419 -1.569,-0.216Zm10.258,-4.692c0.176,-1.107 0.546,-2.437 0.823,-2.955c0.588,-1.101 -0.466,-5.23 -1.336,-5.23c-0.305,0 -0.088,-0.341 0.482,-0.758c0.57,-0.416 1.263,-0.617 1.541,-0.445c0.278,0.172 1.67,0.259 3.093,0.194c2.735,-0.125 3.443,0.703 1.782,2.082c-0.443,0.368 -0.806,0.878 -0.806,1.135c0,0.256 -0.664,1.133 -1.476,1.947c-0.812,0.814 -1.554,1.934 -1.649,2.488c-0.359,2.083 -1.169,3.555 -1.958,3.555c-0.641,0 -0.747,-0.43 -0.496,-2.013Zm80.434,0.913c-1.127,-1.245 -0.52,-3.432 1.165,-4.2c1.608,-0.733 3.939,-0.77 5.031,-0.079c0.703,0.444 0.677,0.745 -0.212,2.396c-1.412,2.621 -4.45,3.578 -5.984,1.883l0,0Zm-37.334,-1.916c-0.471,-0.567 -0.519,-1.231 -0.162,-2.244c0.597,-1.697 2.182,-2.216 2.472,-0.809c0.544,2.638 -0.981,4.654 -2.31,3.053Zm60.574,0.022c-0.627,-0.63 -0.474,-2.382 0.268,-3.088c0.955,-0.907 5.241,-1.934 6.329,-1.516c1.212,0.466 0.523,2.386 -1.278,3.566c-1.528,1.001 -4.734,1.627 -5.319,1.038Zm-135.132,-2.373c0,-0.296 0.242,-0.537 0.537,-0.537c0.295,0 0.537,0.241 0.537,0.537c0,0.295 -0.242,0.536 -0.537,0.536c-0.295,0 -0.537,-0.241 -0.537,-0.536Zm24.908,-1.157c-0.302,-0.49 1.207,-2.009 2.033,-2.047c0.736,-0.034 1.079,1.163 0.501,1.742c-0.793,0.792 -2.133,0.953 -2.534,0.305Zm-149.841,-0.272c-0.369,-0.149 -0.671,-0.708 -0.671,-1.242c0,-1.006 1.006,-1.623 2.645,-1.623c1.187,0 2.948,1.885 2.476,2.65c-0.357,0.576 -3.212,0.714 -4.45,0.215Zm251.342,-0.183c-0.183,-0.295 0.346,-0.795 1.176,-1.109c0.829,-0.314 1.991,-1.011 2.582,-1.549c0.738,-0.673 2.329,-1.086 5.099,-1.325c5.797,-0.501 7.272,-0.826 10.249,-2.263c2.645,-1.276 4.905,-1.295 5.676,-0.047c0.547,0.884 -1.908,2.537 -3.773,2.54c-0.927,0.001 -2.348,0.349 -3.158,0.772c-0.81,0.422 -2.38,0.76 -3.489,0.751c-1.109,-0.009 -3.919,0.61 -6.244,1.376c-4.395,1.447 -7.547,1.779 -8.118,0.854l0,0Zm-106.413,-3.898c-2.73,-1.546 -4.964,-3.107 -4.965,-3.47c0,-0.363 -0.959,-1.149 -2.13,-1.747c-2.495,-1.272 -3.755,-3.109 -2.623,-3.826c1.151,-0.73 1.442,-0.602 3.807,1.67c1.229,1.181 2.548,2.147 2.932,2.147c0.383,0 0.697,0.208 0.697,0.462c0,0.254 1.451,1.236 3.224,2.181c1.974,1.052 3.535,2.319 4.025,3.268c1.489,2.878 1.273,2.848 -4.967,-0.685Zm22.718,-13.749c-0.161,-0.259 0.067,-1.19 0.505,-2.068c0.639,-1.282 0.675,-1.954 0.181,-3.42c-0.337,-1.003 -0.874,-2.155 -1.193,-2.56c-0.518,-0.658 -1.314,-2.09 -4.431,-7.96c-0.751,-1.414 -0.791,-1.866 -0.223,-2.55c1.854,-2.234 3.776,0.181 3.781,4.751c0,1.276 0.467,2.965 1.109,4.017c1.098,1.802 1.132,1.814 4.292,1.527c2.871,-0.26 3.185,-0.188 3.185,0.73c0,0.56 -0.483,1.319 -1.074,1.688c-0.59,0.369 -1.073,0.975 -1.073,1.347c0,0.371 -0.195,0.676 -0.434,0.676c-0.239,0 -1.144,0.96 -2.013,2.134c-1.623,2.194 -2.107,2.506 -2.612,1.688Zm-31.487,-0.925c-0.387,-0.466 -2.286,-1.96 -4.221,-3.32c-1.934,-1.36 -4.311,-3.15 -5.281,-3.978c-0.971,-0.829 -2.621,-1.864 -3.668,-2.302c-1.047,-0.437 -2.566,-1.463 -3.376,-2.28c-2.345,-2.365 -5.536,-5.152 -7.477,-6.528c-1.765,-1.251 -1.777,-1.287 -0.767,-2.297c1.339,-1.339 2.973,-0.746 6.075,2.205c1.262,1.201 2.512,2.183 2.776,2.183c0.265,0 0.356,0.203 0.203,0.451c-0.153,0.247 0.723,1.153 1.946,2.012c1.223,0.86 3.196,2.598 4.386,3.864c1.189,1.265 3.235,2.835 4.546,3.489c2.533,1.263 5.436,4.005 6.078,5.741c0.501,1.354 -0.308,1.859 -1.22,0.76Zm2.906,-2.857c-6.136,-4.71 -9.457,-9.207 -6.752,-9.144c0.517,0.012 2.63,1.582 4.697,3.488c2.066,1.906 4.017,3.466 4.334,3.467c0.318,0.001 1.155,0.616 1.861,1.368c0.99,1.053 1.156,1.568 0.726,2.249c-0.885,1.403 -1.357,1.265 -4.866,-1.428Zm64.868,-0.304c0.095,-1.138 0.475,-2.168 0.844,-2.289c0.995,-0.327 0.847,2.811 -0.173,3.658c-0.745,0.619 -0.823,0.46 -0.671,-1.369Zm-149.854,-3.436c0,-0.327 -0.454,-0.595 -1.008,-0.595c-0.554,0 -1.321,-0.377 -1.703,-0.838c-0.394,-0.474 -1.412,-0.8 -2.348,-0.751c-2.585,0.137 -2.878,0.04 -2.799,-0.929c0.041,-0.499 -0.414,-1.163 -1.011,-1.476c-0.619,-0.324 -1.005,-0.974 -0.899,-1.513c0.136,-0.69 -0.263,-1.034 -1.483,-1.278c-1.534,-0.307 -1.603,-0.409 -0.841,-1.25c0.749,-0.828 0.738,-0.994 -0.115,-1.739c-0.519,-0.452 -1.482,-1.101 -2.139,-1.441c-1.191,-0.616 -1.192,-0.622 -0.135,-1.679c1.554,-1.554 1.32,-2.885 -0.683,-3.882c-1.484,-0.739 -1.568,-0.873 -0.562,-0.903c0.897,-0.026 1.316,-0.517 1.734,-2.031c0.36,-1.304 0.369,-2.179 0.025,-2.522c-0.912,-0.912 -0.573,-1.513 0.682,-1.207c1.692,0.414 3.112,-0.768 2.721,-2.263c-0.264,-1.011 -0.113,-1.181 0.965,-1.084c0.703,0.063 1.762,0.074 2.352,0.023c0.899,-0.077 0.943,-0.177 0.269,-0.62c-1.511,-0.991 0.552,-1.612 4.16,-1.252c3.334,0.333 3.354,0.327 3.354,-1.049c0,-1.707 0.722,-2.211 2.104,-1.472c0.698,0.374 1.164,0.383 1.385,0.025c0.585,-0.947 1.743,-0.577 2.094,0.67c0.331,1.179 0.358,1.183 1.13,0.173c0.767,-1.002 1.607,-0.816 1.607,0.357c0,0.316 0.455,0.642 1.01,0.723c0.555,0.082 1.268,0.407 1.583,0.722c0.316,0.316 1.468,0.574 2.561,0.574c1.704,0 2.145,0.269 3.103,1.892c1.412,2.393 2.278,2.715 4.424,1.645c0.945,-0.472 1.86,-0.702 2.033,-0.513c0.174,0.189 0.01,0.453 -0.365,0.587c-1.108,0.395 -2.334,1.835 -2.122,2.49c0.108,0.335 1.025,1.006 2.037,1.491c1.012,0.485 1.719,1.082 1.571,1.326c-0.148,0.244 0.336,0.75 1.074,1.123c0.738,0.373 1.16,0.713 0.939,0.754c-0.221,0.041 -0.644,0.135 -0.939,0.209c-0.296,0.074 -0.9,0.165 -1.342,0.201c-1.176,0.098 -0.984,1.845 0.289,2.64c0.602,0.376 0.96,0.9 0.796,1.165c-0.164,0.266 -0.053,0.634 0.248,0.82c0.772,0.477 0.677,2.18 -0.16,2.875c-0.388,0.322 -1.657,0.658 -2.818,0.748c-1.434,0.11 -2.113,0.417 -2.113,0.956c0,1.123 -0.807,1.581 -2.804,1.591c-1.345,0.006 -1.897,0.337 -2.476,1.484c-0.41,0.812 -0.642,1.766 -0.515,2.12c0.17,0.475 -0.207,0.518 -1.441,0.164c-1.471,-0.422 -1.74,-0.327 -2.251,0.794c-0.495,1.085 -0.731,1.18 -1.602,0.641c-0.806,-0.5 -1.117,-0.477 -1.481,0.107c-0.253,0.407 -0.702,0.591 -0.998,0.408c-0.551,-0.341 -4.481,0.291 -6.158,0.991c-0.565,0.236 -0.939,0.155 -0.939,-0.202l0,0Zm177.402,-3.251c0.59,-0.242 1.692,-1.133 2.449,-1.979c1.936,-2.165 3.989,-3.616 8.018,-5.667c1.717,-0.874 6.314,-4.12 6.539,-4.617c0.24,-0.533 5.788,-3.211 7.493,-3.617c0.827,-0.197 1.572,-0.086 1.79,0.266c0.693,1.121 -1.213,2.965 -4.367,4.226c-1.724,0.69 -3.497,1.474 -3.94,1.742c-0.443,0.268 -3.1,1.679 -5.905,3.135c-2.804,1.456 -6.273,3.632 -7.707,4.834c-1.669,1.399 -3.119,2.174 -4.026,2.152c-1.262,-0.03 -1.3,-0.082 -0.344,-0.475Zm-38.578,-10.36c-0.517,-1.93 -0.387,-8.897 0.172,-9.243c0.935,-0.578 3.784,-6.737 3.801,-8.218c0.019,-1.598 1.09,-3.339 2.055,-3.339c0.717,0 0.748,1.635 0.123,6.441c-0.319,2.46 -0.972,4.321 -2.211,6.31c-1.139,1.828 -1.732,3.433 -1.686,4.562c0.163,3.965 -1.455,6.468 -2.254,3.487Z" style="fill:#fff;fill-rule:nonzero;"/></svg>