<?xml version="1.0" encoding="UTF-8" standalone="no"?><!DOCTYPE svg PUBLIC "-//W3C//DTD SVG 1.1//EN" "http://www.w3.org/Graphics/SVG/1.1/DTD/svg11.dtd"><svg width="100%" height="100%" viewBox="0 0 1000 237" version="1.1" xmlns="http://www.w3.org/2000/svg" xmlns:xlink="http://www.w3.org/1999/xlink" xml:space="preserve" xmlns:serif="http://www.serif.com/" style="fill-rule:evenodd;clip-rule:evenodd;stroke-linejoin:round;stroke-miterlimit:2;"><path id="path2987" d="M193.7,235.471c-4.968,-0.339 -13.338,-0.839 -18.601,-1.111c-18.735,-0.971 -30.319,-1.677 -31.886,-1.946c-0.875,-0.149 -4.34,-0.459 -7.701,-0.689c-3.36,-0.229 -6.944,-0.593 -7.963,-0.808c-1.019,-0.215 -3.407,-0.503 -5.306,-0.64c-6.265,-0.452 -12.021,-1.324 -16.581,-2.511c-1.767,-0.46 -3.451,-0.697 -3.743,-0.527c-0.291,0.17 -0.367,0.061 -0.168,-0.244c0.245,-0.374 -1.524,-0.622 -5.476,-0.766c-3.21,-0.117 -6.191,-0.359 -6.624,-0.538c-0.433,-0.179 -0.922,-1.163 -1.088,-2.187c-0.341,-2.116 -0.9,-2.442 -5.979,-3.483c-1.893,-0.388 -4.867,-1.206 -6.607,-1.818c-1.741,-0.612 -3.794,-1.249 -4.563,-1.417c-2.194,-0.479 -2.155,-1.655 0.129,-3.891c2.401,-2.352 4.295,-3.332 8.148,-4.215c2.499,-0.573 5.918,-2.949 5.948,-4.133c0.01,-0.398 -2.28,-1.171 -5.541,-1.87c-0.874,-0.187 -3.737,-0.528 -6.364,-0.757c-2.626,-0.229 -6.119,-0.801 -7.762,-1.272c-1.826,-0.523 -5.497,-0.92 -9.443,-1.02c-7.009,-0.179 -10.006,-1.009 -10.448,-2.896c-0.15,-0.639 -1.458,-1.65 -3.326,-2.571c-1.694,-0.835 -2.951,-1.713 -2.795,-1.953c0.157,-0.239 -0.03,-0.334 -0.414,-0.21c-1.726,0.553 -4.296,-0.668 -5.206,-2.473c-0.991,-1.968 -0.524,-3.782 0.964,-3.745c0.429,0.011 0.786,-0.159 0.794,-0.379c0.008,-0.219 1.63,-0.426 3.604,-0.46c1.975,-0.034 3.676,-0.29 3.781,-0.569c0.105,-0.279 0.635,-0.496 1.178,-0.482c0.544,0.014 1.142,-0.211 1.331,-0.499c0.188,-0.288 0.581,-0.517 0.874,-0.51c0.293,0.007 0.41,0.2 0.261,0.428c-0.149,0.228 0.431,0.423 1.288,0.433c0.921,0.012 1.567,-0.266 1.577,-0.678c0.01,-0.384 0.253,-0.544 0.541,-0.355c0.288,0.188 0.53,0.114 0.537,-0.164c0.021,-0.821 -1.364,-1.156 -3.813,-0.923c-1.259,0.12 -3.361,-0.081 -4.669,-0.448c-1.308,-0.366 -2.735,-0.745 -3.172,-0.841c-0.436,-0.096 -1.212,-0.366 -1.722,-0.599c-0.511,-0.233 -1.407,-0.311 -1.991,-0.174c-1.359,0.318 -1.804,-0.417 -0.754,-1.245c0.445,-0.351 0.807,-0.428 0.805,-0.173c-0.002,0.255 0.179,0.229 0.401,-0.058c0.684,-0.883 2.833,-1.846 2.818,-1.263c-0.008,0.295 0.24,0.543 0.55,0.551c0.31,0.008 0.451,-0.178 0.314,-0.413c-0.353,-0.606 3.918,-0.593 4.988,0.015c0.571,0.325 1.11,0.295 1.509,-0.084c0.716,-0.681 2.86,-0.907 2.435,-0.257c-0.495,0.758 1.216,0.507 1.902,-0.279c0.489,-0.56 0.995,-0.615 1.969,-0.216c1.683,0.689 2.255,0.688 1.254,-0.002c-0.588,-0.406 -0.318,-0.519 1.077,-0.452c1.023,0.049 3.662,-0.135 5.865,-0.41c2.203,-0.276 4.646,-0.517 5.429,-0.536c2.329,-0.058 1.705,-1.851 -1.403,-4.031c-1.776,-1.245 -2.616,-2.172 -2.413,-2.662c0.198,-0.48 0.526,-0.573 0.902,-0.258c0.325,0.272 1.074,0.314 1.665,0.093c0.591,-0.221 1.968,-0.396 3.058,-0.388c1.536,0.01 2.201,-0.3 2.943,-1.373c1.207,-1.743 1.381,-2.73 0.715,-4.055c-0.289,-0.575 -0.31,-0.904 -0.045,-0.731c0.264,0.172 0.819,-0.563 1.234,-1.635c0.414,-1.071 1.024,-2.117 1.353,-2.324c0.33,-0.207 -0.357,-0.407 -1.527,-0.446c-1.571,-0.052 -1.915,-0.2 -1.316,-0.566c0.615,-0.376 0.391,-0.508 -0.925,-0.548c-0.955,-0.028 -2.146,-0.279 -2.647,-0.557c-0.501,-0.278 -3.11,-1.446 -5.798,-2.596c-5.39,-2.307 -8.525,-2.882 -19.984,-3.662c-8.781,-0.598 -9.768,-0.731 -11.144,-1.511c-1.401,-0.793 -8.642,-2.076 -13.242,-2.346c-2.411,-0.142 -4.554,-0.628 -6.089,-1.38c-1.303,-0.639 -3.56,-1.353 -5.016,-1.587c-2.896,-0.466 -6.602,-1.885 -6.586,-2.521c0.006,-0.221 1.398,-0.818 3.094,-1.327c2.607,-0.783 4.814,-0.888 14.256,-0.68c7.542,0.166 11.835,0.043 13.215,-0.38c1.992,-0.611 3.901,-0.47 8.765,0.647c1.254,0.289 4.82,0.633 7.925,0.765c3.105,0.132 6.101,0.5 6.658,0.816c0.595,0.339 1.815,0.43 2.961,0.221c1.072,-0.195 2.159,-0.298 2.416,-0.229c0.949,0.254 17.146,0.5 18.951,0.288c3.059,-0.36 6.898,-0.58 12.189,-0.699c2.744,-0.062 5.254,-0.365 5.579,-0.673c0.578,-0.549 -0.397,-0.853 -2.148,-0.671c-0.366,0.038 -0.66,-0.206 -0.651,-0.543c0.009,-0.336 -0.329,-0.489 -0.751,-0.34c-0.421,0.15 -1.053,-0.092 -1.403,-0.536c-0.511,-0.649 -0.726,-0.675 -1.092,-0.129c-0.371,0.553 -0.454,0.549 -0.446,-0.022c0.006,-0.443 -0.361,-0.594 -0.999,-0.409c-0.672,0.194 -1.121,-0.024 -1.344,-0.654c-0.185,-0.52 -0.076,-1.025 0.241,-1.122c0.82,-0.25 2.191,-1.621 2.206,-2.206c0.021,-0.816 -2.059,-2.739 -2.613,-2.416c-0.283,0.165 -0.37,-0.05 -0.193,-0.479c0.245,-0.592 0.034,-0.711 -0.881,-0.496c-0.956,0.224 -1.131,0.105 -0.849,-0.576c0.524,-1.269 -0.593,-1.71 -1.506,-0.594c-0.5,0.612 -0.683,0.676 -0.501,0.174c0.322,-0.884 -2.129,-2.372 -3.036,-1.843c-0.312,0.182 -0.378,0.06 -0.153,-0.285c0.218,-0.332 0.142,-0.611 -0.168,-0.619c-0.31,-0.008 -0.572,0.345 -0.584,0.784c-0.028,1.126 -1.081,0.972 -1.097,-0.161c-0.012,-0.792 -0.083,-0.773 -0.469,0.121c-0.25,0.579 -0.385,1.184 -0.3,1.345c0.085,0.161 -0.308,0.316 -0.874,0.344c-1.244,0.062 -1.306,-0.36 -0.168,-1.148c0.661,-0.458 0.192,-0.566 -2.158,-0.497c-1.774,0.052 -2.872,-0.112 -2.682,-0.402c0.178,-0.272 -0.156,-0.379 -0.751,-0.239c-0.623,0.146 -1.065,-0.011 -1.056,-0.374c0.009,-0.344 -0.268,-0.46 -0.616,-0.257c-0.444,0.259 -0.503,0.069 -0.198,-0.639c0.238,-0.554 0.496,-1.332 0.573,-1.729c0.24,-1.235 1.603,-1.563 3.256,-0.782c0.867,0.41 1.278,0.757 0.911,0.771c-1.307,0.052 -0.666,1.091 0.694,1.126c1.001,0.025 1.309,-0.184 1.107,-0.753c-0.154,-0.434 -0.035,-0.931 0.263,-1.106c0.347,-0.202 0.302,-0.63 -0.126,-1.184c-0.566,-0.734 -0.539,-0.816 0.169,-0.53c0.461,0.186 1.182,0.107 1.601,-0.176c0.603,-0.406 0.565,-0.455 -0.182,-0.235c-0.796,0.234 -0.883,0.052 -0.553,-1.162c0.215,-0.792 0.588,-1.563 0.828,-1.714c0.783,-0.49 -0.038,-2.593 -0.894,-2.289c-0.555,0.196 -0.734,-0.019 -0.595,-0.718c0.145,-0.73 -0.088,-0.974 -0.868,-0.908c-0.587,0.05 -0.763,-0.035 -0.391,-0.189c0.371,-0.153 0.556,-0.484 0.409,-0.736c-0.147,-0.251 0.223,-0.782 0.822,-1.179c0.598,-0.397 0.934,-0.883 0.746,-1.082c-0.189,-0.198 0.116,-0.352 0.677,-0.342c0.837,0.015 0.882,-0.074 0.249,-0.498c-0.506,-0.338 -0.909,-0.305 -1.171,0.096c-0.22,0.337 -0.549,0.456 -0.73,0.265c-0.332,-0.349 0.712,-2.579 1.431,-3.054c0.587,-0.388 1.321,-2.81 0.751,-2.477c-0.27,0.157 -0.758,-0.169 -1.086,-0.724c-0.53,-0.899 -0.436,-0.995 0.848,-0.876c0.909,0.085 1.399,-0.112 1.326,-0.533c-0.064,-0.368 0.063,-0.636 0.282,-0.596c1.092,0.202 1.732,-0.097 1.75,-0.816c0.011,-0.439 0.274,-0.792 0.584,-0.784c0.31,0.008 0.434,-0.208 0.275,-0.48c-0.159,-0.272 0.015,-0.607 0.387,-0.746c0.407,-0.153 0.306,-0.279 -0.255,-0.318c-0.511,-0.036 -0.925,-0.25 -0.919,-0.474c0.006,-0.225 -0.828,-0.39 -1.851,-0.368c-1.024,0.022 -1.724,-0.172 -1.555,-0.43c0.169,-0.258 -0.2,-0.482 -0.82,-0.498c-0.619,-0.016 -0.972,-0.265 -0.784,-0.553c0.188,-0.287 0.063,-0.53 -0.278,-0.539c-0.356,-0.009 -0.468,-0.383 -0.263,-0.88c0.299,-0.723 0.222,-0.758 -0.47,-0.213c-0.678,0.534 -0.823,0.508 -0.806,-0.149c0.011,-0.441 0.502,-0.914 1.091,-1.053c0.645,-0.151 1.082,-0.698 1.1,-1.374c0.024,-0.947 -0.204,-1.081 -1.443,-0.852c-1.206,0.224 -1.304,0.172 -0.542,-0.286c0.862,-0.519 0.849,-0.654 -0.181,-1.901c-0.61,-0.739 -1.464,-1.352 -1.899,-1.363c-1.601,-0.041 -0.155,-0.564 1.998,-0.723c1.296,-0.096 2.088,0.04 1.901,0.325c-0.176,0.269 -0.08,0.495 0.212,0.503c0.293,0.007 0.659,-0.181 0.815,-0.419c0.155,-0.238 1.071,-0.368 2.035,-0.289c0.963,0.079 2.035,-0.066 2.381,-0.324c0.387,-0.287 0.758,-0.248 0.962,0.101c0.224,0.384 0.656,0.404 1.336,0.062c0.553,-0.278 1.561,-0.471 2.241,-0.429c1.888,0.118 8.421,-0.299 8.878,-0.565c0.355,-0.208 6.181,-0.8 7.963,-0.81c0.934,-0.005 0.896,-2.507 -0.049,-3.245c-0.43,-0.336 -0.818,-1.276 -0.862,-2.089c-0.05,-0.918 -0.331,-1.389 -0.741,-1.243c-0.386,0.137 -0.538,-0.062 -0.365,-0.48c0.192,-0.465 -0.256,-0.848 -1.293,-1.104c-1.744,-0.43 -2.963,-1.622 -2.454,-2.401c0.184,-0.281 -0.142,-0.388 -0.746,-0.247c-0.763,0.179 -1.065,-0.01 -1.048,-0.658c0.012,-0.5 -0.453,-1.047 -1.034,-1.215c-1.18,-0.341 -1.354,-0.996 -0.411,-1.546c0.391,-0.228 0.474,-0.134 0.22,0.253c-0.222,0.34 -0.205,0.588 0.037,0.553c1.14,-0.168 1.765,0.167 1.746,0.937c-0.028,1.096 1.26,0.703 1.517,-0.463c0.109,-0.493 -0.001,-0.867 -0.245,-0.831c-1.473,0.219 -2.298,-0.218 -2.273,-1.203c0.015,-0.602 0.263,-0.941 0.551,-0.753c0.288,0.189 0.536,-0.15 0.552,-0.753c0.015,-0.602 0.361,-1.086 0.769,-1.076c0.407,0.01 0.893,-0.349 1.078,-0.798c0.186,-0.45 0.116,-0.688 -0.155,-0.53c-0.271,0.158 -0.589,-0.017 -0.706,-0.39c-0.117,-0.372 -0.161,-0.257 -0.097,0.257c0.064,0.514 -0.101,0.929 -0.366,0.923c-0.265,-0.007 -0.475,-0.298 -0.466,-0.646c0.009,-0.349 -0.334,-0.179 -0.762,0.376c-0.572,0.741 -0.619,1.115 -0.176,1.404c0.346,0.227 0.135,0.348 -0.496,0.284c-0.976,-0.099 -1.629,-1.508 -0.687,-1.484c0.207,0.005 0.538,-0.705 0.736,-1.578c0.286,-1.261 0.636,-1.581 1.703,-1.554c0.739,0.019 1.349,-0.205 1.357,-0.498c0.007,-0.292 0.492,-0.519 1.077,-0.504c1.127,0.028 1.411,0.811 0.489,1.348c-0.983,0.574 -0.077,1.198 1.595,1.098c2.177,-0.129 2.711,-0.714 0.758,-0.83c-1.521,-0.091 -1.525,-0.099 -0.21,-0.437l1.339,-0.345l-1.18,-0.682c-1.36,-0.785 -1.54,-1.717 -0.325,-1.686c0.456,0.011 0.675,0.256 0.487,0.544c-0.188,0.288 -0.089,0.53 0.221,0.538c0.31,0.008 0.575,-0.464 0.59,-1.049c0.017,-0.645 0.382,-1.055 0.927,-1.041c0.783,0.02 0.768,-0.079 -0.114,-0.762c-0.809,-0.627 -1.07,-0.648 -1.296,-0.106c-0.172,0.412 -0.671,0.529 -1.271,0.298c-0.927,-0.359 -0.931,-0.435 -0.063,-1.26c0.508,-0.483 1.266,-0.869 1.684,-0.859c0.687,0.018 1.011,-0.62 0.867,-1.707c-0.029,-0.221 0.32,-0.391 0.777,-0.38c0.456,0.012 0.697,-0.205 0.535,-0.482c-0.382,-0.654 0.644,-1.249 1.354,-0.784c0.375,0.245 0.346,0.591 -0.093,1.093c-0.461,0.528 -0.474,0.739 -0.045,0.75c0.624,0.016 0.809,-0.624 0.672,-2.318c-0.107,-1.325 0.915,-1.881 3.358,-1.829c1.175,0.025 1.946,-0.2 1.877,-0.547c-0.076,-0.377 1.033,-0.568 3.074,-0.53c1.756,0.033 3.498,-0.168 3.871,-0.446c0.374,-0.278 1.373,-0.348 2.22,-0.156c1.097,0.249 1.747,0.093 2.257,-0.541c0.395,-0.49 0.5,-0.716 0.234,-0.501c-0.266,0.214 -1.133,-0.646 -1.928,-1.912c-0.794,-1.266 -1.45,-2.086 -1.458,-1.821c-0.008,0.265 -0.483,0.036 -1.054,-0.508c-0.572,-0.545 -1.026,-1.252 -1.009,-1.572c0.017,-0.32 0.265,-0.157 0.55,0.362c0.285,0.52 0.913,0.955 1.396,0.967c0.649,0.017 0.726,-0.137 0.297,-0.589c-0.32,-0.337 -0.439,-0.959 -0.264,-1.382c0.26,-0.63 0.397,-0.639 0.75,-0.049c0.318,0.53 0.437,0.44 0.45,-0.343c0.023,-1.331 -1.185,-3.075 -1.777,-2.566c-0.243,0.209 -0.259,0.081 -0.037,-0.284c0.223,-0.365 0.625,-0.52 0.893,-0.345c0.268,0.175 0.493,0.079 0.501,-0.213c0.007,-0.293 -0.212,-0.679 -0.487,-0.859c-0.673,-0.44 -0.005,-1.979 1.22,-2.814c0.546,-0.373 0.845,-0.929 0.665,-1.238c-0.213,-0.366 0.11,-0.417 0.926,-0.146c1.024,0.338 1.135,0.284 0.607,-0.301c-0.787,-0.868 -0.811,-2.477 -0.041,-2.712c0.529,-0.161 0.674,-1.078 0.509,-3.217c-0.043,-0.556 -0.519,-0.948 -1.18,-0.97c-0.636,-0.021 -0.861,-0.196 -0.527,-0.412c0.838,-0.543 1.38,-2.136 0.845,-2.485c-0.251,-0.164 -0.571,0 -0.711,0.364c-0.141,0.364 -0.392,0.532 -0.559,0.373c-0.166,-0.159 -0.082,-0.627 0.188,-1.039c0.413,-0.632 0.657,-0.59 1.561,0.271c1.046,0.996 1.072,0.996 1.138,0.008c0.038,-0.561 0.18,-0.713 0.32,-0.341c0.138,0.37 0.496,0.678 0.795,0.686c0.3,0.008 0.417,-0.346 0.261,-0.785c-0.156,-0.44 -0.113,-0.76 0.095,-0.71c0.207,0.049 1.063,-0.174 1.901,-0.495c0.837,-0.32 1.739,-0.442 2.002,-0.269c0.264,0.172 0.487,0.046 0.495,-0.281c0.008,-0.327 0.235,-0.452 0.503,-0.276c0.268,0.175 0.634,0.094 0.813,-0.181c0.18,-0.274 0.74,-0.486 1.247,-0.47c1.469,0.044 2.384,-0.226 4.837,-1.425c1.266,-0.62 2.634,-1.119 3.04,-1.108c0.405,0.01 0.841,-0.271 0.969,-0.624c0.249,-0.687 5.218,-0.896 5.201,-0.218c-0.005,0.215 0.653,0.226 1.463,0.022c1.597,-0.401 4.979,-0.231 7.426,0.372c1.27,0.313 1.661,0.157 2.264,-0.903c0.4,-0.705 0.592,-1.515 0.426,-1.801c-0.43,-0.735 -4.019,-1.329 -9.882,-1.634c-2.777,-0.145 -5.571,-0.565 -6.208,-0.933c-0.638,-0.369 -1.349,-0.643 -1.582,-0.611c-0.232,0.033 -1.291,0.009 -2.353,-0.053c-1.454,-0.084 -1.993,-0.377 -2.182,-1.183c-0.204,-0.87 0.014,-1.067 1.162,-1.052c1.35,0.019 1.369,-0.016 0.413,-0.778c-0.895,-0.714 -0.486,-0.772 3.871,-0.55c2.679,0.136 4.868,0.395 4.865,0.574c-0.003,0.179 0.654,0.266 1.461,0.192c3.612,-0.328 9.121,-0.642 11.156,-0.636c1.224,0.004 2.113,-0.186 1.976,-0.421c-0.137,-0.234 0.184,-0.451 0.715,-0.481c2.097,-0.118 2.6,-0.203 3.529,-0.595c0.53,-0.224 1.446,-1.294 2.034,-2.378c1.085,-2 2.825,-3.135 3.154,-2.057c0.126,0.412 0.422,0.399 0.984,-0.043c0.509,-0.401 0.929,-0.438 1.148,-0.1c0.364,0.562 8.947,0.785 9.513,0.248c0.181,-0.173 0.607,-0.073 0.945,0.223c0.652,0.57 3.864,0.563 4.848,-0.011c0.322,-0.188 1.406,-0.093 2.408,0.212c1.003,0.304 6.238,0.787 11.633,1.073c5.395,0.286 12.918,0.718 16.718,0.959c20.478,1.303 26.732,1.599 39.473,1.869c10.009,0.212 13.96,0.465 13.95,0.893c-0.011,0.432 0.181,0.443 0.696,0.037c0.718,-0.566 3.924,-0.634 13.149,-0.281c2.778,0.107 5.291,0.18 5.584,0.163c0.294,-0.017 3.172,-0.192 6.398,-0.39c3.225,-0.197 6.259,-0.224 6.743,-0.06c0.483,0.163 1.01,0.097 1.17,-0.147c0.159,-0.245 2.281,-0.447 4.713,-0.449c2.433,-0.002 5.798,-0.212 7.479,-0.464c1.68,-0.253 6.117,-0.489 9.86,-0.525c3.743,-0.035 8.483,-0.113 10.533,-0.171c2.051,-0.059 4.171,0.135 4.711,0.431c0.54,0.296 0.855,0.32 0.699,0.054c-0.16,-0.275 1.95,-0.409 4.867,-0.308c2.833,0.097 5.995,-0.088 7.027,-0.412c1.418,-0.444 1.97,-0.435 2.253,0.037c0.257,0.428 0.384,0.44 0.399,0.04c0.014,-0.36 1.507,-0.594 3.883,-0.607c5.279,-0.029 21.347,0.325 24.604,0.542c1.461,0.098 4.814,0.083 7.452,-0.031c6.364,-0.278 16.239,-0.188 16.231,0.147c-0.011,0.414 2.546,0.29 6.817,-0.329c2.143,-0.311 4.54,-0.379 5.327,-0.151c1.842,0.535 5.414,0.758 5.424,0.34c0.004,-0.178 0.666,-0.305 1.471,-0.284c14.879,0.394 42.965,0.111 43.913,-0.442c0.229,-0.134 0.41,-0.031 0.404,0.228c-0.007,0.259 0.706,0.385 1.583,0.279c0.877,-0.106 2.013,-0.005 2.523,0.225c1.173,0.528 3.297,0.744 3.043,0.308c-0.106,-0.18 3.925,-0.173 8.956,0.016c5.031,0.19 9.147,0.386 9.145,0.436c0,0.05 1.493,0.177 3.32,0.281c1.827,0.104 3.326,0.036 3.331,-0.153c0.005,-0.189 0.843,-0.132 1.862,0.125c1.02,0.257 1.962,0.302 2.095,0.1c0.132,-0.202 2.409,-0.299 5.059,-0.215c2.873,0.091 4.827,-0.062 4.84,-0.379c0.013,-0.313 0.176,-0.29 0.398,0.057c0.466,0.73 4.486,0.795 5.038,0.082c0.27,-0.348 0.402,-0.345 0.399,0.01c0,0.293 0.892,0.527 1.991,0.521c1.098,-0.006 2.545,0.21 3.216,0.481c0.73,0.295 1.618,0.292 2.212,-0.006c0.955,-0.481 3.189,-0.628 14.678,-0.971c2.929,-0.088 7.726,-0.314 10.658,-0.503c2.932,-0.188 9.521,-0.267 14.642,-0.174c5.12,0.092 10.272,0.013 11.448,-0.177c1.176,-0.19 7.644,-0.25 14.375,-0.132c15.806,0.275 27.702,0.147 32.44,-0.348c2.075,-0.217 6.535,-0.684 9.91,-1.037c3.376,-0.353 9.017,-0.845 12.536,-1.092c3.52,-0.248 7.479,-0.543 8.8,-0.656c4.325,-0.37 8.725,-0.159 12.283,0.59c2.243,0.472 9.064,0.873 19.026,1.118c8.541,0.211 15.695,0.487 15.897,0.614c0.202,0.127 9.219,0.612 20.039,1.079c10.82,0.467 21.584,1.01 23.921,1.207c13.122,1.108 23.083,1.564 44.925,2.057c3.072,0.069 6.421,0.222 7.443,0.34c2.209,0.256 12.437,0.978 22.049,1.559c20.775,1.255 28.526,1.659 42.525,2.217c8.482,0.338 16.255,0.766 17.275,0.951c1.02,0.184 3.767,0.471 6.105,0.638c4.326,0.309 9.265,1.019 9.902,1.423c0.194,0.124 1.983,0.391 3.977,0.594c1.994,0.203 5.055,0.634 6.804,0.957c1.748,0.323 3.894,0.704 4.768,0.846c0.875,0.143 3.533,0.813 5.906,1.49c2.374,0.677 4.814,1.244 5.424,1.26c0.609,0.015 1.103,0.227 1.097,0.471c-0.006,0.244 0.288,0.454 0.653,0.466c3.592,0.124 12.176,1.161 13.523,1.634c0.938,0.33 2.193,1.322 2.789,2.207c1.178,1.746 4.365,3.535 7.305,4.1c3.678,0.706 10.045,1.461 11.379,1.349c0.75,-0.063 1.357,0.144 1.349,0.459c-0.01,0.316 0.152,0.416 0.354,0.224c0.203,-0.193 0.856,0.131 1.451,0.719c0.596,0.589 2.678,1.955 4.629,3.035c2.841,1.575 4.295,2.027 7.315,2.275c3.988,0.328 4.693,0.802 4.246,2.854c-0.284,1.309 -2.428,2.332 -4.76,2.273c-0.67,-0.017 -1.373,0.204 -1.561,0.492c-0.188,0.288 -1.154,0.503 -2.146,0.478c-2.802,-0.072 -7.205,0.9 -7.208,1.59c0,1.135 4.019,2.624 7.979,2.953c2.145,0.179 7.128,0.548 11.073,0.822c7.968,0.552 8.802,0.718 9.197,1.83c0.582,1.639 -6.865,6.976 -12.932,9.267c-1.958,0.74 -2.952,1.496 -3.635,2.766c-1.173,2.181 -0.663,3.245 2.493,5.212c1.225,0.763 2.217,1.754 2.206,2.201c-0.011,0.448 0.329,1.182 0.757,1.632c1.213,1.276 0.882,2.556 -0.92,3.56c-0.908,0.505 -2.702,1.863 -3.987,3.016c-1.956,1.756 -2.761,2.119 -4.949,2.227c-1.926,0.095 -2.856,0.433 -3.533,1.283c-0.506,0.634 -0.809,1.343 -0.674,1.574c0.135,0.231 0,0.414 -0.3,0.406c-0.299,-0.008 -0.838,0.518 -1.197,1.167c-0.359,0.65 -0.469,1.018 -0.243,0.818c0.563,-0.498 1.993,1.084 1.568,1.734c-0.198,0.303 0.065,0.419 0.624,0.278c0.531,-0.135 0,0.207 -1.189,0.76c-1.185,0.552 -2.917,0.991 -3.849,0.975c-0.932,-0.016 -2.314,0.189 -3.072,0.455c-1.013,0.356 -1.378,0.311 -1.377,-0.168c0,-0.359 -0.249,-0.249 -0.554,0.245c-1.047,1.695 -0.086,3.579 2.546,4.998c1.364,0.736 2.839,1.916 3.276,2.622c0.437,0.706 1.73,1.59 2.874,1.964c4.26,1.396 4.855,4.17 1.104,5.143c-2.332,0.605 -3.48,2.297 -2.825,4.161c0.34,0.97 0.322,1.411 -0.06,1.401c-0.983,-0.025 -1.956,1.277 -1.933,2.586c0.023,1.295 -0.019,1.316 -4.526,2.237c-0.736,0.151 -2.072,0.883 -2.969,1.627c-0.897,0.744 -2.298,1.679 -3.114,2.077c-0.815,0.398 -1.491,1.069 -1.501,1.49c-0.025,0.988 -1.957,1.961 -4.258,2.146c-2.515,0.202 -3.554,0.829 -3.696,2.233c-0.118,1.17 1.925,3.722 3.001,3.75c0.658,0.017 3.601,3.151 3.584,3.817c-0.023,0.91 -1.956,1.486 -5.676,1.691c-2.028,0.112 -4.89,0.428 -6.361,0.701c-2.436,0.454 -11.127,1.706 -13.108,1.889c-0.828,0.077 -1.238,1.966 -0.431,1.987c0.24,0.006 0.186,0.452 -0.121,0.991c-0.306,0.54 -0.394,1.152 -0.195,1.362c0.667,0.701 0.254,7.453 -0.502,8.202c-0.395,0.391 -1.82,0.757 -3.168,0.813c-2.175,0.091 -3.631,0.89 -3.155,1.731c0.093,0.163 -0.174,0.596 -0.591,0.963c-0.418,0.367 -0.755,0.49 -0.75,0.274c0.005,-0.216 -0.279,-0.119 -0.632,0.216c-0.468,0.445 -0.827,0.447 -1.33,0.008c-0.503,-0.439 -1.124,-0.434 -2.302,0.019c-2.715,1.044 -1.872,2.668 1.776,3.421c4.079,0.842 4.987,1.225 4.346,1.834c-0.174,0.165 -3.961,0.285 -8.415,0.266c-9.473,-0.041 -10.567,0.365 -11.438,4.25c-0.282,1.256 -1.103,3.167 -1.824,4.248c-1.191,1.784 -2.133,4.113 -2.221,5.488c-0.018,0.293 -0.84,0.588 -1.826,0.657c-1.23,0.087 -1.885,0.444 -2.086,1.139c-0.161,0.557 -0.501,0.876 -0.757,0.709c-0.255,-0.167 -0.47,-0.06 -0.477,0.238c-0.007,0.297 -1.113,1.148 -2.456,1.889c-3.81,2.105 -4.378,3.886 -1.601,5.023c1.298,0.532 1.351,0.934 0.416,3.162c-0.686,1.634 1.038,2.734 6.739,4.3c5.518,1.516 7.055,2.514 5.439,3.532c-1.004,0.632 -8.212,-0.172 -19.547,-2.181c-5.135,-0.911 -7.305,-0.551 -8.497,1.409c-1.189,1.954 -2.415,2.51 -5.952,2.7c-2.932,0.157 -5.691,1.537 -5.725,2.864c-0.021,0.814 2.322,1.642 5.036,1.781c2.041,0.104 4.436,1.567 3.242,1.979c-0.375,0.13 -1.045,0.581 -1.489,1.004c-0.445,0.423 -0.805,0.625 -0.801,0.451c0.017,-0.644 -3.26,1.292 -3.924,2.318c-0.827,1.278 -3.625,2.997 -4.728,2.905c-2.739,-0.231 -6.385,0.037 -6.396,0.469c-0.022,0.824 2.724,3.257 3.298,2.922c0.289,-0.169 0.358,-0.051 0.154,0.262c-0.205,0.312 -0.128,0.727 0.169,0.921c0.297,0.195 0.39,0.583 0.207,0.864c-0.184,0.281 -0.045,0.877 0.308,1.324c1.002,1.273 -0.019,1.756 -4.088,1.933c-2.047,0.089 -4.805,0.37 -6.129,0.626c-1.324,0.256 -5.771,0.896 -9.883,1.423c-4.112,0.527 -8.82,1.38 -10.463,1.897c-1.679,0.528 -4.43,0.902 -6.283,0.855c-1.812,-0.046 -5.04,0.358 -7.173,0.899c-3.661,0.928 -4.915,0.94 -22.487,0.227c-10.236,-0.415 -20.642,-0.913 -23.126,-1.105c-6.472,-0.501 -14.427,-1.279 -15.519,-1.518c-0.514,-0.113 -6.736,-0.517 -13.826,-0.897c-10.138,-0.544 -14.429,-0.553 -20.093,-0.044c-3.961,0.357 -11.24,0.691 -16.176,0.743c-4.935,0.051 -9.849,0.178 -10.918,0.281c-3.693,0.354 -16.357,0.875 -23.789,0.977c-4.1,0.057 -11.529,0.225 -16.51,0.374c-4.98,0.15 -15.043,0.266 -22.362,0.258c-7.318,-0.007 -14.026,0.048 -14.906,0.122c-0.88,0.074 -6.895,0.153 -13.366,0.176c-6.471,0.023 -12.461,0.108 -13.311,0.189c-1.636,0.157 -5.666,0.331 -19.928,0.861c-11.194,0.416 -19.6,0.969 -26.541,1.747c-3.018,0.338 -6.402,0.591 -7.52,0.563c-1.118,-0.029 -2.732,0.155 -3.587,0.408c-0.855,0.253 -3.068,0.547 -4.918,0.652c-1.849,0.105 -5.694,0.606 -8.544,1.114c-2.85,0.507 -6.622,1.014 -8.381,1.125c-1.759,0.111 -5,0.389 -7.201,0.618c-2.202,0.228 -5.442,0.499 -7.201,0.601c-1.759,0.102 -5.804,0.488 -8.987,0.858c-3.184,0.37 -7.745,0.765 -10.136,0.877c-2.391,0.113 -5.723,0.35 -7.405,0.527c-1.683,0.176 -5.997,0.294 -9.588,0.262c-3.591,-0.033 -8.329,0.113 -10.53,0.324c-4.345,0.417 -13.591,0.684 -20.774,0.599c-2.488,-0.03 -5.605,0.12 -6.928,0.333c-1.323,0.213 -10.427,0.311 -20.232,0.217c-9.805,-0.094 -18.343,-0.079 -18.975,0.035c-0.632,0.113 -5.785,0.249 -11.451,0.303c-5.667,0.053 -11.502,0.142 -12.968,0.197c-1.465,0.055 -6.856,0.139 -11.98,0.188c-5.125,0.048 -11.356,0.192 -13.848,0.319c-2.491,0.128 -4.767,0.162 -5.058,0.076c-0.291,-0.086 -4.006,0.015 -8.256,0.223c-4.25,0.208 -10.124,0.45 -13.054,0.536c-2.93,0.087 -6.167,0.234 -7.194,0.328c-1.027,0.094 -5.102,0.242 -9.055,0.329c-3.953,0.087 -7.31,0.23 -7.46,0.317c-0.15,0.087 -3.268,0.237 -6.93,0.333c-3.662,0.095 -7.139,0.257 -7.727,0.36c-1.077,0.188 -38.773,-0.082 -55.08,-0.394c-4.828,-0.092 -12.843,-0.445 -17.811,-0.784l0,-0.001Zm-107.95,-68.6c0.265,-0.01 0.053,-0.519 -0.472,-1.13c-0.817,-0.95 -1.489,-1.101 -4.671,-1.05c-2.044,0.033 -3.807,0.313 -3.918,0.623c-0.291,0.811 3.375,1.811 6.181,1.685c1.319,-0.06 2.615,-0.117 2.88,-0.128Zm13.291,-28.733c0.003,-0.129 -0.234,-0.241 -0.526,-0.248c-0.293,-0.007 -0.539,0.24 -0.546,0.549c-0.008,0.31 0.228,0.422 0.525,0.249c0.298,-0.174 0.543,-0.421 0.547,-0.55Zm-26.724,-16.561c0.003,-0.115 -0.363,-0.361 -0.812,-0.547c-0.469,-0.193 -0.685,-0.11 -0.506,0.197c0.299,0.513 1.307,0.781 1.318,0.35Zm6.349,-16.803c-0.512,-0.535 -0.575,-0.476 -0.305,0.29c0.186,0.53 0.476,0.832 0.644,0.673c0.168,-0.16 0.015,-0.593 -0.339,-0.963Zm4.418,-6.275c-0.512,-0.535 -0.575,-0.475 -0.305,0.29c0.186,0.53 0.476,0.833 0.644,0.673c0.168,-0.16 0.015,-0.593 -0.339,-0.963Zm-3.978,-3.153c-0.173,-0.297 -0.421,-0.543 -0.55,-0.546c-0.129,-0.003 -0.24,0.233 -0.248,0.526c-0.007,0.292 0.24,0.538 0.55,0.546c0.31,0.008 0.421,-0.229 0.248,-0.526Zm21.757,-24.826c-0.38,-0.164 -0.839,-0.156 -1.021,0.016c-0.181,0.172 0.13,0.306 0.691,0.297c0.621,-0.01 0.75,-0.132 0.33,-0.313l0,0Zm-0.064,-1.396c-0.797,-0.692 -2.058,-2.797 -2.043,-3.409c0.005,-0.186 0.366,-0.026 0.803,0.356c1.034,0.903 1.661,0.298 0.81,-0.783c-0.748,-0.949 -2.128,-0.247 -2.162,1.1c-0.011,0.42 -0.206,0.642 -0.434,0.493c-0.228,-0.149 -0.462,0.19 -0.519,0.754c-0.069,0.687 0.237,1.034 0.928,1.051c0.567,0.015 1.024,0.266 1.017,0.558c-0.007,0.293 0.525,0.538 1.184,0.546c1.027,0.011 1.086,-0.083 0.416,-0.666Zm-3.163,-1.219c0.003,-0.129 0.249,-0.376 0.546,-0.55c0.298,-0.173 0.534,-0.061 0.526,0.249c-0.008,0.309 -0.253,0.557 -0.546,0.549c-0.292,-0.007 -0.529,-0.119 -0.526,-0.248Zm9.689,-10.829c0.05,-0.657 -0.034,-0.898 -0.184,-0.534c-0.151,0.364 -0.487,0.523 -0.747,0.353c-0.261,-0.17 -0.34,0.066 -0.178,0.524c0.431,1.214 1.006,1.036 1.109,-0.343Zm-2.725,-0.504c0.596,-0.912 -0.051,-1.125 -0.803,-0.264c-0.432,0.495 -0.48,0.799 -0.128,0.808c0.311,0.008 0.73,-0.237 0.931,-0.544Zm17.731,-17.819c0.003,-0.115 -0.35,-0.356 -0.785,-0.536c-0.434,-0.179 -0.796,-0.095 -0.803,0.189c-0.007,0.283 0.346,0.524 0.785,0.535c0.438,0.012 0.8,-0.073 0.803,-0.188Zm-89.782,139.537c0.007,-0.275 0.256,-0.642 0.553,-0.816c0.297,-0.173 0.531,0.058 0.519,0.514c-0.012,0.456 -0.26,0.823 -0.553,0.816c-0.293,-0.007 -0.526,-0.239 -0.519,-0.514Zm22.8,-43.186c0.317,-0.302 0.887,-0.435 1.268,-0.298c0.395,0.143 0.148,0.378 -0.577,0.548c-0.89,0.209 -1.096,0.134 -0.691,-0.25Zm7.567,0.282c-0.546,-0.373 -0.582,-0.553 -0.117,-0.594c1.169,-0.101 1.454,-0.178 2.106,-0.57c0.351,-0.211 0.805,-0.099 1.008,0.249c0.23,0.395 0.142,0.485 -0.236,0.238c-0.358,-0.234 -0.613,-0.058 -0.625,0.434c-0.024,0.935 -0.965,1.043 -2.136,0.243Zm-2.708,-1.267c0.413,-0.392 0.802,-0.412 1.139,-0.057c0.337,0.355 0.123,0.559 -0.627,0.596c-0.858,0.043 -0.984,-0.091 -0.512,-0.539l0,0Zm13.585,-7.802c0.011,-0.456 0.257,-0.675 0.545,-0.487c0.288,0.188 0.517,0.567 0.51,0.843c-0.007,0.275 -0.252,0.494 -0.544,0.487c-0.293,-0.007 -0.523,-0.387 -0.511,-0.843Zm0.818,-8.875c0.91,-1.645 1.002,-1.692 0.875,-0.439c-0.061,0.609 -0.429,1.22 -0.817,1.358c-0.562,0.199 -0.574,0.014 -0.058,-0.919Zm3.664,-19.434c-0.445,-0.291 -0.188,-0.535 0.795,-0.756c1.782,-0.399 2.123,-0.148 0.832,0.614c-0.534,0.314 -1.266,0.378 -1.627,0.142Zm11.664,-35.708c0.181,-0.173 0.641,-0.18 1.021,-0.016c0.42,0.18 0.29,0.303 -0.33,0.313c-0.561,0.009 -0.872,-0.125 -0.691,-0.297l0,0Zm1.65,-2.087c0.181,-0.173 0.641,-0.18 1.021,-0.016c0.42,0.18 0.29,0.303 -0.33,0.313c-0.561,0.009 -0.872,-0.125 -0.691,-0.297l0,0Zm9.646,-6.574c-0.009,-0.562 0.125,-0.873 0.297,-0.691c0.173,0.181 0.18,0.64 0.016,1.02c-0.18,0.42 -0.303,0.291 -0.313,-0.329l0,0Zm19.329,-29.093c-0.472,-0.322 -0.532,-0.533 -0.151,-0.528c0.348,0.005 0.775,0.251 0.949,0.548c0.391,0.671 0.207,0.666 -0.798,-0.02l0,0Z" style="fill:#fff;fill-rule:nonzero;"/></svg>